<?xml version="1.0" standalone="no"?>
<!DOCTYPE svg PUBLIC "-//W3C//DTD SVG 1.1//EN" "http://www.w3.org/Graphics/SVG/1.1/DTD/svg11.dtd" >
<svg>
<metadata>
Created by FontForge 20090622 at Mon Oct 26 07:26:04 2015
 By deploy user
Copyright (c) Frantisek Storm, www.stormtype.com, 2001. All rights reserved.
</metadata>
<defs>
<font id="JohnSansMediumPro" horiz-adv-x="573" >
  <font-face 
    font-family="JohnSans Medium Pro"
    font-weight="400"
    font-stretch="normal"
    units-per-em="1000"
    panose-1="2 0 5 3 9 0 0 2 0 3"
    ascent="800"
    descent="-200"
    x-height="484"
    cap-height="706"
    bbox="-74.1429 -247 1239 927"
    underline-thickness="0"
    underline-position="0"
    unicode-range="U+0020-U+FB04"
  />
<missing-glyph horiz-adv-x="500" 
 />
    <glyph glyph-name="ff" unicode="ff" horiz-adv-x="623" 
d="M307 404q-62 0 -109 4q5 -77 5 -114v-285q0 -3 -3 -6t-6 -3h-96q-9 0 -9 9v281q0 65 5 113q-40 -4 -65 -4q-6 0 -6 8v68q0 9 6 9q33 0 65 -5q-5 30 -5 73q0 74 50.5 118.5t159.5 44.5q16 0 16 -16v-67q0 -11 -12 -11q-61 0 -82.5 -18.5t-21.5 -65.5q0 -26 -4 -58
q63 5 109 5q55 0 87 -5q-5 45 -5 73q0 74 50.5 118.5t159.5 44.5q16 0 16 -16v-67q0 -11 -12 -11q-61 0 -82 -18.5t-21 -65.5q0 -18 -5 -58q63 5 113 5q7 0 7 -9v-68q0 -8 -7 -8q-40 0 -110 4q5 -75 5 -113v-281q0 -3 -3 -6t-6 -3h-96q-9 0 -9 9v285q0 39 5 114
q-27 -4 -84 -4z" />
    <glyph glyph-name="fi" unicode="fi" horiz-adv-x="569" 
d="M295 404q-50 0 -97 4q5 -77 5 -114v-285q0 -3 -3 -6t-6 -3h-96q-9 0 -9 9v281q0 65 5 113q-40 -4 -65 -4q-6 0 -6 8v68q0 9 6 9q33 0 65 -5q-5 30 -5 73q0 163 193 163q15 0 15 -16v-61q0 -11 -12 -11q-51 0 -68.5 -19t-17.5 -70q0 -27 -4 -59q51 5 112 5h184q9 0 9 -10
v-465q0 -3 -3 -6t-6 -3h-96q-9 0 -9 9v286q0 60 5 113q-40 -4 -96 -4zM443 714q28 0 47 -19t19 -47q0 -27 -19 -45t-47 -18q-27 0 -46.5 18t-19.5 45q0 28 19.5 47t46.5 19z" />
    <glyph glyph-name="fl" unicode="fl" horiz-adv-x="568" 
d="M296 404q-51 0 -98 4q5 -77 5 -114v-285q0 -3 -3 -6t-6 -3h-96q-9 0 -9 9v281q0 65 5 113q-40 -4 -65 -4q-6 0 -6 8v68q0 9 6 9q33 0 65 -5q-5 30 -5 73q0 163 193 163q15 0 15 -16v-61q0 -11 -12 -11q-51 0 -68.5 -19t-17.5 -70q0 -27 -4 -59q63 5 95 5q52 0 100 -5
q-4 42 -4 71v146q0 10 9 10h96q9 0 9 -10v-687q0 -3 -3 -6t-6 -3h-96q-9 0 -9 9v286q0 60 5 113q-40 -4 -95 -4z" />
    <glyph glyph-name="ffi" unicode="ffi" horiz-adv-x="866" 
d="M298 404q-53 0 -100 4q5 -77 5 -114v-285q0 -3 -3 -6t-6 -3h-96q-9 0 -9 9v281q0 65 5 113q-40 -4 -65 -4q-6 0 -6 8v68q0 9 6 9q33 0 65 -5q-5 30 -5 73q0 74 50.5 118.5t159.5 44.5q16 0 16 -16v-67q0 -11 -12 -11q-61 0 -82.5 -18.5t-21.5 -65.5q0 -26 -4 -58
q63 5 98 5q66 0 98 -5q-5 45 -5 73q0 78 48 120.5t144 42.5q16 0 16 -16v-61q0 -11 -12 -11q-50 0 -67.5 -18.5t-17.5 -70.5q0 -19 -5 -59q51 5 113 5h183q9 0 9 -10v-465q0 -3 -3 -6t-6 -3h-96q-9 0 -9 9v286q0 60 5 113q-40 -4 -96 -4q-50 0 -97 4q5 -78 5 -114v-285
q0 -3 -3 -6t-6 -3h-96q-9 0 -9 9v285q0 39 5 114q-27 -4 -93 -4zM740 714q28 0 47 -19t19 -47q0 -27 -19 -45t-47 -18t-47.5 18t-19.5 45q0 28 19.5 47t47.5 19z" />
    <glyph glyph-name="ffl" unicode="ffl" horiz-adv-x="865" 
d="M688 408q-36 -4 -96 -4q-50 0 -97 4q5 -78 5 -114v-285q0 -3 -3 -6t-6 -3h-96q-9 0 -9 9v285q0 39 5 114q-27 -4 -93 -4q-53 0 -100 4q5 -77 5 -114v-285q0 -3 -3 -6t-6 -3h-96q-9 0 -9 9v281q0 65 5 113q-40 -4 -65 -4q-6 0 -6 8v68q0 9 6 9q33 0 65 -5q-5 30 -5 73
q0 74 50.5 118.5t159.5 44.5q16 0 16 -16v-67q0 -11 -12 -11q-61 0 -82.5 -18.5t-21.5 -65.5q0 -26 -4 -58q63 5 98 5q66 0 98 -5q-5 45 -5 73q0 78 48 120.5t144 42.5q16 0 16 -16v-61q0 -11 -12 -11q-50 0 -67.5 -18.5t-17.5 -70.5q0 -19 -5 -59q63 5 102 5q50 0 93 -5
q-4 42 -4 71v146q0 10 9 10h95q9 0 9 -10v-687q0 -3 -3 -6t-6 -3h-95q-9 0 -9 9v286q0 60 5 113z" />
    <glyph glyph-name="fj" unicode="fj" horiz-adv-x="569" 
d="M500 -57q0 -159 -145 -159q-44 0 -72 17q-8 3 -8 20v56q0 12 9 12q5 0 10 -4q14 -10 37 -10q55 0 55 61v359q0 60 5 113q-40 -4 -96 -4q-50 0 -97 4q5 -77 5 -114v-285q0 -3 -3 -6t-6 -3h-96q-9 0 -9 9v281q0 65 5 113q-40 -4 -65 -4q-6 0 -6 8v68q0 9 6 9q33 0 65 -5
q-5 30 -5 73q0 163 193 163q15 0 15 -16v-61q0 -11 -12 -11q-51 0 -68.5 -19t-17.5 -70q0 -27 -4 -59q51 5 112 5h184q9 0 9 -10v-531zM443 714q28 0 47 -19t19 -47q0 -27 -19 -45t-47 -18q-27 0 -46.5 18t-19.5 45q0 28 19.5 47t46.5 19z" />
    <glyph glyph-name=".notdef" horiz-adv-x="500" 
 />
    <glyph glyph-name=".null" horiz-adv-x="0" 
 />
    <glyph glyph-name="nonmarkingreturn" horiz-adv-x="333" 
 />
    <glyph glyph-name="space" unicode=" " horiz-adv-x="252" 
 />
    <glyph glyph-name="exclam" unicode="!" horiz-adv-x="331" 
d="M235 696l-29 -495q0 -3 -3 -6t-6 -3h-60q-9 0 -9 9l-29 495q0 10 9 10h118q9 0 9 -10zM167 124q28 0 47 -18.5t19 -45.5t-19 -46t-47 -19q-27 0 -45.5 19t-18.5 46t18.5 45.5t45.5 18.5z" />
    <glyph glyph-name="quotedbl" unicode="&#x22;" horiz-adv-x="373" 
d="M156 696l-21 -206q0 -3 -3.5 -6t-7.5 -3h-47q-10 0 -10 9l-21 206q-2 10 8 10h93q4 0 7 -3t2 -7zM327 696l-21 -206q0 -3 -4 -6t-6 -3h-48q-4 0 -7.5 3t-3.5 6l-21 206q0 10 9 10h93q4 0 7 -3t2 -7z" />
    <glyph glyph-name="numbersign" unicode="#" horiz-adv-x="663" 
d="M481 442h125q10 0 10 -9v-52q0 -9 -10 -9h-125v-122h125q10 0 10 -9v-52q0 -9 -10 -9h-125v-171q0 -3 -3 -6t-6 -3h-69q-9 0 -9 9v171h-123v-171q0 -3 -3 -6t-6 -3h-69q-9 0 -9 9v171h-129q-3 0 -6 3t-3 6v52q0 9 9 9h129v122h-129q-3 0 -6 3t-3 6v52q0 9 9 9h129v168
q0 10 9 10h69q9 0 9 -10v-168h123v168q0 10 9 10h69q9 0 9 -10v-168zM271 250h123v122h-123v-122z" />
    <glyph glyph-name="dollar" unicode="$" horiz-adv-x="553" 
d="M245 37q-105 6 -166 57q-10 9 -10 26v56q0 17 9 17q8 0 12 -5q63 -63 155 -68v192q-93 34 -132 76t-39 109q0 64 44.5 114.5t125.5 61.5v104q0 10 9 10h53q3 0 6.5 -3t3.5 -7v-103q106 -7 150 -59q16 -17 16 -37q0 -23 -13 -37t-35 -14q-18 0 -35 15q-29 37 -83 47v-193
q104 -38 142.5 -80t38.5 -108q0 -71 -50.5 -116.5t-128.5 -53.5v-122q0 -3 -3.5 -7t-6.5 -4h-54q-9 0 -9 11v121zM309 120q40 4 64.5 26t24.5 57q0 66 -89 92v-175zM253 417v172q-37 -4 -58 -27t-21 -54q0 -35 18 -56.5t61 -34.5z" />
    <glyph glyph-name="percent" unicode="%" horiz-adv-x="881" 
d="M777 692l-579 -683q-6 -9 -14 -9h-87q-7 0 -8.5 5t2.5 10l582 681q7 10 16 10h83q5 0 6.5 -5t-1.5 -9zM651 -8q-81 0 -127 54t-46 127q0 74 47 128t129 54q83 0 128 -54t45 -128q0 -73 -47 -127t-129 -54zM653 285q-41 0 -59 -26.5t-18 -88.5q0 -63 18.5 -89t58.5 -26
t59 25.5t19 89.5q0 62 -18.5 88.5t-59.5 26.5zM223 357q-82 0 -127.5 54t-45.5 128q0 73 46.5 127.5t128.5 54.5q83 0 128.5 -54t45.5 -128q0 -73 -47.5 -127.5t-128.5 -54.5zM224 650q-41 0 -58.5 -26t-17.5 -89q0 -62 18.5 -88.5t57.5 -26.5q40 0 59 25.5t19 89.5
q0 62 -18.5 88.5t-59.5 26.5z" />
    <glyph glyph-name="ampersand" unicode="&#x26;" horiz-adv-x="823" 
d="M271 332q-107 -54 -107 -142q0 -49 31.5 -83.5t83.5 -34.5q51 0 86 19t61 69q-83 74 -155 172zM365 378q67 -81 122 -132q32 74 55 117.5t50 76.5t56 46t67 13q82 0 82 -68q0 -59 -46 -59q-17 0 -32 13.5t-32 13.5q-34 0 -73 -59q-18 -29 -78 -139q110 -113 190 -113
q16 0 31 5q16 6 16 -9v-66q0 -26 -65 -26q-55 0 -108 31t-116 90q-41 -70 -95.5 -98t-139.5 -28q-98 0 -154.5 46t-56.5 126q0 76 49 129t151 92q-73 90 -73 174q0 74 56 124.5t142 50.5q81 0 130 -41.5t49 -110.5q0 -64 -47 -116t-130 -83zM332 422q59 29 84 62.5t25 81.5
q0 39 -20 61.5t-59 22.5q-44 0 -66.5 -23.5t-22.5 -64.5q0 -61 59 -140z" />
    <glyph glyph-name="quotesingle" unicode="'" horiz-adv-x="201" 
d="M156 696l-21 -206q0 -3 -3.5 -6t-7.5 -3h-47q-10 0 -10 9l-21 206q-2 10 8 10h93q4 0 7 -3t2 -7z" />
    <glyph glyph-name="parenleft" unicode="(" horiz-adv-x="421" 
d="M85 256q0 112 32.5 206t83 150t105.5 86.5t105 30.5q9 0 9 -10v-55q0 -3 -3 -6t-6 -3q-81 0 -141 -107t-60 -292t60 -292t141 -107q3 0 6 -3t3 -6v-55q0 -10 -9 -10q-50 0 -105 30.5t-105.5 86.5t-83 150t-32.5 206z" />
    <glyph glyph-name="parenright" unicode=")" horiz-adv-x="423" 
d="M336 256q0 -112 -32.5 -206t-83 -150t-105.5 -86.5t-105 -30.5q-9 0 -9 10v55q0 3 3 6t6 3q81 0 141 107t60 292t-60 292t-141 107q-3 0 -6 3t-3 6v55q0 10 9 10q50 0 105 -30.5t105.5 -86.5t83 -150t32.5 -206z" />
    <glyph glyph-name="asterisk" unicode="*" horiz-adv-x="471" 
d="M180 497l-147 24q-6 1 -9 6.5t-1 10.5l27 81q5 12 18 5l133 -61l-20 146q-2 5 1.5 10t8.5 5h87q13 0 11 -14l-16 -148l133 65q12 7 16 -6l27 -83q3 -12 -9 -14l-147 -29l103 -105q11 -11 0 -19l-69 -50q-12 -6 -20 5l-72 128l-67 -130q-8 -14 -20 -4l-67 48q-12 12 -1 22
z" />
    <glyph glyph-name="plus" unicode="+" horiz-adv-x="506" 
d="M129 224h-78q-9 0 -9 9v75q0 10 9 10h81q46 0 75 -3q-5 33 -5 86v67q0 9 10 9h83q3 0 6 -3t3 -6v-66q0 -61 -3 -87q28 3 77 3h77q9 0 9 -10v-75q0 -3 -3 -6t-6 -3h-78q-49 0 -76 3q3 -20 3 -74v-80q0 -9 -9 -9h-83q-10 0 -10 9v81q0 45 5 73q-33 -3 -78 -3z" />
    <glyph glyph-name="comma" unicode="," horiz-adv-x="277" 
d="M222 116l-111 -238q-4 -12 -12 -12h-59q-13 0 -9 12l59 240q4 11 11 11h112q5 0 8 -4t1 -9z" />
    <glyph glyph-name="hyphen" unicode="-" horiz-adv-x="312" 
d="M269 313v-83q0 -3 -3 -6t-6 -3h-209q-9 0 -9 9v83q0 10 9 10h209q9 0 9 -10z" />
    <glyph glyph-name="hyphen" unicode="&#xad;" horiz-adv-x="312" 
d="M269 313v-83q0 -3 -3 -6t-6 -3h-209q-9 0 -9 9v83q0 10 9 10h209q9 0 9 -10z" />
    <glyph glyph-name="period" unicode="." horiz-adv-x="272" 
d="M136 137q31 0 52 -21.5t21 -51.5q0 -31 -21 -52.5t-52 -21.5t-52 21.5t-21 52.5q0 30 21 51.5t52 21.5z" />
    <glyph glyph-name="slash" unicode="/" horiz-adv-x="496" 
d="M544 696l-465 -892q-6 -9 -12 -9h-103q-4 0 -6 3.5t0 5.5l465 892q5 10 14 10h103q3 0 4.5 -3.5t-0.5 -6.5z" />
    <glyph glyph-name="zero" unicode="0" horiz-adv-x="568" 
d="M288 729q119 0 183 -104t64 -269q0 -164 -65.5 -266.5t-188.5 -102.5q-117 0 -182.5 102t-65.5 267q0 164 70 268.5t185 104.5zM285 75q63 0 92 67.5t29 210.5t-27.5 212t-93.5 69t-94.5 -69.5t-28.5 -211.5q0 -278 123 -278z" />
    <glyph glyph-name="one" unicode="1" horiz-adv-x="568" 
d="M254 593q-38 -18 -79 -33l-74 -27q-14 -5 -14 5v74q0 10 11 14l251 93q7 2 13 -0.5t6 -7.5v-534q0 -49 -3 -95q22 2 67 2h52q11 0 12 -10l6 -65q1 -4 -2 -6.5t-9 -2.5h-365q-6 0 -9 2.5t-2 6.5l6 65q0 10 11 10h56q46 0 66 -2q-3 46 -3 93v323q0 48 3 95z" />
    <glyph glyph-name="two" unicode="2" horiz-adv-x="568" 
d="M204 84q63 8 185 10q29 0 58 1t47 2t23 1q13 0 10 -12l-9 -76q-2 -10 -13 -10h-440q-7 0 -12 9t-5 22q0 17 7 23q191 160 266 255t75 192q0 60 -29.5 93.5t-83.5 33.5t-82 -30t-28 -74q0 -22 -16.5 -34.5t-42.5 -12.5q-59 0 -59 58q0 29 13 60.5t39 62.5t75.5 51
t113.5 20q100 0 161.5 -59t61.5 -162q0 -205 -315 -424z" />
    <glyph glyph-name="three" unicode="3" horiz-adv-x="568" 
d="M257 -13q-117 0 -193 54q-9 6 -9 19v68q0 12 8 12q5 0 13 -6q72 -57 168 -57q66 0 105.5 31t39.5 90q0 70 -46 95t-159 25q-10 0 -10 10v57q0 12 10 12q105 0 149 31t44 103q0 105 -107 105q-75 0 -108 -63q-17 -24 -49 -24q-21 0 -35.5 13t-14.5 39q0 17 10.5 37
t32.5 41.5t66.5 35.5t103.5 14q110 0 169 -48t59 -126q0 -80 -52.5 -130.5t-142.5 -58.5q101 -3 155 -49.5t54 -131.5q0 -89 -70.5 -143.5t-190.5 -54.5z" />
    <glyph glyph-name="four" unicode="4" horiz-adv-x="568" 
d="M427 182q2 -24 2 -82v-91q0 -9 -10 -9h-88q-10 0 -10 9v93q0 57 2 80q-30 -2 -87 -2h-205q-12 0 -12 11v46q0 11 6 22q123 216 301 447h93q10 0 10 -10v-345q0 -60 -2 -87q37 2 119 2q6 0 9 -2.5t2 -6.5l-8 -68q-1 -9 -11 -9q-78 0 -111 2zM323 264q-2 27 -2 88v103
q0 77 4 122l-98 -149t-106 -165q47 3 122 3q52 0 80 -2z" />
    <glyph glyph-name="five" unicode="5" horiz-adv-x="568" 
d="M243 75q67 0 105.5 38.5t38.5 110.5q0 142 -152 142q-36 0 -65 -5t-45 -9.5t-20 -4.5q-13 0 -13 8v337q0 14 16 14h344q11 0 12 -8l7 -74q1 -5 -2.5 -8.5t-10.5 -3.5q-17 0 -62 1.5t-77 1.5q-86 0 -121 2q3 -42 3 -87t-3 -87q25 6 70 6q122 0 183 -59t61 -161
q0 -105 -72.5 -173.5t-202.5 -68.5q-100 0 -145.5 31t-45.5 68q0 26 14.5 40.5t36.5 14.5q9 0 16.5 -3t11 -6t9 -9t8.5 -9q38 -39 101 -39z" />
    <glyph glyph-name="six" unicode="6" horiz-adv-x="568" 
d="M349 640q-78 0 -130 -71.5t-67 -213.5q21 49 65.5 80.5t111.5 31.5q95 0 149 -61.5t54 -164.5q0 -112 -67.5 -183t-176.5 -71q-114 0 -179.5 84t-65.5 233q0 202 92 313.5t237 111.5q142 0 142 -75q0 -21 -13.5 -35.5t-33.5 -14.5q-15 0 -45 18t-73 18zM293 388
q-62 0 -94 -39t-32 -105q0 -83 34.5 -129.5t93.5 -46.5q111 0 111 155q0 165 -113 165z" />
    <glyph glyph-name="seven" unicode="7" horiz-adv-x="568" 
d="M549 671q-118 -204 -177 -352t-59 -278q0 -24 -19 -38.5t-49 -14.5q-71 0 -71 59q0 81 58.5 228t178.5 336q-80 -6 -161 -6q-56 0 -124 -1.5t-72 -1.5q-9 0 -9 9l12 87q1 8 10 8h474q12 0 12 -21q0 -6 -4 -14z" />
    <glyph glyph-name="eight" unicode="8" horiz-adv-x="568" 
d="M280 -12q-114 0 -179.5 47.5t-65.5 129.5q0 117 169 193q-68 34 -106 78.5t-38 108.5q0 76 64 130t167 54q104 0 162 -48t58 -115q0 -106 -151 -178q97 -47 135 -95t38 -111q0 -89 -69 -141.5t-184 -52.5zM286 651q-53 0 -80 -26t-27 -68q0 -40 28.5 -71.5t93.5 -64.5
q92 56 92 135q0 43 -27.5 69t-79.5 26zM260 327q-56 -37 -77.5 -71.5t-21.5 -82.5q0 -52 34 -80.5t91 -28.5q59 0 91.5 29.5t32.5 76.5q0 46 -31.5 78.5t-118.5 78.5z" />
    <glyph glyph-name="nine" unicode="9" horiz-adv-x="568" 
d="M218 -13q-91 0 -146 41q-9 6 -9 18v71q0 13 10 13q5 0 11 -5q59 -47 137 -47q89 0 141 73t61 201q-20 -53 -67 -82t-109 -29q-87 0 -144.5 61.5t-57.5 171.5q0 113 68 184t176 71q118 0 180 -86.5t62 -236.5q0 -202 -86 -310.5t-227 -108.5zM282 320q64 0 94 41.5
t30 112.5q0 83 -32 129.5t-85 46.5q-119 0 -119 -161q0 -169 112 -169z" />
    <glyph glyph-name="colon" unicode=":" horiz-adv-x="272" 
d="M136 137q31 0 52 -21.5t21 -51.5q0 -31 -21 -52.5t-52 -21.5t-52 21.5t-21 52.5q0 30 21 51.5t52 21.5zM136 500q31 0 52 -21t21 -52t-21 -52.5t-52 -21.5t-52 21.5t-21 52.5t21 52t52 21z" />
    <glyph glyph-name="semicolon" unicode=";" horiz-adv-x="277" 
d="M221 116l-111 -238q-6 -11 -12 -11h-59q-6 0 -8.5 3t-0.5 8l59 240q4 11 12 11h111q14 0 9 -13zM148 500q31 0 52 -21t21 -52t-21 -52.5t-52 -21.5t-52.5 21.5t-21.5 52.5t21.5 52t52.5 21z" />
    <glyph glyph-name="less" unicode="&#x3c;" horiz-adv-x="482" 
d="M422 25l-366 194q-10 7 -10 29q0 24 10 29l364 192q16 9 16 -5v-39q0 -11 -11 -20l-221 -150l223 -165q9 -6 9 -17v-43q0 -5 -5 -6.5t-9 1.5z" />
    <glyph glyph-name="equal" unicode="=" horiz-adv-x="501" 
d="M459 402v-70q0 -3 -3 -6t-6 -3h-399q-9 0 -9 9v70q0 10 9 10h399q9 0 9 -10zM459 193v-69q0 -3 -3 -6t-6 -3h-399q-9 0 -9 9v69q0 10 9 10h399q9 0 9 -10z" />
    <glyph glyph-name="greater" unicode="&#x3e;" horiz-adv-x="482" 
d="M60 471l366 -194q10 -6 10 -29q0 -24 -10 -29l-364 -192q-16 -9 -16 5v39q0 10 11 20l222 150l-224 165q-9 7 -9 17v43q0 5 5 6.5t9 -1.5z" />
    <glyph glyph-name="question" unicode="?" horiz-adv-x="491" 
d="M297 305q-44 0 -66 12q4 -84 4 -117q0 -3 -3 -6t-6 -3h-70q-9 0 -9 9v197q0 9 8 9q2 0 12 -4q34 -18 79 -18q101 0 101 111q0 56 -33.5 90t-90.5 34t-90 -41q-23 -29 -48 -29q-23 0 -36 14t-13 38q0 39 45 78t136 39q116 0 182 -62t66 -163q0 -87 -45 -137.5t-123 -50.5z
M196 124q28 0 46.5 -18.5t18.5 -45.5t-18.5 -46t-46.5 -19q-27 0 -46 19t-19 46t19 45.5t46 18.5z" />
    <glyph glyph-name="at" unicode="@" horiz-adv-x="964" 
d="M487 545q-101 0 -177.5 -52t-113 -128t-36.5 -159q0 -124 79 -205t226 -81q170 0 271.5 92.5t101.5 254.5q0 105 -52 197q-3 6 -3 11q0 9 9 9h47q11 0 17 -11q65 -116 65 -236q0 -183 -131 -295.5t-344 -112.5q-93 0 -169.5 29.5t-126 80t-76 117t-26.5 141.5
q0 125 63 227.5t164.5 158.5t217.5 56q100 0 146.5 -46t46.5 -120q0 -36 -4.5 -137.5t-4.5 -129.5q0 -87 23 -113q7 -16 7 -17q0 -12 -11 -12h-47q-25 0 -36 23q-16 33 -17 82q-16 -49 -60.5 -83.5t-108.5 -34.5t-102.5 35.5t-38.5 90.5q0 81 74 136t214 65v73
q0 49 -19.5 71.5t-67.5 22.5zM401 200q0 -30 18 -46.5t45 -16.5q43 0 76.5 34t33.5 82v69q-88 -7 -130.5 -40.5t-42.5 -81.5z" />
    <glyph glyph-name="A" unicode="A" horiz-adv-x="655" 
d="M378 412q-39 116 -55 201q-18 -87 -56 -197q-28 -84 -48 -133q52 3 107 3q69 0 100 -2q-22 53 -48 128zM453 203q-63 -3 -130 -3q-65 0 -131 3q-20 -76 -65 -193q-4 -10 -11 -10h-105q-15 0 -9 16l249 681q5 9 10 9h129q8 0 12 -9l252 -681q5 -16 -9 -16h-114
q-8 0 -12 10q-47 125 -66 193z" />
    <glyph glyph-name="B" unicode="B" horiz-adv-x="666" 
d="M358 94q128 0 128 111q0 121 -159 121q-63 0 -114 3q4 -49 4 -119q0 -66 -4 -119q67 3 145 3zM381 0h-283q-9 0 -9 9v687q0 10 9 10h242q125 0 179.5 -48.5t54.5 -118.5q0 -60 -44 -102t-109 -57q80 -6 138 -60t58 -133q0 -87 -62.5 -137t-173.5 -50zM300 411
q143 0 143 102q0 51 -30.5 75.5t-97.5 24.5q-55 0 -102 3q4 -48 4 -104q0 -61 -4 -105q36 4 87 4z" />
    <glyph glyph-name="C" unicode="C" horiz-adv-x="672" 
d="M408 -13q-158 0 -254.5 103t-96.5 260q0 162 103 270.5t273 108.5q119 0 195 -52q13 -9 13 -29v-85q0 -17 -15 -17q-5 0 -13 6q-77 67 -181 67q-115 0 -177.5 -71t-62.5 -192q0 -123 65 -194t171 -71q112 0 186 60q8 5 13 5q14 0 14 -16v-68q0 -17 -13 -26
q-81 -59 -220 -59z" />
    <glyph glyph-name="D" unicode="D" horiz-adv-x="770" 
d="M350 0h-252q-9 0 -9 9v687q0 10 9 10h244q172 0 271.5 -94.5t99.5 -263.5q0 -168 -98.5 -258t-264.5 -90zM341 100q108 0 172.5 62t64.5 190q0 115 -61.5 184.5t-188.5 69.5q-64 0 -115 3q4 -51 4 -119v-239q0 -95 -4 -155q65 4 128 4z" />
    <glyph glyph-name="E" unicode="E" horiz-adv-x="587" 
d="M368 97q32 0 97 1t94 1q9 0 7 -9l-11 -82q-2 -8 -7 -8h-450q-9 0 -9 9v687q0 10 9 10h435q8 0 8 -9l10 -82q2 -8 -7 -8q-30 0 -106 1t-104 1q-78 0 -121 4q4 -47 4 -102q0 -57 -4 -102q52 5 118 5q25 0 61.5 1t48.5 1q7 0 7 -9v-80q0 -8 -7 -8q-11 0 -48 0.5t-63 0.5
q-64 0 -117 6q4 -52 4 -112q0 -68 -4 -120q74 3 155 3z" />
    <glyph glyph-name="F" unicode="F" horiz-adv-x="538" 
d="M217 9q0 -3 -3 -6t-6 -3h-110q-9 0 -9 9v687q0 10 9 10h436q6 0 7 -9l10 -82q2 -8 -7 -8q-30 0 -106 1t-103 1q-77 0 -122 4q4 -51 4 -111q0 -62 -4 -105q60 4 115 4q34 0 74.5 1t43.5 1q7 0 7 -9v-81q0 -8 -7 -8q-5 0 -43.5 1t-71.5 1q-44 0 -118 4q4 -51 4 -135v-167z
" />
    <glyph glyph-name="G" unicode="G" horiz-adv-x="757" 
d="M437 625q-117 0 -181 -73.5t-64 -195.5q0 -123 64 -196t170 -73q74 0 132 31v197q0 10 9 10h101q9 0 9 -10v-252q-118 -76 -268 -76q-155 0 -253.5 103t-98.5 260q0 156 104.5 267.5t281.5 111.5q137 0 221 -54q13 -7 13 -27v-88q0 -17 -15 -17q-7 0 -13 6q-37 32 -93 54
t-119 22z" />
    <glyph glyph-name="H" unicode="H" horiz-adv-x="785" 
d="M466 427q54 0 100 -3q-2 40 -2 125v147q0 10 9 10h109q9 0 9 -10v-687q0 -3 -3 -6t-6 -3h-109q-9 0 -9 9v175q0 95 2 140q-40 -2 -98 -2h-155q-59 0 -99 2q3 -68 3 -140v-175q0 -3 -3 -6t-6 -3h-110q-9 0 -9 9v687q0 10 9 10h110q9 0 9 -10v-147q0 -65 -3 -125
q47 3 101 3h151z" />
    <glyph glyph-name="I" unicode="I" horiz-adv-x="306" 
d="M217 696v-687q0 -3 -3 -6t-6 -3h-110q-9 0 -9 9v687q0 10 9 10h110q9 0 9 -10z" />
    <glyph glyph-name="J" unicode="J" horiz-adv-x="328" 
d="M109 -37v733q0 10 9 10h109q9 0 9 -10v-729q3 -95 -49.5 -139t-133.5 -44q-54 0 -88 17q-9 5 -9 20v72q0 12 11 12q4 0 12 -4q22 -11 52 -11q34 0 56 18t22 55z" />
    <glyph glyph-name="K" unicode="K" horiz-adv-x="710" 
d="M217 200v-191q0 -3 -3 -6t-6 -3h-110q-9 0 -9 9v687q0 10 9 10h110q9 0 9 -10v-165q0 -68 -3 -119h19q25 0 136 134q100 118 133 152q8 8 16 8h128q8 0 8 -11q0 -8 -5 -11q-35 -19 -182 -181q-97 -103 -123 -118q21 -8 145 -145q163 -183 209 -209q8 -4 8 -15
q0 -16 -9 -16h-137q-8 0 -18 8q-74 75 -162 183q-114 142 -147 142h-20q4 -48 4 -133z" />
    <glyph glyph-name="L" unicode="L" 
d="M213 95q98 5 179 5q31 0 87 0.5t86 0.5q8 0 8 -8l-10 -84q-2 -9 -9 -9h-456q-9 0 -9 9v687q0 10 9 10h110q9 0 9 -10v-442q0 -80 -4 -159z" />
    <glyph glyph-name="M" unicode="M" horiz-adv-x="927" 
d="M729 609l-195 -600q-4 -9 -11 -9h-113q-8 0 -12 9l-198 600q6 -108 6 -190v-410q0 -3 -3 -6t-6 -3h-100q-8 0 -8 9v687q0 10 8 10h172q8 0 11 -10l145 -415q27 -75 46 -173q20 99 46 175l142 413q5 10 11 10h159q9 0 9 -10v-687q0 -3 -3 -6t-6 -3h-98q-8 0 -8 9v385
q0 138 6 215z" />
    <glyph glyph-name="N" unicode="N" horiz-adv-x="790" 
d="M541 8l-272 454q-37 62 -70 154q8 -101 8 -181v-426q0 -3 -3 -6t-6 -3h-100q-9 0 -9 9v687q0 10 9 10h153q10 0 16 -10l248 -414q49 -81 78 -177q-9 97 -9 209v382q0 10 9 10h99q9 0 9 -10v-687q0 -3 -3 -6t-6 -3h-140q-7 0 -11 8z" />
    <glyph glyph-name="O" unicode="O" horiz-adv-x="834" 
d="M417 90q108 0 163.5 73.5t55.5 200.5q0 129 -59 195.5t-159 66.5q-101 0 -160.5 -66t-59.5 -196q0 -126 57 -200t162 -74zM417 729q150 0 255 -100t105 -265q0 -168 -101.5 -272.5t-258.5 -104.5q-153 0 -256.5 104.5t-103.5 272.5q0 163 105 264t255 101z" />
    <glyph glyph-name="P" unicode="P" horiz-adv-x="616" 
d="M310 258q-60 0 -97 3q4 -47 4 -131v-121q0 -3 -3 -6t-6 -3h-110q-9 0 -9 9v684q0 13 9 13h223q124 0 190 -63.5t66 -160.5q0 -104 -69.5 -164t-197.5 -60zM297 350q147 0 147 131q0 60 -32.5 95.5t-100.5 35.5q-51 0 -97 3q3 -49 3 -130q0 -85 -3 -137q26 2 83 2z" />
    <glyph glyph-name="Q" unicode="Q" horiz-adv-x="837" 
d="M826 -182q-45 0 -90.5 16.5t-84.5 40.5l-78 48.5t-85 43t-91 21.5q-149 10 -244.5 112.5t-95.5 265.5q0 162 105.5 262.5t256.5 100.5q152 0 255 -99.5t103 -262.5q0 -131 -73.5 -223t-188.5 -112q49 -11 105 -38t106 -46.5t100 -19.5q35 0 58 10l18 5q13 0 13 -17v-66
q0 -19 -24.5 -30.5t-64.5 -11.5zM417 90q108 0 163.5 73.5t55.5 200.5q0 129 -59 195.5t-159 66.5q-101 0 -160.5 -66t-59.5 -196q0 -126 57 -200t162 -74z" />
    <glyph glyph-name="R" unicode="R" horiz-adv-x="675" 
d="M262 278q-17 0 -49 2q4 -82 4 -138v-133q0 -3 -3 -6t-6 -3h-110q-9 0 -9 9v684q0 13 9 13h231q122 0 182 -56.5t60 -146.5q0 -78 -58 -132.5t-139 -62.5q64 -15 189 -158q97 -109 115 -117q7 -3 7 -16q0 -17 -14 -17h-120q-22 0 -56 49l-36.5 45.5l-37.5 47l-34.5 42
t-35.5 39t-31.5 28.5t-31 20.5t-26.5 6.5zM309 612q-50 0 -95 3q3 -51 3 -138q0 -57 -3 -113q48 3 68 3q157 0 157 131q0 54 -32.5 84t-97.5 30z" />
    <glyph glyph-name="S" unicode="S" horiz-adv-x="577" 
d="M273 83q62 0 97.5 27t35.5 71q0 49 -34 73t-126 59q-88 32 -136 79.5t-48 125.5q0 87 67 149t184 62q104 0 179 -47q13 -8 13 -28v-87q0 -16 -14 -16q-7 0 -13 6q-71 70 -174 70q-55 0 -85.5 -27.5t-30.5 -68.5q0 -20 9 -37t19 -27t34 -22.5t37 -17.5l45 -17
q107 -38 154 -87t47 -127q0 -98 -71.5 -154.5t-183.5 -56.5q-71 0 -117.5 14t-91.5 45q-13 10 -13 27v70q0 18 12 18q7 0 14 -7q86 -69 191 -69z" />
    <glyph glyph-name="T" unicode="T" horiz-adv-x="614" 
d="M611 706q7 0 7 -8v-88q0 -7 -7 -7q-17 0 -55 1t-56 1q-72 0 -131 4q3 -56 3 -112v-488q0 -3 -3 -6t-6 -3h-109q-9 0 -9 9v490q0 57 3 110q-53 -4 -119 -4q-23 0 -63.5 -1t-63.5 -1q-9 0 -7 8l13 86q2 9 7 9h596z" />
    <glyph glyph-name="U" unicode="U" horiz-adv-x="765" 
d="M80 240v456q0 10 9 10h111q9 0 9 -10v-438q0 -75 46.5 -116t127.5 -41q84 0 131 39t47 115v441q0 10 9 10h107q9 0 9 -10v-457q0 -114 -84.5 -183t-218.5 -69q-132 0 -217.5 68.5t-85.5 184.5z" />
    <glyph glyph-name="V" unicode="V" horiz-adv-x="656" 
d="M393 0h-129q-8 0 -12 9l-250 681q-6 16 9 16h114q10 0 12 -10l142 -408q37 -105 54 -199q17 91 54 199l141 408q4 10 12 10h105q15 0 9 -16l-251 -681q-2 -9 -10 -9z" />
    <glyph glyph-name="W" unicode="W" horiz-adv-x="1028" 
d="M516 571q-14 -99 -39 -185l-110 -377q-2 -9 -9 -9h-132q-6 0 -10 9l-211 681q-6 16 8 16h117q7 0 11 -10l115 -386q28 -94 46 -210q13 99 45 209l111 388q3 9 11 9h102q11 0 12 -9l109 -379q33 -116 47 -218q13 85 54 227l108 369q4 10 11 10h104q13 0 7 -16l-211 -681
q-2 -9 -9 -9h-127q-6 0 -10 9l-110 380q-24 81 -40 182z" />
    <glyph glyph-name="X" unicode="X" horiz-adv-x="730" 
d="M432 354q78 -89 275 -341q4 -4 2 -8.5t-9 -4.5h-132q-11 0 -20 12q-116 156 -186 264q-74 -109 -196 -266q-7 -10 -16 -10h-119q-7 0 -8.5 5.5t3.5 11.5q188 237 273 331l-274 342q-5 6 -3 11t10 5h131q10 0 17 -12q122 -162 190 -268q59 88 195 268q9 12 20 12h120
q14 0 4 -15q-202 -253 -277 -337z" />
    <glyph glyph-name="Y" unicode="Y" horiz-adv-x="695" 
d="M409 301v-292q0 -3 -3 -6t-6 -3h-110q-9 0 -9 9v292l-287 389q-5 5 -4 10.5t9 5.5h124q11 0 18 -12l134 -182q45 -61 73 -125q31 67 74 124l137 183q8 12 22 12h112q7 0 9 -5t-3 -11z" />
    <glyph glyph-name="Z" unicode="Z" horiz-adv-x="675" 
d="M633 674l-308 -439q-64 -89 -109 -142q97 6 207 6q28 0 99 1t99 1q5 0 8 -3.5t2 -7.5l-11 -81q-2 -9 -11 -9h-560q-5 0 -9.5 7t-4.5 15q0 7 5 13l315 440q69 97 105 135q-79 -6 -194 -6q-29 0 -95.5 -1t-96.5 -1q-10 0 -8 10l11 85q1 9 9 9h536q15 0 15 -18q0 -6 -4 -14z
" />
    <glyph glyph-name="bracketleft" unicode="[" horiz-adv-x="408" 
d="M116 -215q-9 0 -9 9v922q0 10 9 10h286q9 0 9 -10v-55q0 -3 -3 -6t-6 -3h-94q-65 0 -96 2q3 -26 3 -81v-630q0 -59 -3 -87q31 2 95 2h95q3 0 6 -3t3 -6v-55q0 -3 -3 -6t-6 -3h-286z" />
    <glyph glyph-name="backslash" unicode="\" horiz-adv-x="460" 
d="M-73 696q-2 3 -0.5 6.5t4.5 3.5h103q9 0 14 -10l465 -892q2 -2 0 -5.5t-6 -3.5h-103q-6 0 -12 9z" />
    <glyph glyph-name="bracketright" unicode="]" horiz-adv-x="408" 
d="M292 726q9 0 9 -9v-922q0 -10 -9 -10h-285q-9 0 -9 10v54q0 3 3 6t6 3h93q65 0 96 -2q-3 26 -3 81v631q0 59 3 86q-31 -2 -94 -2h-95q-9 0 -9 10v55q0 3 3 6t6 3h285z" />
    <glyph glyph-name="asciicircum" unicode="^" horiz-adv-x="515" 
d="M483 357q2 -5 0.5 -9.5t-6.5 -4.5h-45q-11 0 -18 9l-160 221l-150 -219q-8 -11 -20 -11h-40q-6 0 -8 4.5t2 11.5l193 364q4 10 28 10q23 0 29 -10z" />
    <glyph glyph-name="underscore" unicode="_" horiz-adv-x="252" 
d="M0 -146v96h252v-96h-252z" />
    <glyph glyph-name="grave" unicode="`" horiz-adv-x="388" 
d="M86 694q-3 3 -2 7.5t5 4.5h88q9 0 16 -10l113 -141q4 -5 2 -9t-8 -4h-46q-9 0 -22 11z" />
    <glyph glyph-name="a" unicode="a" horiz-adv-x="517" 
d="M152 134q0 -30 20 -47t50 -17q51 0 83.5 37t32.5 90v52q-95 -8 -140.5 -38.5t-45.5 -76.5zM68 401q0 35 47 67.5t142 32.5q192 0 192 -154q0 -31 -2.5 -103.5t-2.5 -98.5q0 -96 27 -119q7 -7 7 -14q0 -4 -4 -8t-8 -4h-56q-20 0 -29 19q-18 35 -20 87q-41 -119 -172 -119
q-66 0 -105 35t-39 92q0 79 76 132.5t217 63.5v31q0 78 -89 78q-59 0 -85 -34q-8 -12 -13 -17t-14 -10t-21 -5q-20 0 -34 13t-14 35z" />
    <glyph glyph-name="b" unicode="b" horiz-adv-x="590" 
d="M65 9q0 2 2.5 18.5t4.5 45.5t2 61v562q0 10 9 10h95q9 0 9 -10q0 -179 -6 -288q14 41 52.5 67t96.5 26q99 0 160 -74t61 -182q0 -110 -61.5 -184t-157.5 -74q-63 0 -106.5 28t-56.5 80q0 -54 -6 -86q-2 -9 -9 -9h-80q-9 0 -9 9zM187 194q0 -58 28.5 -92.5t81.5 -34.5
q133 0 133 175q0 83 -34.5 129t-97.5 46q-55 0 -83 -32t-28 -83v-108z" />
    <glyph glyph-name="c" unicode="c" horiz-adv-x="469" 
d="M407 368q-16 0 -35 15q-30 25 -72 25q-67 0 -106 -49.5t-39 -117.5q0 -79 42.5 -121.5t106.5 -42.5q69 0 113 37q6 6 10 6q10 0 10 -14v-55q0 -13 -8 -21q-55 -43 -140 -43q-114 0 -181.5 70.5t-67.5 179.5q0 105 73.5 184.5t194.5 79.5q76 0 118 -34q26 -19 26 -48
q0 -22 -12.5 -36.5t-32.5 -14.5z" />
    <glyph glyph-name="d" unicode="d" horiz-adv-x="589" 
d="M526 9q0 -9 -9 -9h-80q-7 0 -9 9q-7 37 -7 85q-19 -51 -62 -79t-100 -28q-96 0 -157.5 75.5t-61.5 184.5q0 107 60 180.5t159 73.5q57 0 96 -26.5t54 -65.5q-5 112 -5 287q0 10 9 10h95q9 0 9 -10v-562q0 -32 2.5 -61t4.5 -45.5t2 -18.5zM404 195v112q0 51 -27.5 82.5
t-82.5 31.5q-64 0 -99 -46t-35 -128q0 -90 35 -134.5t99 -44.5q52 0 81 34t29 93z" />
    <glyph glyph-name="e" unicode="e" horiz-adv-x="510" 
d="M283 -13q-113 0 -178 71.5t-65 180.5q0 105 67.5 183.5t181.5 78.5q95 0 143.5 -52.5t48.5 -144.5q0 -36 -30 -36h-294q-4 -24 -4 -44q0 -62 40 -104t110 -42q72 0 123 40q5 5 11 5q8 0 8 -12v-59q0 -14 -8 -20q-55 -45 -154 -45zM385 333q0 42 -25.5 68t-71.5 26
q-93 0 -122 -94h219z" />
    <glyph glyph-name="f" unicode="f" horiz-adv-x="326" 
d="M199 537q0 -26 -4 -58q63 5 113 5q7 0 7 -9v-68q0 -8 -7 -8q-40 0 -110 4q5 -50 5 -113v-281q0 -3 -3 -6t-6 -3h-96q-9 0 -9 9v281q0 65 5 113q-40 -4 -65 -4q-6 0 -6 8v68q0 9 6 9q33 0 65 -5q-5 30 -5 73q0 74 50.5 118.5t159.5 44.5q16 0 16 -16v-67q0 -11 -12 -11
q-61 0 -82.5 -18.5t-21.5 -65.5z" />
    <glyph glyph-name="g" unicode="g" horiz-adv-x="559" 
d="M525 392q-16 0 -30 12t-24 12q-27 0 -27 -33q0 -10 3.5 -30.5t3.5 -38.5q0 -74 -52 -118.5t-162 -44.5q-90 0 -90 -43q0 -33 52 -33q21 0 72 5.5t94 5.5q74 0 110 -33t36 -90q0 -80 -72 -129.5t-198 -49.5q-108 0 -162 33t-54 91q0 30 15.5 49t31.5 19h67q8 0 8 -6
q0 -4 -3 -7q-12 -10 -12 -32q0 -69 113 -69q70 0 110 24.5t40 67.5q0 54 -66 54q-22 0 -67.5 -3t-78.5 -3q-61 0 -91.5 22t-30.5 60q0 37 27.5 64.5t74.5 31.5q-49 14 -76 53t-27 95q0 75 55 124t139 49q118 0 163 -81q11 40 36.5 63t62.5 23q26 0 39.5 -16.5t13.5 -43.5
q0 -54 -44 -54zM257 428q-85 0 -85 -104q0 -110 86 -110q90 0 90 105q0 109 -91 109z" />
    <glyph glyph-name="h" unicode="h" horiz-adv-x="576" 
d="M166 377q20 57 72 90.5t118 33.5q68 0 112.5 -41.5t44.5 -119.5v-331q0 -3 -3 -6t-6 -3h-96q-9 0 -9 9v300q0 102 -89 102q-53 0 -90.5 -38t-37.5 -103v-261q0 -3 -3 -6t-6 -3h-95q-9 0 -9 9v687q0 10 9 10h88q9 0 9 -10q0 -155 -9 -319z" />
    <glyph glyph-name="i" unicode="i" horiz-adv-x="252" 
d="M183 474v-465q0 -3 -3 -6t-6 -3h-96q-9 0 -9 9v465q0 10 9 10h96q9 0 9 -10zM126 714q28 0 47.5 -19t19.5 -47q0 -27 -19.5 -45t-47.5 -18q-27 0 -46.5 18t-19.5 45q0 28 19.5 47t46.5 19z" />
    <glyph glyph-name="j" unicode="j" horiz-adv-x="254" 
d="M-35 -199q-8 4 -8 20v63q0 12 9 12q6 0 11 -4q17 -10 40 -10q24 0 40.5 15.5t16.5 47.5v529q0 10 9 10h95q9 0 9 -10v-509q0 -96 -43.5 -138.5t-106.5 -42.5q-42 0 -72 17zM131 714q27 0 46.5 -19t19.5 -47q0 -27 -19.5 -45t-46.5 -18q-28 0 -47.5 18t-19.5 45
q0 28 19.5 47t47.5 19z" />
    <glyph glyph-name="k" unicode="k" horiz-adv-x="513" 
d="M175 224q7 -100 7 -152v-63q0 -3 -3 -6t-6 -3h-95q-9 0 -9 9v687q0 10 9 10h95q9 0 9 -10v-210q0 -118 -7 -192h16q10 0 67.5 63.5t100.5 118.5q5 8 14 8h110q7 0 7 -8q0 -5 -4 -10q-24 -22 -70 -73l-81 -87.5t-48 -41.5q15 -7 106.5 -115.5t109.5 -120.5q7 -5 7 -14
q0 -14 -11 -14h-119q-6 0 -14 6q-17 21 -60.5 81t-74.5 98.5t-41 38.5h-15z" />
    <glyph glyph-name="l" unicode="l" horiz-adv-x="251" 
d="M182 696v-687q0 -3 -3 -6t-6 -3h-95q-9 0 -9 9v687q0 10 9 10h95q9 0 9 -10z" />
    <glyph glyph-name="m" unicode="m" horiz-adv-x="864" 
d="M494 277v-268q0 -3 -3 -6t-6 -3h-96q-9 0 -9 9v304q0 97 -80 97q-48 0 -81 -37t-33 -103v-261q0 -3 -3 -6t-6 -3h-96q-9 0 -9 9v370q0 26 -2 48.5t-4 34.5t-2 13q0 9 8 9h82q7 0 9 -9q7 -45 7 -96q24 55 72.5 87.5t104.5 32.5q47 0 84.5 -28.5t49.5 -81.5q22 49 70 80.5
t105 31.5q64 0 104.5 -41.5t40.5 -117.5v-333q0 -3 -3 -6t-6 -3h-95q-9 0 -9 9v302q0 100 -81 100q-48 0 -80.5 -36t-32.5 -98z" />
    <glyph glyph-name="n" unicode="n" horiz-adv-x="577" 
d="M168 376q20 56 72.5 90.5t118.5 34.5q68 0 111.5 -42t43.5 -120v-330q0 -3 -3 -6t-6 -3h-95q-9 0 -9 9v299q0 102 -88 102q-54 0 -91.5 -37.5t-37.5 -102.5v-261q0 -3 -3 -6t-6 -3h-95q-9 0 -9 9v370q0 26 -2.5 48.5t-4.5 34.5t-2 13q0 9 8 9h82q7 0 9 -9q7 -51 7 -99z
" />
    <glyph glyph-name="o" unicode="o" 
d="M287 501q119 0 183 -74.5t64 -179.5q0 -106 -64 -183t-183 -77q-118 0 -182.5 77t-64.5 183q0 104 64 179t183 75zM287 69q65 0 96 47.5t31 128.5q0 80 -31 126t-96 46q-127 0 -127 -172q0 -81 31 -128.5t96 -47.5z" />
    <glyph glyph-name="p" unicode="p" horiz-adv-x="590" 
d="M64 475q0 9 9 9h80q7 0 9 -9q7 -37 7 -85q42 111 163 111q96 0 157 -73t61 -182q0 -108 -60.5 -183.5t-159.5 -75.5q-112 0 -149 89q6 -114 6 -271q0 -10 -9 -10h-96q-9 0 -9 10v545q0 32 -2.5 61t-4.5 45.5t-2 18.5zM187 290v-113q0 -50 27.5 -80.5t82.5 -30.5
q63 0 98 47.5t35 130.5q0 174 -133 174q-53 0 -81.5 -35t-28.5 -93z" />
    <glyph glyph-name="q" unicode="q" horiz-adv-x="589" 
d="M525 475q0 -2 -2.5 -18.5t-4.5 -45.5t-2 -61v-545q0 -10 -9 -10h-95q-9 0 -9 10q0 151 5 271q-43 -89 -147 -89q-100 0 -161 75.5t-61 183.5q0 109 61 182t157 73q57 0 100.5 -30t62.5 -82q0 49 7 86q2 9 9 9h80q9 0 9 -9zM403 293q0 58 -29 93t-82 35q-133 0 -133 -173
q0 -83 35 -130.5t98 -47.5q55 0 83 30t28 80v113z" />
    <glyph glyph-name="r" unicode="r" horiz-adv-x="402" 
d="M362 363q-18 0 -36.5 17.5t-46.5 17.5q-43 0 -68 -37.5t-25 -98.5v-253q0 -3 -3 -6t-6 -3h-96q-9 0 -9 9v370q0 26 -2 48.5t-4 34.5t-2 13q0 9 8 9h81q7 0 9 -9q7 -45 7 -106q18 60 58 96t92 36q46 0 68 -21.5t22 -55.5q0 -26 -12.5 -43.5t-34.5 -17.5z" />
    <glyph glyph-name="s" unicode="s" horiz-adv-x="432" 
d="M202 -13q-92 0 -148 40q-8 7 -8 18v59q0 14 8 14q6 0 14 -6q52 -45 130 -45q41 0 64 17t23 43q0 7 -1 13.5t-5 12l-7 9.5t-10.5 8.5l-12 7t-15.5 7t-16.5 6.5l-20 7t-21.5 7q-61 22 -95 55t-34 93q0 62 51 105t135 43q85 0 130 -36q20 -16 20 -39t-12.5 -37t-27.5 -14
q-16 0 -31 12q-39 30 -82 30q-36 0 -55.5 -17t-19.5 -42q0 -16 5.5 -27t21 -20t25.5 -13t37 -13q80 -27 115 -59t35 -91q0 -66 -53 -107t-139 -41z" />
    <glyph glyph-name="t" unicode="t" horiz-adv-x="337" 
d="M25 449q82 50 148 157q4 8 13 8q14 0 14 -12v-34q0 -34 -8 -88q54 4 109 4q7 0 7 -9v-68q0 -8 -7 -8q-64 0 -109 4q4 -41 4 -113v-131q0 -43 15 -60.5t48 -17.5q19 0 37 8q12 7 12 -6v-75q0 -8 -9 -10q-31 -7 -61 -7q-71 0 -113.5 43t-42.5 125v131q0 68 6 113
q-27 -4 -61 -4q-10 0 -10 24q0 21 8 26z" />
    <glyph glyph-name="u" unicode="u" horiz-adv-x="578" 
d="M410 109q-21 -57 -72.5 -89.5t-118.5 -32.5q-68 0 -112 42t-44 120v326q0 3 3 6t6 3h96q9 0 9 -9v-295q0 -102 88 -102q54 0 91.5 36.5t37.5 100.5v260q0 3 3 6t6 3h95q9 0 9 -9v-370q0 -26 2 -48.5t4 -34.5t2 -13q0 -9 -8 -9h-81q-7 0 -9 9q-7 51 -7 100z" />
    <glyph glyph-name="v" unicode="v" horiz-adv-x="487" 
d="M309 4q-5 -9 -10 -9h-111q-7 0 -10 9l-177 465q-5 15 6 15h101q7 0 12 -9l85 -256q32 -99 41 -141q13 57 41 141l87 256q4 9 12 9h93q12 0 7 -16z" />
    <glyph glyph-name="w" unicode="w" horiz-adv-x="774" 
d="M348 484h92q8 0 10 -9l71 -243q25 -87 34 -149q13 76 34 147l72 245q2 9 10 9h92q10 0 6 -13l-155 -467q-4 -9 -9 -9h-107q-8 0 -9 9l-72 241q-20 67 -27 132q-11 -71 -29 -133l-74 -240q-3 -9 -10 -9h-107q-7 0 -10 9l-155 467q-4 13 7 13h99q7 0 11 -9l74 -246
q22 -71 34 -146q12 73 33 144l75 248q4 9 10 9z" />
    <glyph glyph-name="x" unicode="x" horiz-adv-x="511" 
d="M129 484q9 0 16 -10q80 -109 113 -165q29 46 120 165q7 10 18 10h101q4 0 5.5 -4t-3.5 -9q-134 -167 -189 -222q49 -48 193 -236q5 -6 3.5 -9.5t-5.5 -3.5h-119q-9 0 -17 11q-70 96 -115 166q-27 -44 -119 -167q-8 -10 -15 -10h-104q-5 0 -6.5 3.5t2.5 9.5
q109 139 192 224q-70 76 -192 234q-4 6 -2 9.5t6 3.5h117z" />
    <glyph glyph-name="y" unicode="y" horiz-adv-x="487" 
d="M81 -215q-41 0 -66 10q-7 3 -7 19v67q0 13 9 13q2 0 10 -4q19 -13 44 -13q78 0 118 116l-189 477q-5 14 7 14h101q8 0 12 -9l86 -256q28 -87 40 -141q15 60 42 141l87 256q3 9 12 9h94q11 0 6 -13l-187 -492q-41 -107 -93.5 -150.5t-125.5 -43.5z" />
    <glyph glyph-name="z" unicode="z" horiz-adv-x="464" 
d="M434 86q12 0 10 -10l-8 -68q-1 -8 -11 -8h-387q-18 0 -18 21q0 10 7 18l212 285q38 51 61 77q-40 -2 -126 -2q-27 0 -69 -1t-58 -1q-11 0 -9 9l8 69q2 9 9 9h382q17 0 17 -22q0 -7 -5 -14l-208 -282q-46 -62 -66 -85q44 3 136 3q23 0 65.5 1t57.5 1z" />
    <glyph glyph-name="braceleft" unicode="{" horiz-adv-x="426" 
d="M417 -216q-143 0 -206.5 55.5t-63.5 147.5q0 30 3.5 75t3.5 62q0 52 -19.5 76t-70.5 24q-12 0 -12 29t12 29q52 0 71.5 24.5t19.5 77.5q0 20 -4 64.5t-4 70.5q0 92 64 149t206 57q9 0 9 -10v-54q0 -3 -3 -6t-6 -3q-94 0 -127 -34t-33 -96q0 -27 3.5 -73t3.5 -67
q0 -106 -87 -127q88 -28 88 -132q0 -22 -3.5 -61t-3.5 -62q0 -71 31.5 -107t127.5 -36q9 0 9 -10v-54q0 -3 -3 -6t-6 -3z" />
    <glyph glyph-name="bar" unicode="|" horiz-adv-x="372" 
d="M243 756v-952q0 -3 -3 -6t-6 -3h-96q-9 0 -9 9v952q0 10 9 10h96q9 0 9 -10z" />
    <glyph glyph-name="braceright" unicode="}" horiz-adv-x="425" 
d="M8 725q143 0 207 -56t64 -147q0 -30 -4 -75t-4 -62q0 -51 20 -75.5t70 -24.5q12 0 12 -30q0 -28 -12 -28q-52 0 -71.5 -24.5t-19.5 -76.5q0 -20 4.5 -64.5t4.5 -70.5q0 -92 -64.5 -149.5t-206.5 -57.5q-9 0 -9 10v54q0 3 3 6t6 3q94 0 127.5 34t33.5 96q0 27 -3.5 73.5
t-3.5 67.5q0 107 86 127q-87 26 -87 131q0 22 3.5 60.5t3.5 62.5q0 71 -32 107t-128 36q-9 0 -9 10v54q0 3 3 6t6 3z" />
    <glyph glyph-name="asciitilde" unicode="~" horiz-adv-x="500" 
d="M339 338q-39 0 -98 38t-87 38q-26 0 -41.5 -17t-15.5 -39q0 -13 -16 -13q-38 0 -38 13q0 55 34 90.5t96 35.5q41 0 73.5 -17t57.5 -34t48 -17q22 0 38.5 15t16.5 40q0 11 12 11q38 0 38 -13q0 -58 -32 -94.5t-86 -36.5z" />
    <glyph glyph-name="nbspace" unicode="&#xa0;" horiz-adv-x="252" 
 />
    <glyph glyph-name="exclamdown" unicode="&#xa1;" horiz-adv-x="331" 
d="M93 -195l29 495q0 3 3 6t6 3h59q9 0 9 -9l29 -495q0 -10 -9 -10h-117q-9 0 -9 10zM162 377q-28 0 -47 18.5t-19 45.5t19 46t47 19q26 0 45 -19t19 -46t-19 -45.5t-45 -18.5z" />
    <glyph glyph-name="cent" unicode="&#xa2;" horiz-adv-x="480" 
d="M335 657q64 -6 99 -37q19 -16 19 -39q0 -25 -15 -44t-36 -19q-13 0 -34 16q-27 24 -70 24q-66 0 -103.5 -48t-37.5 -114q0 -79 42 -121t107 -42q67 0 113 38q5 5 10 5q10 0 10 -13v-58q0 -15 -9 -21q-38 -31 -95 -40v-135q0 -3 -3 -6t-6 -3h-53q-9 0 -9 9v132
q-103 9 -163.5 78t-60.5 173q0 96 59.5 171t164.5 92v122q0 10 9 10h53q9 0 9 -10v-120z" />
    <glyph glyph-name="sterling" unicode="&#xa3;" horiz-adv-x="589" 
d="M215 96q141 3 163 3q23 0 72 0.5t80 0.5q7 0 7 -9l-10 -83q0 -8 -8 -8h-409q-9 0 -9 9v199q0 80 4 113q-20 -3 -66 -3q-6 0 -6 8v66q0 9 6 9q39 0 70 -4q-4 32 -4 70v44q0 97 63 156.5t176 59.5q131 0 188 -71q16 -19 16 -43q0 -26 -16 -42.5t-41 -16.5q-22 0 -35 18
q-15 21 -25 31.5t-32.5 19t-54.5 8.5q-62 0 -94 -36t-32 -103v-38q0 -32 -3 -57q56 4 132 4q7 0 7 -9v-66q0 -8 -7 -8q-103 0 -134 3q5 -40 5 -112q0 -49 -3 -113z" />
    <glyph glyph-name="currency" unicode="&#xa4;" horiz-adv-x="549" 
d="M459 216l76 -76l-62 -61l-75 75q-53 -34 -115 -34q-60 0 -115 34l-75 -76l-62 62l75 75q-34 53 -34 115q0 61 34 116l-75 75l62 61l75 -76q52 35 115 35q65 0 115 -35l75 76l62 -62l-75 -75q33 -49 33 -115q0 -64 -34 -114zM283 458q-53 0 -89.5 -37.5t-36.5 -90.5
t36.5 -90t89.5 -37q52 0 88.5 37t36.5 90t-36.5 90.5t-88.5 37.5z" />
    <glyph glyph-name="yen" unicode="&#xa5;" horiz-adv-x="657" 
d="M117 706q10 0 18 -12l94 -133q57 -83 103 -182q44 94 103 181l98 137q5 9 19 9h103q6 0 8 -4t-3 -12l-191 -272q27 2 87 2q11 0 11 -9v-64q0 -2 -4 -5t-7 -3q-95 0 -138 2l-29 -40v-42q44 1 130 1q9 0 9 -9v-63q0 -2 -3 -5t-6 -3q-66 0 -132 3q2 -29 2 -90v-84
q0 -3 -3 -6t-6 -3h-103q-8 0 -8 9v90q0 58 2 84q-69 -3 -141 -3q-3 0 -6 3t-3 5v63q0 9 9 9q93 0 139 -1v42l-28 40q-47 -2 -151 -2q-4 0 -7 3t-3 5v64q0 9 10 9q67 0 99 -2l-192 272q-5 7 -2.5 11.5t8.5 4.5h114z" />
    <glyph glyph-name="brokenbar" unicode="&#xa6;" horiz-adv-x="372" 
d="M129 158h114v-354q0 -3 -3 -6t-6 -3h-96q-9 0 -9 9v354zM243 428h-114v328q0 10 9 10h96q9 0 9 -10v-328z" />
    <glyph glyph-name="section" unicode="&#xa7;" horiz-adv-x="627" 
d="M304 -210q-92 0 -144 38q-10 7 -10 21v63q0 14 10 14q4 0 11 -5q53 -46 138 -46q43 0 69 23t26 60q0 22 -12 42t-37.5 39.5t-48 33t-61.5 34.5l-22 12q-44 24 -72 43t-58.5 47t-45.5 61t-15 72q0 98 92 146q-15 26 -15 55q0 81 58 133.5t160 52.5q56 0 99 -12t64.5 -30
t31.5 -35t10 -32q0 -30 -17.5 -46t-43.5 -16q-33 0 -42 24q-30 63 -105 63q-48 0 -73.5 -23.5t-25.5 -62.5q0 -24 12 -45t40.5 -42t49 -33t64.5 -35q101 -51 153.5 -104t52.5 -128q0 -96 -93 -142q14 -24 14 -56q0 -79 -55 -131.5t-159 -52.5zM477 70q27 24 27 64
q0 50 -43.5 91t-129.5 86l-69.5 41.5t-59 43t-51.5 53.5q-29 -23 -29 -67q0 -47 38 -84t113 -77q164 -87 204 -151z" />
    <glyph glyph-name="dieresis" unicode="&#xa8;" horiz-adv-x="463" 
d="M136 675q24 0 40.5 -17t16.5 -40t-16.5 -39.5t-40.5 -16.5q-22 0 -39 17t-17 39q0 23 16.5 40t39.5 17zM327 675q23 0 39.5 -17t16.5 -40q0 -22 -16.5 -39t-39.5 -17q-24 0 -40.5 16.5t-16.5 39.5t16.5 40t40.5 17z" />
    <glyph glyph-name="copyright" unicode="&#xa9;" horiz-adv-x="853" 
d="M430 656q-120 0 -205 -88.5t-85 -211.5t85 -211t205 -88t204.5 88t84.5 211q0 124 -84.5 212t-204.5 88zM430 -15q-153 0 -262 108.5t-109 262.5t109 263.5t262 109.5q154 0 260 -109t106 -264q0 -154 -106 -262.5t-260 -108.5zM545 475q-15 0 -32 13q-27 23 -64 23
q-60 0 -94 -44.5t-34 -105.5q0 -71 37 -109.5t94 -38.5q62 0 102 34q5 5 9 5q9 0 9 -13v-49q0 -11 -8 -19q-50 -39 -125 -39q-103 0 -162 63t-59 162q0 95 64.5 166t173.5 71q68 0 106 -30q23 -17 23 -44q0 -19 -11.5 -32t-28.5 -13z" />
    <glyph glyph-name="ordfeminine" unicode="&#xaa;" horiz-adv-x="367" 
d="M119 468q0 -40 40 -40q30 0 51.5 23t21.5 54v40q-54 -5 -83.5 -26t-29.5 -51zM51 646q0 25 32.5 49t99.5 24q133 0 133 -106q0 -22 -1.5 -71.5t-1.5 -66.5q0 -61 18 -81q5 -6 5 -11q0 -8 -9 -8h-40q-18 0 -24 16q-12 24 -12 56q-34 -82 -116 -82q-44 0 -71.5 25t-27.5 65
q0 52 51 87t145 42v22q0 26 -13 38t-45 12q-31 0 -51 -22q-1 -1 -5.5 -6.5t-7.5 -8t-9 -5t-13 -2.5q-14 0 -25.5 9t-11.5 25z" />
    <glyph glyph-name="guillemotleft" unicode="&#xab;" horiz-adv-x="658" 
d="M339 25l-289 194q-8 8 -8 29q0 23 8 29l288 192q5 4 9 2t4 -8v-39q0 -12 -9 -21l-177 -147l178 -164q8 -6 8 -17v-44q0 -5 -4 -6.5t-8 0.5zM605 25l-289 194q-8 7 -8 29q0 23 8 29l288 192q5 4 9 2t4 -8v-39q0 -12 -9 -21l-176 -147l177 -164q8 -6 8 -17v-44
q0 -5 -4 -6.5t-8 0.5z" />
    <glyph glyph-name="logicalnot" unicode="&#xac;" horiz-adv-x="517" 
d="M356 -70v257h-311v91h415v-348h-104z" />
    <glyph glyph-name="registered" unicode="&#xae;" horiz-adv-x="464" 
d="M233 730q87 0 143 -55t56 -138q0 -82 -57 -137.5t-142 -55.5t-142.5 55t-57.5 138q0 82 58 137.5t142 55.5zM335 420h-29q-12 0 -16 8q-11 9 -27 31.5t-28.5 38.5t-21.5 16h-9v-91q0 -3 -3 -3h-41q-4 0 -7.5 3.5t-3.5 7.5v226q0 4 3 4h74q44 0 68.5 -19.5t24.5 -47.5
q0 -60 -86 -63q28 -4 51 -23.5t40 -40.5t28 -26q23 43 23 96q0 65 -39.5 107t-105.5 42q-68 0 -104 -41.5t-36 -107.5q0 -65 37.5 -106t102.5 -41t105 30zM204 549h17q40 0 40 41q0 39 -38 39h-19v-80z" />
    <glyph glyph-name="macron" unicode="&#xaf;" horiz-adv-x="409" 
d="M329 643v-61q0 -7 -6 -7h-237q-6 0 -6 7v61q0 8 6 8h237q6 0 6 -8z" />
    <glyph glyph-name="macron" unicode="&#x2c9;" horiz-adv-x="409" 
d="M329 643v-61q0 -7 -6 -7h-237q-6 0 -6 7v61q0 8 6 8h237q6 0 6 -8z" />
    <glyph glyph-name="degree" unicode="&#xb0;" horiz-adv-x="450" 
d="M230 721q84 0 132 -56t48 -134q0 -77 -50.5 -133t-132.5 -56t-133.5 55t-51.5 134q0 77 51 133.5t137 56.5zM229 404q45 0 64.5 29t19.5 96q0 63 -20 92.5t-64 29.5q-47 0 -68 -29.5t-21 -92.5q0 -125 89 -125z" />
    <glyph glyph-name="plusminus" unicode="&#xb1;" horiz-adv-x="506" 
d="M130 319h-78q-9 0 -9 9v67q0 10 9 10h81q49 0 77 -3q-5 33 -5 86v69q0 9 10 9h74q3 0 6 -3t3 -6v-68q0 -61 -3 -87q30 3 78 3h78q9 0 9 -10v-67q0 -3 -3 -6t-6 -3h-79q-20 0 -77 3q3 -21 3 -75v-81q0 -9 -9 -9h-74q-10 0 -10 9v82q0 47 5 74q-32 -3 -80 -3zM458 83v-74
q0 -3 -3 -6t-6 -3h-395q-9 0 -9 9v74q0 10 9 10h395q9 0 9 -10z" />
    <glyph glyph-name="twosuperior" unicode="&#xb2;" horiz-adv-x="410" 
d="M169 423q52 7 100 7q25 0 52 1.5t29 1.5q7 0 7 -7l-6 -54q-1 -6 -9 -6h-275q-10 0 -10 25q0 14 6 16q197 90 197 182q0 67 -62 67q-28 0 -43 -14t-16 -35q-1 -14 -11.5 -22t-26.5 -8q-36 0 -36 36q0 14 7 31t21.5 36t44 32t67.5 13q61 0 99.5 -34.5t38.5 -86.5
q0 -64 -45.5 -107t-128.5 -74z" />
    <glyph glyph-name="threesuperior" unicode="&#xb3;" horiz-adv-x="411" 
d="M191 664q-47 0 -58 -44q-3 -20 -32 -20q-38 0 -38 34t34.5 61.5t103.5 27.5q63 0 96 -24.5t33 -68.5q0 -42 -24 -68t-76 -41q55 0 84.5 -27t29.5 -77q0 -56 -47 -89t-110 -33q-70 0 -115 30q-6 5 -6 13v44q0 12 8 12q5 0 12 -4q34 -30 91 -30q79 0 79 65q0 60 -70 60
q-22 0 -36.5 -4.5t-15.5 -4.5q-6 0 -7 5l-6 34q-1 7 4 9q67 13 94.5 34.5t27.5 58.5q0 47 -56 47z" />
    <glyph glyph-name="acute" unicode="&#xb4;" horiz-adv-x="387" 
d="M313 694l-147 -141q-11 -11 -22 -11h-45q-7 0 -8.5 4t2.5 9l113 141q8 10 16 10h88q4 0 5 -4.5t-2 -7.5z" />
    <glyph glyph-name="mu" unicode="&#xb5;" horiz-adv-x="565" 
d="M61 142v333q0 3 3 6t6 3h95q9 0 9 -9v-295q0 -53 20.5 -77t62.5 -24q52 0 87.5 36t35.5 99v261q0 3 3 6t6 3h96q9 0 9 -9v-370q0 -26 2 -48.5t4 -34.5t2 -13q0 -9 -8 -9h-82q-7 0 -9 9q-7 45 -7 97q-22 -53 -68.5 -84t-109.5 -31q-56 0 -81 30q2 -32 6 -79.5t6 -75.5
t2 -37q0 -21 -16 -32t-39 -11q-25 0 -42.5 10.5t-17.5 30.5q0 7 6 55.5t12.5 121t6.5 138.5z" />
    <glyph glyph-name="mu" unicode="&#x3bc;" horiz-adv-x="565" 
d="M61 142v333q0 3 3 6t6 3h95q9 0 9 -9v-295q0 -53 20.5 -77t62.5 -24q52 0 87.5 36t35.5 99v261q0 3 3 6t6 3h96q9 0 9 -9v-370q0 -26 2 -48.5t4 -34.5t2 -13q0 -9 -8 -9h-82q-7 0 -9 9q-7 45 -7 97q-22 -53 -68.5 -84t-109.5 -31q-56 0 -81 30q2 -32 6 -79.5t6 -75.5
t2 -37q0 -21 -16 -32t-39 -11q-25 0 -42.5 10.5t-17.5 30.5q0 7 6 55.5t12.5 121t6.5 138.5z" />
    <glyph glyph-name="paragraph" unicode="&#xb6;" horiz-adv-x="601" 
d="M295 260q-129 0 -200 59.5t-71 165.5q0 94 67.5 157.5t192.5 63.5h226q9 0 9 -13v-684q0 -9 -9 -9h-114q-3 0 -6 3t-3 6v251h-92z" />
    <glyph glyph-name="periodcentered" unicode="&#xb7;" horiz-adv-x="256" 
d="M128 341q31 0 52 -20.5t21 -51.5t-21 -52.5t-52 -21.5t-52 21.5t-21 52.5t21 51.5t52 20.5z" />
    <glyph glyph-name="periodcentered" unicode="&#x2219;" horiz-adv-x="256" 
d="M128 341q31 0 52 -20.5t21 -51.5t-21 -52.5t-52 -21.5t-52 21.5t-21 52.5t21 51.5t52 20.5z" />
    <glyph glyph-name="cedilla" unicode="&#xb8;" horiz-adv-x="369" 
d="M86 -236q-6 2 -6 9v36q0 6 7 5q26 -9 53 -9q63 0 63 50t-56 50q-9 0 -19 -4t-12 -4q-4 0 -8.5 7t-4.5 13q0 3 3 6l86 77h51l-65 -58h10q48 0 74.5 -25t26.5 -61q0 -41 -32.5 -72t-90.5 -31q-40 0 -80 11z" />
    <glyph glyph-name="onesuperior" unicode="&#xb9;" horiz-adv-x="411" 
d="M180 641q-17 -9 -45 -19l-32 -11q-8 -2 -8 5l-3 47q0 6 7 9l148 52q4 1 8.5 -1t4.5 -6v-215q0 -27 -2 -77q12 2 38 2h25q8 0 8 -8l2 -43q0 -6 -8 -6h-214q-8 0 -8 6l3 43q2 8 9 8h27q14 0 40 -2q-2 52 -2 79v58q0 31 2 79z" />
    <glyph glyph-name="ordmasculine" unicode="&#xba;" horiz-adv-x="413" 
d="M208 719q82 0 127 -52t45 -124t-45 -125t-127 -53t-126.5 53t-44.5 125q0 73 44 124.5t127 51.5zM208 426q82 0 82 116t-82 116q-83 0 -83 -116t83 -116z" />
    <glyph glyph-name="guillemotright" unicode="&#xbb;" horiz-adv-x="657" 
d="M320 471l288 -194q9 -7 9 -29q0 -23 -9 -29l-287 -192q-5 -4 -9 -2t-4 8v39q0 12 9 21l176 147l-177 164q-8 6 -8 17v44q0 5 4 6.5t8 -0.5zM54 471l288 -194q9 -7 9 -29q0 -23 -9 -29l-287 -192q-5 -4 -9 -2t-4 8v39q0 12 9 21l176 147l-177 164q-8 6 -8 17v44q0 5 4 6.5
t8 -0.5z" />
    <glyph glyph-name="onequarter" unicode="&#xbc;" horiz-adv-x="845" 
d="M763 692l-571 -683q-6 -9 -14 -9h-80q-7 0 -8.5 5t2.5 10l574 681q8 10 16 10h75q6 0 7.5 -5t-1.5 -9zM682 2q1 -16 1 -54v-45q0 -7 -7 -7h-62q-7 0 -7 7v47q0 36 2 52q-21 -2 -67 -2h-134q-9 0 -9 9v28q0 7 5 14q91 150 205 287h67q7 0 7 -6v-217q0 -39 -1 -56
q30 1 86 1q9 0 7 -8l-4 -42q0 -10 -8 -10q-53 0 -81 2zM609 59q-3 21 -3 94q0 29 4 95l-130 -190q27 2 66 2q44 0 63 -1zM180 641q-22 -11 -46 -19l-31 -11q-8 -2 -8 5l-3 47q-2 6 7 9l148 52q4 1 8 -1t4 -6v-215q0 -27 -2 -77q13 2 39 2h25q8 0 8 -8l2 -43q0 -6 -8 -6h-214
q-8 0 -8 6l3 43q0 8 9 8h27q15 0 39 -2q-2 52 -2 79v58q0 43 3 79z" />
    <glyph glyph-name="onehalf" unicode="&#xbd;" horiz-adv-x="845" 
d="M755 692l-570 -683q-6 -9 -14 -9h-81q-7 0 -8.5 5t3.5 10l573 681q8 10 16 10h76q6 0 7.5 -5t-2.5 -9zM592 57q60 8 100 8q25 0 52 1t29 1q7 0 7 -7l-6 -54q-2 -6 -9 -6h-275q-10 0 -10 25q0 14 6 16q197 91 197 183q0 66 -62 66q-28 0 -43 -14t-16 -35q-2 -30 -38 -30
t-36 36q0 14 7 31t21.5 36t44 32t67.5 13q61 0 99.5 -34t38.5 -87q0 -64 -45.5 -107t-128.5 -74zM174 641q-18 -10 -46 -19l-31 -11q-8 -2 -8 5l-3 47q-2 6 7 9l148 52q4 1 8.5 -1t4.5 -6v-215q0 -27 -2 -77q12 2 38 2h25q8 0 8 -8l2 -43q0 -6 -8 -6h-214q-8 0 -8 6l3 43
q2 8 9 8h27q14 0 40 -2q-2 52 -2 79v58q0 31 2 79z" />
    <glyph glyph-name="threequarters" unicode="&#xbe;" horiz-adv-x="845" 
d="M771 692l-570 -683q-6 -9 -14 -9h-80q-7 0 -9 5t3 10l574 681q7 10 16 10h75q6 0 7.5 -5t-2.5 -9zM676 2q2 -16 2 -54v-45q0 -2 -2.5 -4.5t-4.5 -2.5h-63q-7 0 -7 7v47q0 36 2 52q-20 -2 -67 -2h-134q-8 0 -8 9v28q0 9 4 14q91 150 205 287h68q7 0 7 -6v-217
q0 -39 -2 -56q30 1 87 1q7 0 7 -8l-5 -42q0 -10 -8 -10q-53 0 -81 2zM603 59q-3 21 -3 94q0 29 4 95l-130 -190q27 2 67 2q43 0 62 -1zM188 664q-48 0 -59 -44q-3 -20 -32 -20q-15 0 -26.5 8.5t-11.5 25.5q0 34 34.5 61.5t103.5 27.5q63 0 96 -24.5t33 -68.5q0 -81 -99 -109
q54 0 83.5 -27t29.5 -77q0 -56 -47 -89t-110 -33q-69 0 -114 30q-7 5 -7 13v44q0 12 8 12q7 0 12 -4q35 -30 91 -30q79 0 79 65q0 60 -70 60q-22 0 -36 -4.5t-15 -4.5q-6 0 -7 5l-6 34q-1 7 3 9q67 13 94.5 34.5t27.5 58.5q0 47 -55 47z" />
    <glyph glyph-name="questiondown" unicode="&#xbf;" horiz-adv-x="491" 
d="M208 202q42 0 66 -12q-4 84 -4 111q0 3 3 6t6 3h70q9 0 9 -9v-193q0 -9 -8 -9q-6 0 -11 4q-37 20 -82 20q-48 0 -75 -29.5t-27 -88.5q0 -58 34.5 -92.5t94.5 -34.5q53 0 88 41q23 29 48 29q23 0 36 -14t13 -38q0 -38 -44 -75.5t-133 -37.5q-114 0 -182.5 60.5
t-68.5 164.5q0 93 46.5 143.5t120.5 50.5zM309 377q-27 0 -46 18.5t-19 46.5q0 26 19 45t46 19t46 -19t19 -45q0 -28 -19 -46.5t-46 -18.5z" />
    <glyph glyph-name="Agrave" unicode="&#xc0;" horiz-adv-x="655" 
d="M378 412q-39 116 -55 201q-18 -87 -56 -197q-28 -84 -48 -133q52 3 107 3q69 0 100 -2q-22 53 -48 128zM453 203q-63 -3 -130 -3q-65 0 -131 3q-20 -76 -65 -193q-4 -10 -11 -10h-105q-15 0 -9 16l249 681q5 9 10 9h129q8 0 12 -9l252 -681q5 -16 -9 -16h-114
q-8 0 -12 10q-47 125 -66 193zM177 900q-2 2 -2.5 5t1 5t4.5 2h87q9 0 16 -10l125 -140q1 -2 1 -4t-1.5 -3.5t-4.5 -1.5h-50q-8 0 -16 8z" />
    <glyph glyph-name="Aacute" unicode="&#xc1;" horiz-adv-x="655" 
d="M378 412q-39 116 -55 201q-18 -87 -56 -197q-28 -84 -48 -133q52 3 107 3q69 0 100 -2q-22 53 -48 128zM453 203q-63 -3 -130 -3q-65 0 -131 3q-20 -76 -65 -193q-4 -10 -11 -10h-105q-15 0 -9 16l249 681q5 9 10 9h129q8 0 12 -9l252 -681q5 -16 -9 -16h-114
q-8 0 -12 10q-47 125 -66 193zM481 900l-160 -139q-8 -8 -15 -8h-51q-4 0 -5.5 3t1.5 6l125 140q8 10 16 10h86q4 0 5.5 -4.5t-2.5 -7.5z" />
    <glyph glyph-name="Acircumflex" unicode="&#xc2;" horiz-adv-x="655" 
d="M378 412q-39 116 -55 201q-18 -87 -56 -197q-28 -84 -48 -133q52 3 107 3q69 0 100 -2q-22 53 -48 128zM453 203q-63 -3 -130 -3q-65 0 -131 3q-20 -76 -65 -193q-4 -10 -11 -10h-105q-15 0 -9 16l249 681q5 9 10 9h129q8 0 12 -9l252 -681q5 -16 -9 -16h-114
q-8 0 -12 10q-47 125 -66 193zM322 845l-89 -83q-10 -9 -16 -9h-50q-3 0 -4.5 1.5t-1.5 3.5t2 4l123 141q9 9 16 9h47q9 0 17 -9l121 -141q2 -3 0.5 -6t-4.5 -3h-55q-7 0 -16 9z" />
    <glyph glyph-name="Atilde" unicode="&#xc3;" horiz-adv-x="655" 
d="M378 412q-39 116 -55 201q-18 -87 -56 -197q-28 -84 -48 -133q52 3 107 3q69 0 100 -2q-22 53 -48 128zM453 203q-63 -3 -130 -3q-65 0 -131 3q-20 -76 -65 -193q-4 -10 -11 -10h-105q-15 0 -9 16l249 681q5 9 10 9h129q8 0 12 -9l252 -681q5 -16 -9 -16h-114
q-8 0 -12 10q-47 125 -66 193zM395 754q-29 0 -74.5 34t-67.5 34q-20 0 -32.5 -15t-12.5 -35q0 -11 -12 -11q-29 0 -29 11q0 55 28.5 86t73.5 31q32 0 56.5 -15.5t44 -30.5t37.5 -15q17 0 30 13t13 36q0 10 9 10q30 0 30 -12q0 -56 -26 -88.5t-68 -32.5z" />
    <glyph glyph-name="Adieresis" unicode="&#xc4;" horiz-adv-x="655" 
d="M378 412q-39 116 -55 201q-18 -87 -56 -197q-28 -84 -48 -133q52 3 107 3q69 0 100 -2q-22 53 -48 128zM453 203q-63 -3 -130 -3q-65 0 -131 3q-20 -76 -65 -193q-4 -10 -11 -10h-105q-15 0 -9 16l249 681q5 9 10 9h129q8 0 12 -9l252 -681q5 -16 -9 -16h-114
q-8 0 -12 10q-47 125 -66 193zM230 865q23 0 40 -16.5t17 -39.5t-17 -39t-40 -16t-40 16t-17 39t17 39.5t40 16.5zM426 865q23 0 40 -16.5t17 -39.5t-17 -39t-40 -16t-39.5 16t-16.5 39t17 39.5t39 16.5z" />
    <glyph glyph-name="Aring" unicode="&#xc5;" horiz-adv-x="655" 
d="M378 412q-39 116 -55 201q-18 -87 -56 -197q-28 -84 -48 -133q52 3 107 3q69 0 100 -2q-22 53 -48 128zM453 203q-63 -3 -130 -3q-65 0 -131 3q-20 -76 -65 -193q-4 -10 -11 -10h-105q-15 0 -9 16l249 681q5 9 10 9h129q8 0 12 -9l252 -681q5 -16 -9 -16h-114
q-8 0 -12 10q-47 125 -66 193zM328 733q-50 0 -83 26.5t-33 69.5t33.5 70.5t82.5 27.5q50 0 83 -27.5t33 -70.5t-33 -69.5t-83 -26.5zM328 878q-55 0 -55 -51q0 -25 15.5 -38.5t39.5 -13.5q55 0 55 52q0 51 -55 51z" />
    <glyph glyph-name="AE" unicode="&#xc6;" horiz-adv-x="999" 
d="M626 613q3 -50 3 -99q0 -52 -3 -105q58 5 118 5q17 0 54 1t56 1q7 0 7 -9v-80q0 -8 -7 -8q-19 0 -53.5 0.5t-53.5 0.5q-64 0 -121 6q3 -50 3 -114q0 -66 -3 -118q82 3 159 3q32 0 94 1t92 1q9 0 7 -9l-10 -82q0 -8 -7 -8h-450q-9 0 -9 9q0 168 2 192q-62 -3 -127 -3
t-132 3q-13 -35 -125 -191q-8 -10 -16 -10h-131q-16 0 -4 16l486 681q5 9 13 9h479q5 0 7 -9l10 -82q0 -8 -7 -8q-31 0 -101 1.5t-97 1.5q-64 0 -133 3zM396 417q-66 -103 -94 -134q50 3 100 3q51 0 102 -3q-2 31 -2 139q0 138 9 194q-24 -60 -115 -199z" />
    <glyph glyph-name="Ccedilla" unicode="&#xc7;" horiz-adv-x="672" 
d="M304 -236q-6 2 -6 9v36q0 6 7 5q25 -9 53 -9q63 0 63 50t-56 50q-9 0 -19 -4t-12 -4q-4 0 -8.5 7t-4.5 13q0 3 3 6l72 65q-153 4 -246 106t-93 256q0 162 103 270.5t273 108.5q119 0 195 -52q13 -9 13 -29v-85q0 -17 -15 -17q-5 0 -13 6q-77 67 -181 67
q-115 0 -177.5 -71t-62.5 -192q0 -123 65 -194t171 -71q112 0 186 60q8 5 13 5q14 0 14 -16v-68q0 -17 -13 -26q-70 -51 -180 -58l-52 -46h10q48 0 74.5 -25t26.5 -61q0 -41 -32.5 -72t-90.5 -31q-40 0 -80 11z" />
    <glyph glyph-name="Egrave" unicode="&#xc8;" horiz-adv-x="587" 
d="M368 97q32 0 97 1t94 1q9 0 7 -9l-11 -82q-2 -8 -7 -8h-450q-9 0 -9 9v687q0 10 9 10h435q8 0 8 -9l10 -82q2 -8 -7 -8q-30 0 -106 1t-104 1q-78 0 -121 4q4 -47 4 -102q0 -57 -4 -102q52 5 118 5q25 0 61.5 1t48.5 1q7 0 7 -9v-80q0 -8 -7 -8q-11 0 -48 0.5t-63 0.5
q-64 0 -117 6q4 -52 4 -112q0 -68 -4 -120q74 3 155 3zM185 900q-2 2 -2.5 5t1 5t4.5 2h87q9 0 16 -10l125 -140q1 -2 1 -4t-1.5 -3.5t-4.5 -1.5h-50q-8 0 -16 8z" />
    <glyph glyph-name="Eacute" unicode="&#xc9;" horiz-adv-x="587" 
d="M368 97q32 0 97 1t94 1q9 0 7 -9l-11 -82q-2 -8 -7 -8h-450q-9 0 -9 9v687q0 10 9 10h435q8 0 8 -9l10 -82q2 -8 -7 -8q-30 0 -106 1t-104 1q-78 0 -121 4q4 -47 4 -102q0 -57 -4 -102q52 5 118 5q25 0 61.5 1t48.5 1q7 0 7 -9v-80q0 -8 -7 -8q-11 0 -48 0.5t-63 0.5
q-64 0 -117 6q4 -52 4 -112q0 -68 -4 -120q74 3 155 3zM483 900l-160 -139q-8 -8 -15 -8h-51q-4 0 -5.5 3t1.5 6l125 140q8 10 16 10h86q4 0 5.5 -4.5t-2.5 -7.5z" />
    <glyph glyph-name="Ecircumflex" unicode="&#xca;" horiz-adv-x="587" 
d="M368 97q32 0 97 1t94 1q9 0 7 -9l-11 -82q-2 -8 -7 -8h-450q-9 0 -9 9v687q0 10 9 10h435q8 0 8 -9l10 -82q2 -8 -7 -8q-30 0 -106 1t-104 1q-78 0 -121 4q4 -47 4 -102q0 -57 -4 -102q52 5 118 5q25 0 61.5 1t48.5 1q7 0 7 -9v-80q0 -8 -7 -8q-11 0 -48 0.5t-63 0.5
q-64 0 -117 6q4 -52 4 -112q0 -68 -4 -120q74 3 155 3zM329 845l-89 -83q-10 -9 -16 -9h-50q-3 0 -4.5 1.5t-1.5 3.5t2 4l123 141q9 9 16 9h47q10 0 17 -9l121 -141q2 -3 0.5 -6t-4.5 -3h-55q-7 0 -16 9z" />
    <glyph glyph-name="Edieresis" unicode="&#xcb;" horiz-adv-x="587" 
d="M368 97q32 0 97 1t94 1q9 0 7 -9l-11 -82q-2 -8 -7 -8h-450q-9 0 -9 9v687q0 10 9 10h435q8 0 8 -9l10 -82q2 -8 -7 -8q-30 0 -106 1t-104 1q-78 0 -121 4q4 -47 4 -102q0 -57 -4 -102q52 5 118 5q25 0 61.5 1t48.5 1q7 0 7 -9v-80q0 -8 -7 -8q-11 0 -48 0.5t-63 0.5
q-64 0 -117 6q4 -52 4 -112q0 -68 -4 -120q74 3 155 3zM233 865q23 0 40 -16.5t17 -39.5t-17 -39t-40 -16t-40 16t-17 39t17 39.5t40 16.5zM429 865q23 0 40 -16.5t17 -39.5t-17 -39t-40 -16t-39.5 16t-16.5 39t16.5 39.5t39.5 16.5z" />
    <glyph glyph-name="Igrave" unicode="&#xcc;" horiz-adv-x="306" 
d="M217 696v-687q0 -3 -3 -6t-6 -3h-110q-9 0 -9 9v687q0 10 9 10h110q9 0 9 -10zM10 900q-2 2 -2.5 5t1 5t4.5 2h87q8 0 16 -10l125 -140q1 -2 1 -4t-1.5 -3.5t-4.5 -1.5h-50q-8 0 -16 8z" />
    <glyph glyph-name="Iacute" unicode="&#xcd;" horiz-adv-x="306" 
d="M217 696v-687q0 -3 -3 -6t-6 -3h-110q-9 0 -9 9v687q0 10 9 10h110q9 0 9 -10zM305 900l-160 -139q-8 -8 -15 -8h-51q-4 0 -5.5 3t1.5 6l125 140q8 10 16 10h86q4 0 5.5 -4.5t-2.5 -7.5z" />
    <glyph glyph-name="Icircumflex" unicode="&#xce;" horiz-adv-x="306" 
d="M217 696v-687q0 -3 -3 -6t-6 -3h-110q-9 0 -9 9v687q0 10 9 10h110q9 0 9 -10zM150 845l-89 -83q-11 -9 -16 -9h-50q-3 0 -4.5 1.5t-1.5 3.5t2 4l123 141q9 9 16 9h47q9 0 17 -9l121 -141q2 -3 0.5 -6t-4.5 -3h-55q-7 0 -16 9z" />
    <glyph glyph-name="Idieresis" unicode="&#xcf;" horiz-adv-x="306" 
d="M217 696v-687q0 -3 -3 -6t-6 -3h-110q-9 0 -9 9v687q0 10 9 10h110q9 0 9 -10zM55 865q23 0 40 -16.5t17 -39.5t-17 -39t-40 -16t-40 16t-17 39t17 39.5t40 16.5zM251 865q23 0 40 -16.5t17 -39.5t-17 -39t-40 -16t-39.5 16t-16.5 39t16.5 39.5t39.5 16.5z" />
    <glyph glyph-name="Eth" unicode="&#xd0;" horiz-adv-x="778" 
d="M104 251q0 43 5 68q-33 -3 -66 -3h-34q-9 0 -9 9v60q0 9 9 9h35q38 0 65 -3q-5 30 -5 79v226q0 10 9 10h242q173 0 273 -94.5t100 -263.5q0 -168 -99 -258t-265 -90h-251q-9 0 -9 9v242zM231 252v-46q0 -61 -4 -110q65 4 128 4q108 0 172.5 62t64.5 190
q0 115 -61.5 184.5t-188.5 69.5q-64 0 -115 3q4 -62 4 -97v-48q0 -41 -4 -73q30 3 77 3h62q3 0 6 -3t3 -6v-60q0 -3 -3 -6t-6 -3h-63q-37 0 -77 4q5 -28 5 -68z" />
    <glyph glyph-name="Ntilde" unicode="&#xd1;" horiz-adv-x="790" 
d="M541 8l-272 454q-37 62 -70 154q8 -101 8 -181v-426q0 -3 -3 -6t-6 -3h-100q-9 0 -9 9v687q0 10 9 10h153q10 0 16 -10l248 -414q49 -81 78 -177q-9 97 -9 209v382q0 10 9 10h99q9 0 9 -10v-687q0 -3 -3 -6t-6 -3h-140q-7 0 -11 8zM476 754q-29 0 -74.5 34t-67.5 34
q-20 0 -32.5 -15t-12.5 -35q0 -11 -12 -11q-29 0 -29 11q0 55 28.5 86t73.5 31q32 0 56.5 -15.5t44 -30.5t37.5 -15q17 0 30 13t13 36q0 10 9 10q30 0 30 -12q0 -56 -26 -88.5t-68 -32.5z" />
    <glyph glyph-name="Ograve" unicode="&#xd2;" horiz-adv-x="834" 
d="M417 90q108 0 163.5 73.5t55.5 200.5q0 129 -59 195.5t-159 66.5q-101 0 -160.5 -66t-59.5 -196q0 -126 57 -200t162 -74zM417 729q150 0 255 -100t105 -265q0 -168 -101.5 -272.5t-258.5 -104.5q-153 0 -256.5 104.5t-103.5 272.5q0 163 105 264t255 101zM300 900
q-2 2 -2.5 5t1 5t4.5 2h87q9 0 16 -10l125 -140q1 -2 1 -4t-1.5 -3.5t-4.5 -1.5h-50q-8 0 -16 8z" />
    <glyph glyph-name="Oacute" unicode="&#xd3;" horiz-adv-x="834" 
d="M417 90q108 0 163.5 73.5t55.5 200.5q0 129 -59 195.5t-159 66.5q-101 0 -160.5 -66t-59.5 -196q0 -126 57 -200t162 -74zM417 729q150 0 255 -100t105 -265q0 -168 -101.5 -272.5t-258.5 -104.5q-153 0 -256.5 104.5t-103.5 272.5q0 163 105 264t255 101zM539 900
l-160 -139q-8 -8 -15 -8h-51q-4 0 -5.5 3t1.5 6l125 140q8 10 16 10h86q4 0 5.5 -4.5t-2.5 -7.5z" />
    <glyph glyph-name="Ocircumflex" unicode="&#xd4;" horiz-adv-x="834" 
d="M417 90q108 0 163.5 73.5t55.5 200.5q0 129 -59 195.5t-159 66.5q-101 0 -160.5 -66t-59.5 -196q0 -126 57 -200t162 -74zM417 729q150 0 255 -100t105 -265q0 -168 -101.5 -272.5t-258.5 -104.5q-153 0 -256.5 104.5t-103.5 272.5q0 163 105 264t255 101zM414 845
l-89 -83q-11 -9 -16 -9h-50q-3 0 -4.5 1.5t-1.5 3.5t2 4l123 141q9 9 16 9h47q9 0 17 -9l121 -141q2 -3 0.5 -6t-4.5 -3h-55q-7 0 -16 9z" />
    <glyph glyph-name="Otilde" unicode="&#xd5;" horiz-adv-x="834" 
d="M417 90q108 0 163.5 73.5t55.5 200.5q0 129 -59 195.5t-159 66.5q-101 0 -160.5 -66t-59.5 -196q0 -126 57 -200t162 -74zM417 729q150 0 255 -100t105 -265q0 -168 -101.5 -272.5t-258.5 -104.5q-153 0 -256.5 104.5t-103.5 272.5q0 163 105 264t255 101zM484 754
q-29 0 -74.5 34t-67.5 34q-20 0 -32.5 -15t-12.5 -35q0 -11 -12 -11q-29 0 -29 11q0 55 28.5 86t73.5 31q32 0 56.5 -15.5t44 -30.5t37.5 -15q17 0 30 13t13 36q0 10 9 10q30 0 30 -12q0 -56 -26 -88.5t-68 -32.5z" />
    <glyph glyph-name="Odieresis" unicode="&#xd6;" horiz-adv-x="834" 
d="M417 90q108 0 163.5 73.5t55.5 200.5q0 129 -59 195.5t-159 66.5q-101 0 -160.5 -66t-59.5 -196q0 -126 57 -200t162 -74zM417 729q150 0 255 -100t105 -265q0 -168 -101.5 -272.5t-258.5 -104.5q-153 0 -256.5 104.5t-103.5 272.5q0 163 105 264t255 101zM319 865
q23 0 40 -16.5t17 -39.5t-17 -39t-40 -16t-40 16t-17 39t17 39.5t40 16.5zM515 865q23 0 40 -16.5t17 -39.5t-17 -39t-40 -16t-39.5 16t-16.5 39t16.5 39.5t39.5 16.5z" />
    <glyph glyph-name="multiply" unicode="&#xd7;" horiz-adv-x="507" 
d="M199 149l-56 -55q-6 -6 -12 0l-54 54q-6 8 0 13l57 58q32 32 55 50q-14 10 -64 57l-48 49q-2 1 -2 5.5t3 7.5l59 59q2 2 6.5 2t6.5 -2l47 -48q35 -33 59 -63q16 22 52 56l55 55q1 2 6 2t7 -2l53 -54q2 -2 2 -6.5t-2 -6.5l-55 -54q-30 -31 -56 -52q18 -13 55 -50l56 -57
q7 -7 0 -13l-58 -59q-7 -7 -14 -1l-57 58q-29 29 -49 55q-11 -15 -52 -58z" />
    <glyph glyph-name="Oslash" unicode="&#xd8;" horiz-adv-x="834" 
d="M603 493l-325 -355q56 -49 138 -49q109 0 165 74t56 204q0 74 -34 126zM205 55l-42 -46q-9 -9 -16 -9h-98q-4 0 -5.5 3.5t0.5 5.5l98 105q-86 101 -86 250q0 163 105.5 264t254.5 101q127 0 223 -75l39 42q8 10 18 10h94q5 0 6.5 -4t-2.5 -8l-91 -101q74 -93 74 -229
q0 -168 -101.5 -272.5t-259.5 -104.5q-118 0 -211 68zM238 212l328 360q-59 54 -149 54q-103 0 -161.5 -68t-58.5 -200q0 -88 41 -146z" />
    <glyph glyph-name="Ugrave" unicode="&#xd9;" horiz-adv-x="765" 
d="M80 240v456q0 10 9 10h111q9 0 9 -10v-438q0 -75 46.5 -116t127.5 -41q84 0 131 39t47 115v441q0 10 9 10h107q9 0 9 -10v-457q0 -114 -84.5 -183t-218.5 -69q-132 0 -217.5 68.5t-85.5 184.5zM245 900q-2 2 -2.5 5t1 5t4.5 2h87q9 0 16 -10l125 -140q1 -2 1 -4
t-1.5 -3.5t-4.5 -1.5h-50q-8 0 -16 8z" />
    <glyph glyph-name="Uacute" unicode="&#xda;" horiz-adv-x="765" 
d="M80 240v456q0 10 9 10h111q9 0 9 -10v-438q0 -75 46.5 -116t127.5 -41q84 0 131 39t47 115v441q0 10 9 10h107q9 0 9 -10v-457q0 -114 -84.5 -183t-218.5 -69q-132 0 -217.5 68.5t-85.5 184.5zM545 900l-160 -139q-8 -8 -15 -8h-51q-4 0 -5.5 3t1.5 6l125 140q8 10 16 10
h86q4 0 5.5 -4.5t-2.5 -7.5z" />
    <glyph glyph-name="Ucircumflex" unicode="&#xdb;" horiz-adv-x="765" 
d="M80 240v456q0 10 9 10h111q9 0 9 -10v-438q0 -75 46.5 -116t127.5 -41q84 0 131 39t47 115v441q0 10 9 10h107q9 0 9 -10v-457q0 -114 -84.5 -183t-218.5 -69q-132 0 -217.5 68.5t-85.5 184.5zM380 845l-89 -83q-10 -9 -16 -9h-50q-3 0 -4.5 1.5t-1.5 3.5t2 4l123 141
q9 9 16 9h47q9 0 17 -9l121 -141q2 -3 0.5 -6t-4.5 -3h-55q-7 0 -16 9z" />
    <glyph glyph-name="Udieresis" unicode="&#xdc;" horiz-adv-x="765" 
d="M80 240v456q0 10 9 10h111q9 0 9 -10v-438q0 -75 46.5 -116t127.5 -41q84 0 131 39t47 115v441q0 10 9 10h107q9 0 9 -10v-457q0 -114 -84.5 -183t-218.5 -69q-132 0 -217.5 68.5t-85.5 184.5zM285 865q23 0 40 -16.5t17 -39.5t-17 -39t-40 -16t-40 16t-17 39t17 39.5
t40 16.5zM481 865q23 0 40 -16.5t17 -39.5t-17 -39t-40 -16t-39.5 16t-16.5 39t16.5 39.5t39.5 16.5z" />
    <glyph glyph-name="Yacute" unicode="&#xdd;" horiz-adv-x="695" 
d="M409 301v-292q0 -3 -3 -6t-6 -3h-110q-9 0 -9 9v292l-287 389q-5 5 -4 10.5t9 5.5h124q11 0 18 -12l134 -182q45 -61 73 -125q31 67 74 124l137 183q8 12 22 12h112q7 0 9 -5t-3 -11zM517 900l-160 -139q-8 -8 -15 -8h-51q-4 0 -5.5 3t1.5 6l125 140q8 10 16 10h86
q4 0 5.5 -4.5t-2.5 -7.5z" />
    <glyph glyph-name="Thorn" unicode="&#xde;" horiz-adv-x="612" 
d="M214 596h107q124 0 190 -63.5t66 -157.5q0 -107 -69.5 -167t-198.5 -60q-17 0 -95 3q3 -53 3 -142q0 -3 -3 -6t-6 -3h-110q-9 0 -9 9v687q0 10 9 10h110q9 0 9 -10q0 -49 -3 -100zM296 241q75 0 111.5 31.5t36.5 98.5q0 61 -32.5 96.5t-100.5 35.5q-31 0 -97 2
q3 -33 3 -130q0 -99 -3 -136q54 2 82 2z" />
    <glyph glyph-name="germandbls" unicode="&#xdf;" 
d="M317 628q-114 0 -114 -123v-496q0 -3 -3 -6t-6 -3h-96q-9 0 -9 9v303q0 45 4 93q-27 -4 -64 -4q-6 0 -6 8v66q0 9 6 9q33 0 65 -5q-3 18 -3 42q0 82 58 137.5t176 55.5q97 0 149.5 -42t52.5 -107q0 -33 -14 -59.5t-34 -43.5t-39.5 -31.5t-33.5 -31t-14 -35.5
q0 -13 9.5 -27.5t20.5 -25t33 -29.5q48 -41 68 -75.5t20 -78.5q0 -69 -46.5 -104t-118.5 -35q-61 0 -93 21t-32 53q0 20 11 33t31 13q19 0 38 -22t51 -22q25 0 41 15.5t16 42.5q0 24 -15.5 47t-58.5 56q-27 22 -41 35t-27 36.5t-13 48.5q0 26 12.5 49t30 39.5l35.5 32.5
t30.5 36t12.5 42q0 83 -90 83z" />
    <glyph glyph-name="agrave" unicode="&#xe0;" horiz-adv-x="517" 
d="M134 694q-3 3 -2 7.5t5 4.5h88q9 0 16 -10l113 -141q4 -5 2 -9t-8 -4h-46q-9 0 -22 11zM152 134q0 -30 20 -47t50 -17q51 0 83.5 37t32.5 90v52q-95 -8 -140.5 -38.5t-45.5 -76.5zM68 401q0 35 47 67.5t142 32.5q192 0 192 -154q0 -31 -2.5 -103.5t-2.5 -98.5
q0 -96 27 -119q7 -7 7 -14q0 -4 -4 -8t-8 -4h-56q-20 0 -29 19q-18 35 -20 87q-41 -119 -172 -119q-66 0 -105 35t-39 92q0 79 76 132.5t217 63.5v31q0 78 -89 78q-59 0 -85 -34q-8 -12 -13 -17t-14 -10t-21 -5q-20 0 -34 13t-14 35z" />
    <glyph glyph-name="aacute" unicode="&#xe1;" horiz-adv-x="517" 
d="M390 694l-147 -141q-11 -11 -22 -11h-45q-7 0 -8.5 4t2.5 9l113 141q7 10 16 10h88q4 0 5 -4.5t-2 -7.5zM152 134q0 -30 20 -47t50 -17q51 0 83.5 37t32.5 90v52q-95 -8 -140.5 -38.5t-45.5 -76.5zM68 401q0 35 47 67.5t142 32.5q192 0 192 -154q0 -31 -2.5 -103.5
t-2.5 -98.5q0 -96 27 -119q7 -7 7 -14q0 -4 -4 -8t-8 -4h-56q-20 0 -29 19q-18 35 -20 87q-41 -119 -172 -119q-66 0 -105 35t-39 92q0 79 76 132.5t217 63.5v31q0 78 -89 78q-59 0 -85 -34q-8 -12 -13 -17t-14 -10t-21 -5q-20 0 -34 13t-14 35z" />
    <glyph glyph-name="acircumflex" unicode="&#xe2;" horiz-adv-x="517" 
d="M260 638l-82 -87q-10 -9 -18 -9h-51q-3 0 -4 3t1 6l114 145q10 10 16 10h54q8 0 16 -10l115 -145q2 -2 0 -5.5t-5 -3.5h-56q-8 0 -17 9zM152 134q0 -30 20 -47t50 -17q51 0 83.5 37t32.5 90v52q-95 -8 -140.5 -38.5t-45.5 -76.5zM68 401q0 35 47 67.5t142 32.5
q192 0 192 -154q0 -31 -2.5 -103.5t-2.5 -98.5q0 -96 27 -119q7 -7 7 -14q0 -4 -4 -8t-8 -4h-56q-20 0 -29 19q-18 35 -20 87q-41 -119 -172 -119q-66 0 -105 35t-39 92q0 79 76 132.5t217 63.5v31q0 78 -89 78q-59 0 -85 -34q-8 -12 -13 -17t-14 -10t-21 -5q-20 0 -34 13
t-14 35z" />
    <glyph glyph-name="atilde" unicode="&#xe3;" horiz-adv-x="517" 
d="M328 550q-29 0 -74.5 36.5t-67.5 36.5q-20 0 -32.5 -16t-12.5 -37q0 -13 -12 -13q-29 0 -29 13q0 59 28.5 92t74.5 33q31 0 56 -16.5t44 -32.5t37 -16q17 0 30 14t13 39q0 11 9 11q30 0 30 -13q0 -61 -26 -96t-68 -35zM152 134q0 -30 20 -47t50 -17q51 0 83.5 37t32.5 90
v52q-95 -8 -140.5 -38.5t-45.5 -76.5zM68 401q0 35 47 67.5t142 32.5q192 0 192 -154q0 -31 -2.5 -103.5t-2.5 -98.5q0 -96 27 -119q7 -7 7 -14q0 -4 -4 -8t-8 -4h-56q-20 0 -29 19q-18 35 -20 87q-41 -119 -172 -119q-66 0 -105 35t-39 92q0 79 76 132.5t217 63.5v31
q0 78 -89 78q-59 0 -85 -34q-8 -12 -13 -17t-14 -10t-21 -5q-20 0 -34 13t-14 35z" />
    <glyph glyph-name="adieresis" unicode="&#xe4;" horiz-adv-x="517" 
d="M152 134q0 -30 20 -47t50 -17q51 0 83.5 37t32.5 90v54q-95 -8 -140.5 -39.5t-45.5 -77.5zM68 398q0 35 47.5 69t141.5 34q192 0 192 -154q0 -31 -2.5 -103.5t-2.5 -98.5q0 -96 27 -119q7 -7 7 -14q0 -4 -4 -8t-8 -4h-56q-20 0 -29 19q-18 35 -20 87q-41 -119 -172 -119
q-66 0 -105 35t-39 92q0 79 76 131t217 62v31q0 78 -89 78q-59 0 -85 -34q-8 -12 -13 -17t-14 -10t-21 -5q-20 0 -34 13t-14 35zM162 675q24 0 40.5 -17t16.5 -40t-16.5 -39.5t-40.5 -16.5q-22 0 -39 17t-17 39q0 23 16.5 40t39.5 17zM353 675q23 0 39.5 -17t16.5 -40
q0 -22 -16.5 -39t-39.5 -17q-24 0 -40.5 16.5t-16.5 39.5t16.5 40t40.5 17z" />
    <glyph glyph-name="aring" unicode="&#xe5;" horiz-adv-x="517" 
d="M261 728q47 0 80.5 -29t33.5 -73q0 -45 -33 -72.5t-81 -27.5q-47 0 -80 27.5t-33 72.5q0 44 33 73t80 29zM261 678q-22 0 -36 -15t-14 -39q0 -23 14 -38.5t36 -15.5q23 0 37.5 15.5t14.5 38.5q0 24 -14.5 39t-37.5 15zM152 134q0 -30 20 -47t50 -17q51 0 83.5 37t32.5 90
v52q-95 -8 -140.5 -38.5t-45.5 -76.5zM68 401q0 35 47 67.5t142 32.5q192 0 192 -154q0 -31 -2.5 -103.5t-2.5 -98.5q0 -96 27 -119q7 -7 7 -14q0 -4 -4 -8t-8 -4h-56q-20 0 -29 19q-18 35 -20 87q-41 -119 -172 -119q-66 0 -105 35t-39 92q0 79 76 132.5t217 63.5v31
q0 78 -89 78q-59 0 -85 -34q-8 -12 -13 -17t-14 -10t-21 -5q-20 0 -34 13t-14 35z" />
    <glyph glyph-name="ae" unicode="&#xe6;" horiz-adv-x="799" 
d="M152 134q0 -30 20 -47t50 -17q51 0 83.5 37t32.5 90v52q-95 -8 -140.5 -38.5t-45.5 -76.5zM415 420q21 37 66.5 59t96.5 22q95 0 143.5 -52.5t48.5 -144.5q0 -36 -30 -36h-294q-4 -24 -4 -44q0 -62 40 -104t110 -42q72 0 123 40q5 5 11 5q8 0 8 -12v-59q0 -14 -8 -20
q-55 -45 -154 -45q-149 0 -199 125q-52 -125 -184 -125q-66 0 -105 35t-39 92q0 79 76 132.5t217 63.5v31q0 78 -89 78q-59 0 -85 -34q-8 -12 -13 -17t-14 -10t-21 -5q-20 0 -34 13t-14 35q0 35 47 67.5t142 32.5q128 0 158 -81zM674 333q0 42 -25.5 68t-71.5 26
q-93 0 -122 -94h219z" />
    <glyph glyph-name="ccedilla" unicode="&#xe7;" horiz-adv-x="469" 
d="M176 -236q-6 2 -6 9v36q0 6 7 5q25 -9 53 -9q63 0 63 50t-56 50q-9 0 -19 -4t-12 -4q-4 0 -8.5 7t-4.5 13q0 3 3 6l72 65q-105 7 -166.5 76t-61.5 173q0 105 73.5 184.5t194.5 79.5q76 0 118 -34q26 -19 26 -48q0 -22 -12.5 -36.5t-32.5 -14.5q-16 0 -35 15
q-30 25 -72 25q-67 0 -106 -49.5t-39 -117.5q0 -79 42.5 -121.5t106.5 -42.5q69 0 113 37q6 6 10 6q10 0 10 -14v-55q0 -13 -8 -21q-44 -34 -109 -41l-52 -47h10q48 0 74.5 -25t26.5 -61q0 -41 -32.5 -72t-90.5 -31q-40 0 -80 11z" />
    <glyph glyph-name="egrave" unicode="&#xe8;" horiz-adv-x="510" 
d="M283 -13q-113 0 -178 71.5t-65 180.5q0 105 67.5 183.5t181.5 78.5q95 0 143.5 -52.5t48.5 -144.5q0 -36 -30 -36h-294q-4 -24 -4 -44q0 -62 40 -104t110 -42q72 0 123 40q5 5 11 5q8 0 8 -12v-59q0 -14 -8 -20q-55 -45 -154 -45zM385 333q0 42 -25.5 68t-71.5 26
q-93 0 -122 -94h219zM150 694q-3 3 -2 7.5t5 4.5h88q9 0 16 -10l113 -141q4 -5 2 -9t-8 -4h-46q-9 0 -22 11z" />
    <glyph glyph-name="eacute" unicode="&#xe9;" horiz-adv-x="510" 
d="M283 -13q-113 0 -178 71.5t-65 180.5q0 105 67.5 183.5t181.5 78.5q95 0 143.5 -52.5t48.5 -144.5q0 -36 -30 -36h-294q-4 -24 -4 -44q0 -62 40 -104t110 -42q72 0 123 40q5 5 11 5q8 0 8 -12v-59q0 -14 -8 -20q-55 -45 -154 -45zM385 333q0 42 -25.5 68t-71.5 26
q-93 0 -122 -94h219zM408 695l-147 -141q-11 -11 -22 -11h-45q-7 0 -8.5 4.5t2.5 8.5l113 141q7 10 16 10h88q4 0 5 -4.5t-2 -7.5z" />
    <glyph glyph-name="ecircumflex" unicode="&#xea;" horiz-adv-x="510" 
d="M283 -13q-113 0 -178 71.5t-65 180.5q0 105 67.5 183.5t181.5 78.5q95 0 143.5 -52.5t48.5 -144.5q0 -36 -30 -36h-294q-4 -24 -4 -44q0 -62 40 -104t110 -42q72 0 123 40q5 5 11 5q8 0 8 -12v-59q0 -14 -8 -20q-55 -45 -154 -45zM385 333q0 42 -25.5 68t-71.5 26
q-93 0 -122 -94h219zM280 638l-82 -87q-10 -9 -18 -9h-51q-3 0 -4 3t1 6l114 145q10 10 16 10h54q8 0 16 -10l115 -145q2 -2 0 -5.5t-5 -3.5h-56q-8 0 -17 9z" />
    <glyph glyph-name="edieresis" unicode="&#xeb;" horiz-adv-x="510" 
d="M283 -13q-113 0 -178 71.5t-65 180.5q0 105 67.5 183.5t181.5 78.5q95 0 143.5 -52.5t48.5 -144.5q0 -36 -30 -36h-294q-4 -24 -4 -44q0 -62 40 -104t110 -42q72 0 123 40q5 5 11 5q8 0 8 -12v-59q0 -14 -8 -20q-55 -45 -154 -45zM385 333q0 42 -25.5 68t-71.5 26
q-93 0 -122 -94h219zM175 675q24 0 40.5 -17t16.5 -40t-16.5 -39.5t-40.5 -16.5q-23 0 -39.5 17t-16.5 39q0 23 16.5 40t39.5 17zM366 675q23 0 39.5 -17t16.5 -40q0 -22 -17 -39t-39 -17q-24 0 -40.5 16.5t-16.5 39.5t16.5 40t40.5 17z" />
    <glyph glyph-name="igrave" unicode="&#xec;" horiz-adv-x="251" 
d="M182 474v-465q0 -3 -3 -6t-6 -3h-95q-9 0 -9 9v465q0 10 9 10h95q9 0 9 -10zM-5 694q-3 3 -2 7.5t5 4.5h88q8 0 16 -10l113 -141q4 -5 2 -9t-8 -4h-46q-9 0 -22 11z" />
    <glyph glyph-name="iacute" unicode="&#xed;" horiz-adv-x="251" 
d="M182 474v-465q0 -3 -3 -6t-6 -3h-95q-9 0 -9 9v465q0 10 9 10h95q9 0 9 -10zM255 694l-147 -141q-11 -11 -22 -11h-45q-7 0 -8.5 4t2.5 9l113 141q8 10 16 10h88q4 0 5 -4.5t-2 -7.5z" />
    <glyph glyph-name="icircumflex" unicode="&#xee;" horiz-adv-x="251" 
d="M182 474v-465q0 -3 -3 -6t-6 -3h-95q-9 0 -9 9v465q0 10 9 10h95q9 0 9 -10zM122 638l-82 -87q-10 -9 -18 -9h-51q-3 0 -4 3t1 6l114 145q10 10 16 10h54q8 0 16 -10l115 -145q2 -2 0 -5.5t-5 -3.5h-56q-8 0 -17 9z" />
    <glyph glyph-name="idieresis" unicode="&#xef;" horiz-adv-x="251" 
d="M182 474v-465q0 -3 -3 -6t-6 -3h-95q-9 0 -9 9v465q0 10 9 10h95q9 0 9 -10zM30 675q24 0 40.5 -17t16.5 -40t-16.5 -39.5t-40.5 -16.5q-22 0 -39 17t-17 39q0 23 16.5 40t39.5 17zM221 675q23 0 39.5 -17t16.5 -40q0 -22 -16.5 -39t-39.5 -17q-24 0 -40.5 16.5
t-16.5 39.5t16.5 40t40.5 17z" />
    <glyph glyph-name="eth" unicode="&#xf0;" horiz-adv-x="576" 
d="M356 556l-103 -27q-8 -2 -11 4l-15 35q-5 11 7 14l75 19q-39 42 -87 42q-40 0 -69 -18.5t-42 -18.5q-20 0 -32 13t-12 36q0 31 30 52.5t100 21.5q135 0 220 -97l82 21q9 2 12 -5l17 -38q3 -9 -8 -12l-66 -16q69 -110 69 -286q0 -139 -62 -224t-175 -85
q-104 0 -168.5 68.5t-64.5 175.5q0 112 52.5 173.5t137.5 61.5q60 0 105 -30t64 -77q-10 121 -56 197zM279 391q-105 0 -105 -167q0 -156 110 -156q54 0 84.5 43t30.5 124q0 156 -120 156z" />
    <glyph glyph-name="ntilde" unicode="&#xf1;" horiz-adv-x="577" 
d="M168 376q20 56 72.5 90.5t118.5 34.5q68 0 111.5 -42t43.5 -120v-330q0 -3 -3 -6t-6 -3h-95q-9 0 -9 9v299q0 102 -88 102q-54 0 -91.5 -37.5t-37.5 -102.5v-261q0 -3 -3 -6t-6 -3h-95q-9 0 -9 9v370q0 26 -2.5 48.5t-4.5 34.5t-2 13q0 9 8 9h82q7 0 9 -9q7 -51 7 -99z
M359 550q-29 0 -74.5 36.5t-67.5 36.5q-20 0 -32.5 -16t-12.5 -37q0 -13 -12 -13q-29 0 -29 13q0 59 28.5 92t74.5 33q31 0 56 -16.5t44 -32.5t37 -16q17 0 30 14t13 39q0 11 9 11q30 0 30 -13q0 -61 -26 -96t-68 -35z" />
    <glyph glyph-name="ograve" unicode="&#xf2;" 
d="M287 501q119 0 183 -74.5t64 -179.5q0 -106 -64 -183t-183 -77q-118 0 -182.5 77t-64.5 183q0 104 64 179t183 75zM287 69q65 0 96 47.5t31 128.5q0 80 -31 126t-96 46q-127 0 -127 -172q0 -81 31 -128.5t96 -47.5zM175 694q-3 3 -2 7.5t5 4.5h88q8 0 16 -10l113 -141
q4 -5 2 -9t-8 -4h-46q-9 0 -22 11z" />
    <glyph glyph-name="oacute" unicode="&#xf3;" 
d="M287 501q119 0 183 -74.5t64 -179.5q0 -106 -64 -183t-183 -77q-118 0 -182.5 77t-64.5 183q0 104 64 179t183 75zM287 69q65 0 96 47.5t31 128.5q0 80 -31 126t-96 46q-127 0 -127 -172q0 -81 31 -128.5t96 -47.5zM423 694l-147 -141q-11 -11 -22 -11h-45q-7 0 -8.5 4
t2.5 9l113 141q8 10 16 10h88q4 0 5 -4.5t-2 -7.5z" />
    <glyph glyph-name="ocircumflex" unicode="&#xf4;" 
d="M287 501q119 0 183 -74.5t64 -179.5q0 -106 -64 -183t-183 -77q-118 0 -182.5 77t-64.5 183q0 104 64 179t183 75zM287 69q65 0 96 47.5t31 128.5q0 80 -31 126t-96 46q-127 0 -127 -172q0 -81 31 -128.5t96 -47.5zM284 638l-82 -87q-10 -9 -18 -9h-51q-3 0 -4 3t1 6
l114 145q10 10 16 10h54q8 0 16 -10l115 -145q2 -2 0 -5.5t-5 -3.5h-56q-8 0 -17 9z" />
    <glyph glyph-name="otilde" unicode="&#xf5;" 
d="M287 501q119 0 183 -74.5t64 -179.5q0 -106 -64 -183t-183 -77q-118 0 -182.5 77t-64.5 183q0 104 64 179t183 75zM287 69q65 0 96 47.5t31 128.5q0 80 -31 126t-96 46q-127 0 -127 -172q0 -81 31 -128.5t96 -47.5zM354 550q-29 0 -74.5 36.5t-67.5 36.5q-20 0 -32.5 -16
t-12.5 -37q0 -13 -12 -13q-29 0 -29 13q0 59 28.5 92t74.5 33q31 0 56 -16.5t44 -32.5t37 -16q17 0 30 14t13 39q0 11 9 11q30 0 30 -13q0 -61 -26 -96t-68 -35z" />
    <glyph glyph-name="odieresis" unicode="&#xf6;" 
d="M287 501q119 0 183 -74.5t64 -179.5q0 -106 -64 -183t-183 -77q-118 0 -182.5 77t-64.5 183q0 104 64 179t183 75zM287 69q65 0 96 47.5t31 128.5q0 80 -31 126t-96 46q-127 0 -127 -172q0 -81 31 -128.5t96 -47.5zM192 675q24 0 40.5 -17t16.5 -40t-16.5 -39.5
t-40.5 -16.5q-22 0 -39 17t-17 39q0 23 16.5 40t39.5 17zM383 675q23 0 39.5 -17t16.5 -40q0 -22 -16.5 -39t-39.5 -17q-24 0 -40.5 16.5t-16.5 39.5t16.5 40t40.5 17z" />
    <glyph glyph-name="divide" unicode="&#xf7;" horiz-adv-x="506" 
d="M251 172q24 0 41.5 -16.5t17.5 -40.5q0 -25 -17.5 -42.5t-41.5 -17.5t-41 17.5t-17 42.5q0 24 17 40.5t41 16.5zM462 312v-72q0 -3 -3 -6t-6 -3h-399q-9 0 -9 9v72q0 10 9 10h399q9 0 9 -10zM251 500q24 0 41.5 -17t17.5 -41q0 -25 -17.5 -42t-41.5 -17t-41 17t-17 42
q0 24 17 41t41 17z" />
    <glyph glyph-name="oslash" unicode="&#xf8;" horiz-adv-x="574" 
d="M134 39l-28 -30q-7 -9 -17 -9h-63q-5 0 -6.5 3.5t1.5 5.5l71 72q-52 70 -52 166q0 105 64.5 179.5t183.5 74.5q93 0 157 -53l25 26q10 10 18 10h58q7 0 9 -4t-2 -9l-67 -66q48 -63 48 -158q0 -106 -64 -183t-182 -77q-90 0 -154 52zM400 317l-204 -210q35 -40 92 -40
q64 0 95.5 48.5t31.5 128.5q0 39 -15 73zM175 168l205 209q-33 41 -92 41q-128 0 -128 -171q0 -49 15 -79z" />
    <glyph glyph-name="ugrave" unicode="&#xf9;" horiz-adv-x="578" 
d="M410 109q-21 -57 -72.5 -89.5t-118.5 -32.5q-68 0 -112 42t-44 120v326q0 3 3 6t6 3h96q9 0 9 -9v-295q0 -102 88 -102q54 0 91.5 36.5t37.5 100.5v260q0 3 3 6t6 3h95q9 0 9 -9v-370q0 -26 2 -48.5t4 -34.5t2 -13q0 -9 -8 -9h-81q-7 0 -9 9q-7 51 -7 100zM149 694
q-3 3 -2 7.5t5 4.5h88q8 0 16 -10l113 -141q4 -5 2 -9t-8 -4h-46q-9 0 -22 11z" />
    <glyph glyph-name="uacute" unicode="&#xfa;" horiz-adv-x="578" 
d="M410 109q-21 -57 -72.5 -89.5t-118.5 -32.5q-68 0 -112 42t-44 120v326q0 3 3 6t6 3h96q9 0 9 -9v-295q0 -102 88 -102q54 0 91.5 36.5t37.5 100.5v260q0 3 3 6t6 3h95q9 0 9 -9v-370q0 -26 2 -48.5t4 -34.5t2 -13q0 -9 -8 -9h-81q-7 0 -9 9q-7 51 -7 100zM429 694
l-147 -141q-11 -11 -22 -11h-45q-7 0 -8.5 4t2.5 9l113 141q8 10 16 10h88q4 0 5 -4.5t-2 -7.5z" />
    <glyph glyph-name="ucircumflex" unicode="&#xfb;" horiz-adv-x="578" 
d="M410 109q-21 -57 -72.5 -89.5t-118.5 -32.5q-68 0 -112 42t-44 120v326q0 3 3 6t6 3h96q9 0 9 -9v-295q0 -102 88 -102q54 0 91.5 36.5t37.5 100.5v260q0 3 3 6t6 3h95q9 0 9 -9v-370q0 -26 2 -48.5t4 -34.5t2 -13q0 -9 -8 -9h-81q-7 0 -9 9q-7 51 -7 100zM286 638
l-82 -87q-10 -9 -18 -9h-51q-3 0 -4 3t1 6l114 145q10 10 16 10h54q8 0 16 -10l115 -145q2 -2 0 -5.5t-5 -3.5h-56q-8 0 -17 9z" />
    <glyph glyph-name="udieresis" unicode="&#xfc;" horiz-adv-x="578" 
d="M410 109q-21 -57 -72.5 -89.5t-118.5 -32.5q-68 0 -112 42t-44 120v326q0 3 3 6t6 3h96q9 0 9 -9v-295q0 -102 88 -102q54 0 91.5 36.5t37.5 100.5v260q0 3 3 6t6 3h95q9 0 9 -9v-370q0 -26 2 -48.5t4 -34.5t2 -13q0 -9 -8 -9h-81q-7 0 -9 9q-7 51 -7 100zM194 675
q24 0 40.5 -17t16.5 -40t-16.5 -39.5t-40.5 -16.5q-22 0 -39 17t-17 39q0 23 16.5 40t39.5 17zM385 675q23 0 39.5 -17t16.5 -40q0 -22 -16.5 -39t-39.5 -17q-24 0 -40.5 16.5t-16.5 39.5t16.5 40t40.5 17z" />
    <glyph glyph-name="yacute" unicode="&#xfd;" horiz-adv-x="487" 
d="M81 -215q-41 0 -66 10q-7 3 -7 19v67q0 13 9 13q2 0 10 -4q19 -13 44 -13q78 0 118 116l-189 477q-5 14 7 14h101q8 0 12 -9l86 -256q28 -87 40 -141q15 60 42 141l87 256q3 9 12 9h94q11 0 6 -13l-187 -492q-41 -107 -93.5 -150.5t-125.5 -43.5zM415 694l-147 -141
q-11 -11 -22 -11h-45q-7 0 -8.5 4t2.5 9l113 141q8 10 16 10h88q4 0 5 -4.5t-2 -7.5z" />
    <glyph glyph-name="thorn" unicode="&#xfe;" horiz-adv-x="589" 
d="M171 390q38 111 158 111q106 0 163.5 -76.5t57.5 -182.5q0 -102 -60.5 -178.5t-158.5 -76.5q-114 0 -149 90q5 -115 5 -272q0 -10 -9 -10h-96q-9 0 -9 10v891q0 10 9 10h96q9 0 9 -10zM187 290v-113q0 -50 27.5 -80.5t82.5 -30.5q63 0 98 47.5t35 130.5q0 174 -133 174
q-53 0 -81.5 -35t-28.5 -93z" />
    <glyph glyph-name="ydieresis" unicode="&#xff;" horiz-adv-x="487" 
d="M81 -215q-41 0 -66 10q-7 3 -7 19v67q0 13 9 13q2 0 10 -4q19 -13 44 -13q78 0 118 116l-189 477q-5 14 7 14h101q8 0 12 -9l86 -256q28 -87 40 -141q15 60 42 141l87 256q3 9 12 9h94q11 0 6 -13l-187 -492q-41 -107 -93.5 -150.5t-125.5 -43.5zM148 675q24 0 40.5 -17
t16.5 -40t-16.5 -39.5t-40.5 -16.5q-22 0 -39 17t-17 39q0 23 16.5 40t39.5 17zM339 675q23 0 39.5 -17t16.5 -40q0 -22 -16.5 -39t-39.5 -17q-24 0 -40.5 16.5t-16.5 39.5t16.5 40t40.5 17z" />
    <glyph glyph-name="Amacron" unicode="&#x100;" horiz-adv-x="655" 
d="M378 412q-39 116 -55 201q-18 -87 -56 -197q-28 -84 -48 -133q52 3 107 3q69 0 100 -2q-22 53 -48 128zM453 203q-63 -3 -130 -3q-65 0 -131 3q-20 -76 -65 -193q-4 -10 -11 -10h-105q-15 0 -9 16l249 681q5 9 10 9h129q8 0 12 -9l252 -681q5 -16 -9 -16h-114
q-8 0 -12 10q-47 125 -66 193zM454 848v-57q0 -7 -6 -7h-240q-6 0 -6 7v57q0 8 6 8h240q6 0 6 -8z" />
    <glyph glyph-name="amacron" unicode="&#x101;" horiz-adv-x="517" 
d="M386 643v-61q0 -7 -6 -7h-237q-6 0 -6 7v61q0 8 6 8h237q6 0 6 -8zM152 134q0 -30 20 -47t50 -17q51 0 83.5 37t32.5 90v52q-95 -8 -140.5 -38.5t-45.5 -76.5zM68 401q0 35 47 67.5t142 32.5q192 0 192 -154q0 -31 -2.5 -103.5t-2.5 -98.5q0 -96 27 -119q7 -7 7 -14
q0 -4 -4 -8t-8 -4h-56q-20 0 -29 19q-18 35 -20 87q-41 -119 -172 -119q-66 0 -105 35t-39 92q0 79 76 132.5t217 63.5v31q0 78 -89 78q-59 0 -85 -34q-8 -12 -13 -17t-14 -10t-21 -5q-20 0 -34 13t-14 35z" />
    <glyph glyph-name="Abreve" unicode="&#x102;" horiz-adv-x="655" 
d="M378 412q-39 116 -55 201q-18 -87 -56 -197q-28 -84 -48 -133q52 3 107 3q69 0 100 -2q-22 53 -48 128zM453 203q-63 -3 -130 -3q-65 0 -131 3q-20 -76 -65 -193q-4 -10 -11 -10h-105q-15 0 -9 16l249 681q5 9 10 9h129q8 0 12 -9l252 -681q5 -16 -9 -16h-114
q-8 0 -12 10q-47 125 -66 193zM450 899q5 0 5 -5q-1 -66 -33 -100.5t-87 -34.5q-54 0 -86 34t-33 102q0 4 6 4h53q6 0 6 -6q1 -65 56 -65q28 0 41.5 14t14.5 51q0 6 6 6h51z" />
    <glyph glyph-name="abreve" unicode="&#x103;" horiz-adv-x="517" 
d="M376 687q5 0 5 -6q0 -67 -32.5 -103t-87.5 -36q-53 0 -85.5 36t-33.5 104q0 5 6 5h53q6 0 6 -6q0 -69 56 -69q28 0 41.5 16t14.5 53q0 6 6 6h51zM152 134q0 -30 20 -47t50 -17q51 0 83.5 37t32.5 90v52q-95 -8 -140.5 -38.5t-45.5 -76.5zM68 401q0 35 47 67.5t142 32.5
q192 0 192 -154q0 -31 -2.5 -103.5t-2.5 -98.5q0 -96 27 -119q7 -7 7 -14q0 -4 -4 -8t-8 -4h-56q-20 0 -29 19q-18 35 -20 87q-41 -119 -172 -119q-66 0 -105 35t-39 92q0 79 76 132.5t217 63.5v31q0 78 -89 78q-59 0 -85 -34q-8 -12 -13 -17t-14 -10t-21 -5q-20 0 -34 13
t-14 35z" />
    <glyph glyph-name="Aogonek" unicode="&#x104;" horiz-adv-x="655" 
d="M453 203q-63 -3 -130 -3q-65 0 -131 3q-20 -76 -65 -193q-4 -10 -11 -10h-105q-15 0 -9 16l249 681q5 9 10 9h129q8 0 12 -9l252 -681q5 -16 -9 -16h-20q-45 -16 -68.5 -44t-23.5 -58q0 -26 15.5 -43t46.5 -17q19 0 48 9q7 1 7 -5v-48q0 -6 -6 -7q-39 -10 -78 -10
q-52 0 -81.5 28.5t-29.5 69.5q0 40 30.5 73.5t87.5 51.5h-42q-8 0 -12 10q-47 125 -66 193zM378 412q-39 116 -55 201q-18 -87 -56 -197q-28 -84 -48 -133q52 3 107 3q69 0 100 -2q-22 53 -48 128z" />
    <glyph glyph-name="aogonek" unicode="&#x105;" horiz-adv-x="517" 
d="M68 401q0 35 47 67.5t142 32.5q192 0 192 -154q0 -31 -2.5 -103.5t-2.5 -98.5q0 -96 27 -119q7 -7 7 -14q0 -4 -4 -8t-8 -4h-6q-45 -16 -68.5 -44t-23.5 -58q0 -26 15.5 -43t46.5 -17q19 0 48 9q7 1 7 -5v-48q0 -6 -6 -7q-39 -10 -78 -10q-52 0 -81.5 28.5t-29.5 69.5
q0 40 30.5 73.5t87.5 51.5q-20 0 -27 19q-18 35 -20 87q-41 -119 -172 -119q-66 0 -105 35t-39 92q0 79 76 132.5t217 63.5v31q0 78 -89 78q-59 0 -85 -34q-8 -12 -13 -17t-14 -10t-21 -5q-20 0 -34 13t-14 35zM152 134q0 -30 20 -47t50 -17q51 0 83.5 37t32.5 90v51
q-95 -8 -140.5 -38.5t-45.5 -75.5z" />
    <glyph glyph-name="Cacute" unicode="&#x106;" horiz-adv-x="672" 
d="M408 -13q-158 0 -254.5 103t-96.5 260q0 162 103 270.5t273 108.5q119 0 195 -52q13 -9 13 -29v-85q0 -17 -15 -17q-5 0 -13 6q-77 67 -181 67q-115 0 -177.5 -71t-62.5 -192q0 -123 65 -194t171 -71q112 0 186 60q8 5 13 5q14 0 14 -16v-68q0 -17 -13 -26
q-81 -59 -220 -59zM556 900l-160 -139q-8 -8 -15 -8h-51q-4 0 -5.5 3t1.5 6l125 140q8 10 16 10h86q5 0 6 -4.5t-3 -7.5z" />
    <glyph glyph-name="cacute" unicode="&#x107;" horiz-adv-x="469" 
d="M407 368q-16 0 -35 15q-30 25 -72 25q-67 0 -106 -49.5t-39 -117.5q0 -79 42.5 -121.5t106.5 -42.5q69 0 113 37q6 6 10 6q10 0 10 -14v-55q0 -13 -8 -21q-55 -43 -140 -43q-114 0 -181.5 70.5t-67.5 179.5q0 105 73.5 184.5t194.5 79.5q76 0 118 -34q26 -19 26 -48
q0 -22 -12.5 -36.5t-32.5 -14.5zM418 694l-147 -141q-11 -11 -22 -11h-45q-7 0 -8.5 4t2.5 9l113 141q7 10 16 10h88q4 0 5 -4.5t-2 -7.5z" />
    <glyph glyph-name="Ccircumflex" unicode="&#x108;" horiz-adv-x="672" 
d="M408 -13q-158 0 -254.5 103t-96.5 260q0 162 103 270.5t273 108.5q119 0 195 -52q13 -9 13 -29v-85q0 -17 -15 -17q-5 0 -13 6q-77 67 -181 67q-115 0 -177.5 -71t-62.5 -192q0 -123 65 -194t171 -71q112 0 186 60q8 5 13 5q14 0 14 -16v-68q0 -17 -13 -26
q-81 -59 -220 -59zM419 845l-89 -83q-10 -9 -16 -9h-50q-3 0 -4.5 1.5t-1.5 3.5t2 4l123 141q9 9 16 9h47q10 0 17 -9l121 -141q2 -3 0.5 -6t-4.5 -3h-55q-7 0 -16 9z" />
    <glyph glyph-name="ccircumflex" unicode="&#x109;" horiz-adv-x="469" 
d="M407 368q-16 0 -35 15q-30 25 -72 25q-67 0 -106 -49.5t-39 -117.5q0 -79 42.5 -121.5t106.5 -42.5q69 0 113 37q6 6 10 6q10 0 10 -14v-55q0 -13 -8 -21q-55 -43 -140 -43q-114 0 -181.5 70.5t-67.5 179.5q0 105 73.5 184.5t194.5 79.5q76 0 118 -34q26 -19 26 -48
q0 -22 -12.5 -36.5t-32.5 -14.5zM290 638l-82 -87q-10 -9 -18 -9h-51q-3 0 -4 3t1 6l114 145q10 10 16 10h54q8 0 16 -10l115 -145q2 -2 0 -5.5t-5 -3.5h-56q-8 0 -17 9z" />
    <glyph glyph-name="Cdotaccent" unicode="&#x10a;" horiz-adv-x="672" 
d="M408 -13q-158 0 -254.5 103t-96.5 260q0 162 103 270.5t273 108.5q119 0 195 -52q13 -9 13 -29v-85q0 -17 -15 -17q-5 0 -13 6q-77 67 -181 67q-115 0 -177.5 -71t-62.5 -192q0 -123 65 -194t171 -71q112 0 186 60q8 5 13 5q14 0 14 -16v-68q0 -17 -13 -26
q-81 -59 -220 -59zM428 886q24 0 41.5 -17t17.5 -42q0 -24 -17.5 -39.5t-41.5 -15.5t-41.5 15.5t-17.5 39.5q0 25 17.5 42t41.5 17z" />
    <glyph glyph-name="cdotaccent" unicode="&#x10b;" horiz-adv-x="469" 
d="M407 368q-16 0 -35 15q-30 25 -72 25q-67 0 -106 -49.5t-39 -117.5q0 -79 42.5 -121.5t106.5 -42.5q69 0 113 37q6 6 10 6q10 0 10 -14v-55q0 -13 -8 -21q-55 -43 -140 -43q-114 0 -181.5 70.5t-67.5 179.5q0 105 73.5 184.5t194.5 79.5q76 0 118 -34q26 -19 26 -48
q0 -22 -12.5 -36.5t-32.5 -14.5zM301 669q23 0 40 -17t17 -40t-17 -40t-40 -17t-40 17t-17 40t17 40t40 17z" />
    <glyph glyph-name="Ccaron" unicode="&#x10c;" horiz-adv-x="672" 
d="M408 -13q-158 0 -254.5 103t-96.5 260q0 162 103 270.5t273 108.5q119 0 195 -52q13 -9 13 -29v-85q0 -17 -15 -17q-5 0 -13 6q-77 67 -181 67q-115 0 -177.5 -71t-62.5 -192q0 -123 65 -194t171 -71q112 0 186 60q8 5 13 5q14 0 14 -16v-68q0 -17 -13 -26
q-81 -59 -220 -59zM430 820l89 83q9 9 16 9h50q4 0 4.5 -3t-1.5 -6l-123 -141q-7 -9 -16 -9h-47q-10 0 -17 9l-121 141q-4 9 5 9h55q6 0 16 -9z" />
    <glyph glyph-name="ccaron" unicode="&#x10d;" horiz-adv-x="469" 
d="M407 368q-16 0 -35 15q-30 25 -72 25q-67 0 -106 -49.5t-39 -117.5q0 -79 42.5 -121.5t106.5 -42.5q69 0 113 37q6 6 10 6q10 0 10 -14v-55q0 -13 -8 -21q-55 -43 -140 -43q-114 0 -181.5 70.5t-67.5 179.5q0 105 73.5 184.5t194.5 79.5q76 0 118 -34q26 -19 26 -48
q0 -22 -12.5 -36.5t-32.5 -14.5zM296 611l82 86q10 9 17 9h51q3 0 4.5 -3t-0.5 -6l-115 -145q-7 -10 -16 -10h-53q-7 0 -17 10l-114 145q-2 3 -0.5 6t4.5 3h56q7 0 18 -9z" />
    <glyph glyph-name="Dcaron" unicode="&#x10e;" horiz-adv-x="770" 
d="M350 0h-252q-9 0 -9 9v687q0 10 9 10h244q172 0 271.5 -94.5t99.5 -263.5q0 -168 -98.5 -258t-264.5 -90zM341 100q108 0 172.5 62t64.5 190q0 115 -61.5 184.5t-188.5 69.5q-64 0 -115 3q4 -51 4 -119v-239q0 -95 -4 -155q65 4 128 4zM350 820l89 83q9 9 16 9h50
q4 0 4.5 -3t-1.5 -6l-123 -141q-7 -9 -16 -9h-47q-10 0 -17 9l-121 141q-4 9 5 9h55q6 0 16 -9z" />
    <glyph glyph-name="dcaron" unicode="&#x10f;" horiz-adv-x="589" 
d="M526 9q0 -9 -9 -9h-80q-7 0 -9 9q-7 37 -7 85q-19 -51 -62 -79t-100 -28q-96 0 -157.5 75.5t-61.5 184.5q0 107 60 180.5t159 73.5q57 0 96 -26.5t54 -65.5q-5 112 -5 287q0 10 9 10h95q9 0 9 -10v-562q0 -32 2.5 -61t4.5 -45.5t2 -18.5zM404 195v112q0 51 -27.5 82.5
t-82.5 31.5q-64 0 -99 -46t-35 -128q0 -90 35 -134.5t99 -44.5q52 0 81 34t29 93zM672 692l-34 -159q-2 -9 -10 -9h-41q-8 0 -8 9v163q0 4 3.5 7t7.5 3h74q13 0 8 -14z" />
    <glyph glyph-name="Dcroat" unicode="&#x110;" horiz-adv-x="778" 
d="M104 251q0 43 5 68q-33 -3 -66 -3h-34q-9 0 -9 9v60q0 9 9 9h35q38 0 65 -3q-5 30 -5 79v226q0 10 9 10h242q173 0 273 -94.5t100 -263.5q0 -168 -99 -258t-265 -90h-251q-9 0 -9 9v242zM231 252v-46q0 -61 -4 -110q65 4 128 4q108 0 172.5 62t64.5 190
q0 115 -61.5 184.5t-188.5 69.5q-64 0 -115 3q4 -62 4 -97v-48q0 -41 -4 -73q30 3 77 3h62q3 0 6 -3t3 -6v-60q0 -3 -3 -6t-6 -3h-63q-37 0 -77 4q5 -28 5 -68z" />
    <glyph glyph-name="dcroat" unicode="&#x111;" horiz-adv-x="589" 
d="M561 643v-61q0 -7 -6 -7h-38v-441q0 -32 2.5 -61t4.5 -45.5t2 -18.5q0 -9 -9 -9h-80q-7 0 -9 9q-7 37 -7 85q-19 -51 -62 -79t-100 -28q-96 0 -157.5 75.5t-61.5 184.5q0 107 60 180.5t159 73.5q57 0 96 -26.5t54 -65.5q-3 52 -5 166h-86q-6 0 -6 7v61q0 8 6 8h86v45
q0 10 9 10h95q9 0 9 -10v-45h38q6 0 6 -8zM404 195v112q0 51 -27.5 82.5t-82.5 31.5q-64 0 -99 -46t-35 -128q0 -90 35 -134.5t99 -44.5q52 0 81 34t29 93z" />
    <glyph glyph-name="Emacron" unicode="&#x112;" horiz-adv-x="587" 
d="M368 97q32 0 97 1t94 1q9 0 7 -9l-11 -82q-2 -8 -7 -8h-450q-9 0 -9 9v687q0 10 9 10h435q8 0 8 -9l10 -82q2 -8 -7 -8q-30 0 -106 1t-104 1q-78 0 -121 4q4 -47 4 -102q0 -57 -4 -102q52 5 118 5q25 0 61.5 1t48.5 1q7 0 7 -9v-80q0 -8 -7 -8q-11 0 -48 0.5t-63 0.5
q-64 0 -117 6q4 -52 4 -112q0 -68 -4 -120q74 3 155 3zM455 848v-57q0 -7 -6 -7h-240q-6 0 -6 7v57q0 8 6 8h240q6 0 6 -8z" />
    <glyph glyph-name="emacron" unicode="&#x113;" horiz-adv-x="510" 
d="M283 -13q-113 0 -178 71.5t-65 180.5q0 105 67.5 183.5t181.5 78.5q95 0 143.5 -52.5t48.5 -144.5q0 -36 -30 -36h-294q-4 -24 -4 -44q0 -62 40 -104t110 -42q72 0 123 40q5 5 11 5q8 0 8 -12v-59q0 -14 -8 -20q-55 -45 -154 -45zM385 333q0 42 -25.5 68t-71.5 26
q-93 0 -122 -94h219zM404 643v-61q0 -7 -6 -7h-237q-6 0 -6 7v61q0 8 6 8h237q6 0 6 -8z" />
    <glyph glyph-name="Ebreve" unicode="&#x114;" horiz-adv-x="587" 
d="M368 97q32 0 97 1t94 1q9 0 7 -9l-11 -82q-2 -8 -7 -8h-450q-9 0 -9 9v687q0 10 9 10h435q8 0 8 -9l10 -82q2 -8 -7 -8q-30 0 -106 1t-104 1q-78 0 -121 4q4 -47 4 -102q0 -57 -4 -102q52 5 118 5q25 0 61.5 1t48.5 1q7 0 7 -9v-80q0 -8 -7 -8q-11 0 -48 0.5t-63 0.5
q-64 0 -117 6q4 -52 4 -112q0 -68 -4 -120q74 3 155 3zM440 899q5 0 5 -5q-1 -66 -33 -100.5t-87 -34.5q-54 0 -86 34t-33 102q0 4 6 4h53q6 0 6 -6q1 -65 56 -65q28 0 41.5 14t14.5 51q0 6 6 6h51z" />
    <glyph glyph-name="ebreve" unicode="&#x115;" horiz-adv-x="510" 
d="M283 -13q-113 0 -178 71.5t-65 180.5q0 105 67.5 183.5t181.5 78.5q95 0 143.5 -52.5t48.5 -144.5q0 -36 -30 -36h-294q-4 -24 -4 -44q0 -62 40 -104t110 -42q72 0 123 40q5 5 11 5q8 0 8 -12v-59q0 -14 -8 -20q-55 -45 -154 -45zM385 333q0 42 -25.5 68t-71.5 26
q-93 0 -122 -94h219zM403 687q5 0 5 -6q0 -67 -32.5 -103t-87.5 -36q-53 0 -85.5 36t-33.5 104q0 5 6 5h53q6 0 6 -6q0 -69 56 -69q28 0 41.5 16t14.5 53q0 6 6 6h51z" />
    <glyph glyph-name="Edotaccent" unicode="&#x116;" horiz-adv-x="587" 
d="M368 97q32 0 97 1t94 1q9 0 7 -9l-11 -82q-2 -8 -7 -8h-450q-9 0 -9 9v687q0 10 9 10h435q8 0 8 -9l10 -82q2 -8 -7 -8q-30 0 -106 1t-104 1q-78 0 -121 4q4 -47 4 -102q0 -57 -4 -102q52 5 118 5q25 0 61.5 1t48.5 1q7 0 7 -9v-80q0 -8 -7 -8q-11 0 -48 0.5t-63 0.5
q-64 0 -117 6q4 -52 4 -112q0 -68 -4 -120q74 3 155 3zM332 865q24 0 41.5 -17t17.5 -42q0 -24 -17.5 -39.5t-41.5 -15.5t-41.5 15.5t-17.5 39.5q0 25 17.5 42t41.5 17z" />
    <glyph glyph-name="edotaccent" unicode="&#x117;" horiz-adv-x="510" 
d="M283 -13q-113 0 -178 71.5t-65 180.5q0 105 67.5 183.5t181.5 78.5q95 0 143.5 -52.5t48.5 -144.5q0 -36 -30 -36h-294q-4 -24 -4 -44q0 -62 40 -104t110 -42q72 0 123 40q5 5 11 5q8 0 8 -12v-59q0 -14 -8 -20q-55 -45 -154 -45zM385 333q0 42 -25.5 68t-71.5 26
q-93 0 -122 -94h219zM284 669q23 0 40 -17t17 -40t-17 -40t-40 -17t-40 17t-17 40t17 40t40 17z" />
    <glyph glyph-name="Eogonek" unicode="&#x118;" horiz-adv-x="587" 
d="M368 97q32 0 97 1t94 1q9 0 7 -9l-11 -82q-2 -8 -7 -8h-59q-45 -16 -68.5 -44t-23.5 -58q0 -26 15.5 -43t46.5 -17q19 0 48 9q7 1 7 -5v-48q0 -6 -6 -7q-39 -10 -78 -10q-52 0 -81.5 28.5t-29.5 69.5q0 40 30.5 73.5t87.5 51.5h-339q-9 0 -9 9v687q0 10 9 10h435
q8 0 8 -9l10 -82q2 -8 -7 -8q-30 0 -106 1t-104 1q-78 0 -121 4q4 -47 4 -102q0 -57 -4 -102q52 5 118 5q25 0 61.5 1t48.5 1q7 0 7 -9v-80q0 -8 -7 -8q-11 0 -48 0.5t-63 0.5q-64 0 -117 6q4 -52 4 -112q0 -68 -4 -120q74 3 155 3z" />
    <glyph glyph-name="eogonek" unicode="&#x119;" horiz-adv-x="510" 
d="M437 32q-42 -34 -119 -43q-67 -35 -67 -91q0 -26 15.5 -43t46.5 -17q19 0 48 9q7 1 7 -5v-48q0 -6 -6 -7q-39 -10 -78 -10q-52 0 -81.5 28.5t-29.5 69.5q0 73 87 113q-103 8 -161.5 78t-58.5 173q0 105 67.5 183.5t181.5 78.5q95 0 143.5 -52.5t48.5 -144.5
q0 -36 -30 -36h-294q-4 -24 -4 -44q0 -62 40 -104t110 -42q72 0 123 40q5 5 11 5q8 0 8 -12v-59q0 -14 -8 -20zM385 333q0 42 -25.5 68t-71.5 26q-93 0 -122 -94h219z" />
    <glyph glyph-name="Ecaron" unicode="&#x11a;" horiz-adv-x="587" 
d="M368 97q32 0 97 1t94 1q9 0 7 -9l-11 -82q-2 -8 -7 -8h-450q-9 0 -9 9v687q0 10 9 10h435q8 0 8 -9l10 -82q2 -8 -7 -8q-30 0 -106 1t-104 1q-78 0 -121 4q4 -47 4 -102q0 -57 -4 -102q52 5 118 5q25 0 61.5 1t48.5 1q7 0 7 -9v-80q0 -8 -7 -8q-11 0 -48 0.5t-63 0.5
q-64 0 -117 6q4 -52 4 -112q0 -68 -4 -120q74 3 155 3zM331 820l89 83q9 9 16 9h50q4 0 4.5 -3t-1.5 -6l-123 -141q-7 -9 -16 -9h-47q-9 0 -17 9l-121 141q-2 3 -0.5 6t5.5 3h55q5 0 16 -9z" />
    <glyph glyph-name="ecaron" unicode="&#x11b;" horiz-adv-x="510" 
d="M283 -13q-113 0 -178 71.5t-65 180.5q0 105 67.5 183.5t181.5 78.5q95 0 143.5 -52.5t48.5 -144.5q0 -36 -30 -36h-294q-4 -24 -4 -44q0 -62 40 -104t110 -42q72 0 123 40q5 5 11 5q8 0 8 -12v-59q0 -14 -8 -20q-55 -45 -154 -45zM385 333q0 42 -25.5 68t-71.5 26
q-93 0 -122 -94h219zM291 611l82 86q11 9 17 9h51q3 0 4.5 -3t-0.5 -6l-115 -145q-8 -10 -16 -10h-53q-7 0 -17 10l-114 145q-4 9 4 9h56q8 0 18 -9z" />
    <glyph glyph-name="Gcircumflex" unicode="&#x11c;" horiz-adv-x="757" 
d="M437 625q-117 0 -181 -73.5t-64 -195.5q0 -123 64 -196t170 -73q74 0 132 31v197q0 10 9 10h101q9 0 9 -10v-252q-118 -76 -268 -76q-155 0 -253.5 103t-98.5 260q0 156 104.5 267.5t281.5 111.5q137 0 221 -54q13 -7 13 -27v-88q0 -17 -15 -17q-7 0 -13 6q-37 32 -93 54
t-119 22zM430 845l-89 -83q-11 -9 -16 -9h-50q-3 0 -4.5 1.5t-1.5 3.5t2 4l123 141q9 9 16 9h47q10 0 17 -9l121 -141q2 -3 0.5 -6t-4.5 -3h-55q-7 0 -16 9z" />
    <glyph glyph-name="gcircumflex" unicode="&#x11d;" horiz-adv-x="559" 
d="M525 392q-16 0 -30 12t-24 12q-27 0 -27 -33q0 -10 3.5 -30.5t3.5 -38.5q0 -74 -52 -118.5t-162 -44.5q-90 0 -90 -43q0 -33 52 -33q21 0 72 5.5t94 5.5q74 0 110 -33t36 -90q0 -80 -72 -129.5t-198 -49.5q-108 0 -162 33t-54 91q0 30 15.5 49t31.5 19h67q8 0 8 -6
q0 -4 -3 -7q-12 -10 -12 -32q0 -69 113 -69q70 0 110 24.5t40 67.5q0 54 -66 54q-22 0 -67.5 -3t-78.5 -3q-61 0 -91.5 22t-30.5 60q0 37 27.5 64.5t74.5 31.5q-49 14 -76 53t-27 95q0 75 55 124t139 49q118 0 163 -81q11 40 36.5 63t62.5 23q26 0 39.5 -16.5t13.5 -43.5
q0 -54 -44 -54zM257 428q-85 0 -85 -104q0 -110 86 -110q90 0 90 105q0 109 -91 109zM265 638l-82 -87q-11 -9 -18 -9h-51q-3 0 -4 3t1 6l114 145q10 10 16 10h54q8 0 16 -10l115 -145q2 -2 0 -5.5t-5 -3.5h-56q-8 0 -17 9z" />
    <glyph glyph-name="Gbreve" unicode="&#x11e;" horiz-adv-x="757" 
d="M437 625q-117 0 -181 -73.5t-64 -195.5q0 -123 64 -196t170 -73q74 0 132 31v197q0 10 9 10h101q9 0 9 -10v-252q-118 -76 -268 -76q-155 0 -253.5 103t-98.5 260q0 156 104.5 267.5t281.5 111.5q137 0 221 -54q13 -7 13 -27v-88q0 -17 -15 -17q-7 0 -13 6q-37 32 -93 54
t-119 22zM550 899q5 0 5 -5q-1 -66 -33 -100.5t-87 -34.5q-54 0 -86 34t-33 102q0 4 6 4h53q6 0 6 -6q1 -65 56 -65q28 0 41.5 14t14.5 51q0 6 6 6h51z" />
    <glyph glyph-name="gbreve" unicode="&#x11f;" horiz-adv-x="559" 
d="M525 392q-16 0 -30 12t-24 12q-27 0 -27 -33q0 -10 3.5 -30.5t3.5 -38.5q0 -74 -52 -118.5t-162 -44.5q-90 0 -90 -43q0 -33 52 -33q21 0 72 5.5t94 5.5q74 0 110 -33t36 -90q0 -80 -72 -129.5t-198 -49.5q-108 0 -162 33t-54 91q0 30 15.5 49t31.5 19h67q8 0 8 -6
q0 -4 -3 -7q-12 -10 -12 -32q0 -69 113 -69q70 0 110 24.5t40 67.5q0 54 -66 54q-22 0 -67.5 -3t-78.5 -3q-61 0 -91.5 22t-30.5 60q0 37 27.5 64.5t74.5 31.5q-49 14 -76 53t-27 95q0 75 55 124t139 49q118 0 163 -81q11 40 36.5 63t62.5 23q26 0 39.5 -16.5t13.5 -43.5
q0 -54 -44 -54zM257 428q-85 0 -85 -104q0 -110 86 -110q90 0 90 105q0 109 -91 109zM374 687q5 0 5 -6q0 -67 -32.5 -103t-87.5 -36q-53 0 -85.5 36t-33.5 104q0 5 6 5h53q6 0 6 -6q0 -69 56 -69q28 0 41.5 16t14.5 53q0 6 6 6h51z" />
    <glyph glyph-name="Gdotaccent" unicode="&#x120;" horiz-adv-x="757" 
d="M437 625q-117 0 -181 -73.5t-64 -195.5q0 -123 64 -196t170 -73q74 0 132 31v197q0 10 9 10h101q9 0 9 -10v-252q-118 -76 -268 -76q-155 0 -253.5 103t-98.5 260q0 156 104.5 267.5t281.5 111.5q137 0 221 -54q13 -7 13 -27v-88q0 -17 -15 -17q-7 0 -13 6q-37 32 -93 54
t-119 22zM435 881q24 0 41.5 -17t17.5 -42q0 -24 -17.5 -39.5t-41.5 -15.5t-41.5 15.5t-17.5 39.5q0 25 17.5 42t41.5 17z" />
    <glyph glyph-name="gdotaccent" unicode="&#x121;" horiz-adv-x="559" 
d="M525 392q-16 0 -30 12t-24 12q-27 0 -27 -33q0 -10 3.5 -30.5t3.5 -38.5q0 -74 -52 -118.5t-162 -44.5q-90 0 -90 -43q0 -33 52 -33q21 0 72 5.5t94 5.5q74 0 110 -33t36 -90q0 -80 -72 -129.5t-198 -49.5q-108 0 -162 33t-54 91q0 30 15.5 49t31.5 19h67q8 0 8 -6
q0 -4 -3 -7q-12 -10 -12 -32q0 -69 113 -69q70 0 110 24.5t40 67.5q0 54 -66 54q-22 0 -67.5 -3t-78.5 -3q-61 0 -91.5 22t-30.5 60q0 37 27.5 64.5t74.5 31.5q-49 14 -76 53t-27 95q0 75 55 124t139 49q118 0 163 -81q11 40 36.5 63t62.5 23q26 0 39.5 -16.5t13.5 -43.5
q0 -54 -44 -54zM257 428q-85 0 -85 -104q0 -110 86 -110q90 0 90 105q0 109 -91 109zM263 669q23 0 40 -17t17 -40t-17 -40t-40 -17t-40 17t-17 40t17 40t40 17z" />
    <glyph glyph-name="Gcommaaccent" unicode="&#x122;" horiz-adv-x="757" 
d="M437 625q-117 0 -181 -73.5t-64 -195.5q0 -123 64 -196t170 -73q74 0 132 31v197q0 10 9 10h101q9 0 9 -10v-252q-118 -76 -268 -76q-155 0 -253.5 103t-98.5 260q0 156 104.5 267.5t281.5 111.5q137 0 221 -54q13 -7 13 -27v-88q0 -17 -15 -17q-7 0 -13 6q-37 32 -93 54
t-119 22zM477 -73l-76 -128q-5 -11 -15 -11h-50q-10 0 -8 11l33 132q4 10 11 10h97q6 0 8.5 -4t-0.5 -10z" />
    <glyph glyph-name="gcommaaccent" unicode="&#x123;" horiz-adv-x="559" 
d="M525 392q-16 0 -30 12t-24 12q-27 0 -27 -33q0 -10 3.5 -30.5t3.5 -38.5q0 -74 -52 -118.5t-162 -44.5q-90 0 -90 -43q0 -33 52 -33q21 0 72 5.5t94 5.5q74 0 110 -33t36 -90q0 -80 -72 -129.5t-198 -49.5q-108 0 -162 33t-54 91q0 30 15.5 49t31.5 19h67q8 0 8 -6
q0 -4 -3 -7q-12 -10 -12 -32q0 -69 113 -69q70 0 110 24.5t40 67.5q0 54 -66 54q-22 0 -67.5 -3t-78.5 -3q-61 0 -91.5 22t-30.5 60q0 37 27.5 64.5t74.5 31.5q-49 14 -76 53t-27 95q0 75 55 124t139 49q118 0 163 -81q11 40 36.5 63t62.5 23q26 0 39.5 -16.5t13.5 -43.5
q0 -54 -44 -54zM257 428q-85 0 -85 -104q0 -110 86 -110q90 0 90 105q0 109 -91 109zM209 567l76 128q5 11 15 11h50q10 0 8 -11l-33 -132q-4 -10 -11 -10h-97q-6 0 -8.5 4t0.5 10z" />
    <glyph glyph-name="Hcircumflex" unicode="&#x124;" horiz-adv-x="785" 
d="M466 427q54 0 100 -3q-2 40 -2 125v147q0 10 9 10h109q9 0 9 -10v-687q0 -3 -3 -6t-6 -3h-109q-9 0 -9 9v175q0 95 2 140q-40 -2 -98 -2h-155q-59 0 -99 2q3 -68 3 -140v-175q0 -3 -3 -6t-6 -3h-110q-9 0 -9 9v687q0 10 9 10h110q9 0 9 -10v-147q0 -65 -3 -125
q47 3 101 3h151zM387 845l-89 -83q-10 -9 -16 -9h-50q-3 0 -4.5 1.5t-1.5 3.5t2 4l123 141q9 9 16 9h47q10 0 17 -9l121 -141q2 -3 0.5 -6t-4.5 -3h-55q-7 0 -16 9z" />
    <glyph glyph-name="hcircumflex" unicode="&#x125;" horiz-adv-x="576" 
d="M166 377q20 57 72 90.5t118 33.5q68 0 112.5 -41.5t44.5 -119.5v-331q0 -3 -3 -6t-6 -3h-96q-9 0 -9 9v300q0 102 -89 102q-53 0 -90.5 -38t-37.5 -103v-261q0 -3 -3 -6t-6 -3h-95q-9 0 -9 9v687q0 10 9 10h88q9 0 9 -10q0 -155 -9 -319zM204 845l-89 -83q-11 -9 -16 -9
h-50q-3 0 -4.5 1.5t-1.5 3.5t2 4l123 141q9 9 16 9h47q9 0 17 -9l121 -141q2 -3 0.5 -6t-4.5 -3h-55q-7 0 -16 9z" />
    <glyph glyph-name="Hbar" unicode="&#x126;" horiz-adv-x="785" 
d="M761 643v-61q0 -7 -6 -7h-64v-566q0 -3 -3 -6t-6 -3h-109q-9 0 -9 9v175q0 95 2 140q-40 -2 -98 -2h-155q-59 0 -99 2q3 -68 3 -140v-175q0 -3 -3 -6t-6 -3h-110q-9 0 -9 9v566h-61q-6 0 -6 7v61q0 8 6 8h61v45q0 10 9 10h110q9 0 9 -10v-45h347v45q0 10 9 10h109
q9 0 9 -10v-45h64q6 0 6 -8zM466 427q54 0 100 -3q-2 40 -2 125v26h-347v-26q0 -65 -3 -125q47 3 101 3h151z" />
    <glyph glyph-name="hbar" unicode="&#x127;" horiz-adv-x="576" 
d="M266 643v-61q0 -7 -6 -7h-87q-3 -103 -7 -198q20 57 72 90.5t118 33.5q68 0 112.5 -41.5t44.5 -119.5v-331q0 -3 -3 -6t-6 -3h-96q-9 0 -9 9v300q0 102 -89 102q-53 0 -90.5 -38t-37.5 -103v-261q0 -3 -3 -6t-6 -3h-95q-9 0 -9 9v566h-46q-6 0 -6 7v61q0 8 6 8h46v45
q0 10 9 10h88q9 0 9 -10v-45h85q6 0 6 -8z" />
    <glyph glyph-name="Itilde" unicode="&#x128;" horiz-adv-x="306" 
d="M217 696v-687q0 -3 -3 -6t-6 -3h-110q-9 0 -9 9v687q0 10 9 10h110q9 0 9 -10zM220 754q-29 0 -74.5 34t-67.5 34q-20 0 -32.5 -15t-12.5 -35q0 -11 -12 -11q-29 0 -29 11q0 55 28.5 86t73.5 31q32 0 56.5 -15.5t44 -30.5t37.5 -15q17 0 30 13t13 36q0 10 9 10
q30 0 30 -12q0 -56 -26 -88.5t-68 -32.5z" />
    <glyph glyph-name="itilde" unicode="&#x129;" horiz-adv-x="251" 
d="M182 474v-465q0 -3 -3 -6t-6 -3h-95q-9 0 -9 9v465q0 10 9 10h95q9 0 9 -10zM192 550q-29 0 -74.5 36.5t-67.5 36.5q-20 0 -32.5 -16t-12.5 -37q0 -13 -12 -13q-29 0 -29 13q0 59 28.5 92t74.5 33q31 0 56 -16.5t44 -32.5t37 -16q17 0 30 14t13 39q0 11 9 11q30 0 30 -13
q0 -61 -26 -96t-68 -35z" />
    <glyph glyph-name="Imacron" unicode="&#x12a;" horiz-adv-x="306" 
d="M217 696v-687q0 -3 -3 -6t-6 -3h-110q-9 0 -9 9v687q0 10 9 10h110q9 0 9 -10zM279 848v-57q0 -7 -6 -7h-240q-6 0 -6 7v57q0 8 6 8h240q6 0 6 -8z" />
    <glyph glyph-name="imacron" unicode="&#x12b;" horiz-adv-x="251" 
d="M182 474v-465q0 -3 -3 -6t-6 -3h-95q-9 0 -9 9v465q0 10 9 10h95q9 0 9 -10zM250 643v-61q0 -7 -6 -7h-237q-6 0 -6 7v61q0 8 6 8h237q6 0 6 -8z" />
    <glyph glyph-name="Ibreve" unicode="&#x12c;" horiz-adv-x="306" 
d="M217 696v-687q0 -3 -3 -6t-6 -3h-110q-9 0 -9 9v687q0 10 9 10h110q9 0 9 -10zM268 899q5 0 5 -5q-1 -66 -33 -100.5t-87 -34.5q-54 0 -86 34t-33 102q0 4 6 4h53q6 0 6 -6q1 -65 56 -65q28 0 41.5 14t14.5 51q0 6 6 6h51z" />
    <glyph glyph-name="ibreve" unicode="&#x12d;" horiz-adv-x="251" 
d="M182 474v-465q0 -3 -3 -6t-6 -3h-95q-9 0 -9 9v465q0 10 9 10h95q9 0 9 -10zM240 687q5 0 5 -6q0 -67 -32.5 -103t-87.5 -36q-53 0 -85.5 36t-33.5 104q0 5 6 5h53q6 0 6 -6q0 -69 56 -69q28 0 41.5 16t14.5 53q0 6 6 6h51z" />
    <glyph glyph-name="Iogonek" unicode="&#x12e;" horiz-adv-x="306" 
d="M217 696v-687q0 -3 -3 -6t-6 -3h-8q-42 -16 -64.5 -44.5t-22.5 -57.5q0 -26 14.5 -43t43.5 -17q19 0 45 9q7 1 7 -5v-48q0 -6 -6 -7q-36 -10 -73 -10q-48 0 -76 29t-28 69t28.5 73.5t82.5 51.5h-53q-9 0 -9 9v687q0 10 9 10h110q9 0 9 -10z" />
    <glyph glyph-name="iogonek" unicode="&#x12f;" horiz-adv-x="252" 
d="M183 474v-465q0 -3 -3 -6t-6 -3h-1q-42 -16 -63.5 -44t-21.5 -58q0 -27 14 -43.5t43 -16.5q18 0 45 9q6 1 6 -5v-48q0 -6 -6 -7q-36 -10 -72 -10q-48 0 -75.5 28.5t-27.5 69.5q0 40 28 73.5t82 51.5h-47q-9 0 -9 9v465q0 10 9 10h96q9 0 9 -10zM126 714q28 0 47.5 -19
t19.5 -47q0 -27 -19.5 -45t-47.5 -18q-27 0 -46.5 18t-19.5 45q0 28 19.5 47t46.5 19z" />
    <glyph glyph-name="Idotaccent" unicode="&#x130;" horiz-adv-x="306" 
d="M217 696v-687q0 -3 -3 -6t-6 -3h-110q-9 0 -9 9v687q0 10 9 10h110q9 0 9 -10zM153 865q24 0 41.5 -17t17.5 -42q0 -24 -17.5 -39.5t-41.5 -15.5t-41.5 15.5t-17.5 39.5q0 25 17.5 42t41.5 17z" />
    <glyph glyph-name="dotlessi" unicode="&#x131;" horiz-adv-x="251" 
d="M182 474v-465q0 -3 -3 -6t-6 -3h-95q-9 0 -9 9v465q0 10 9 10h95q9 0 9 -10z" />
    <glyph glyph-name="IJ" unicode="&#x132;" horiz-adv-x="612" 
d="M217 696v-687q0 -3 -3 -6t-6 -3h-110q-9 0 -9 9v687q0 10 9 10h110q9 0 9 -10zM396 -37v733q0 10 9 10h109q9 0 9 -10v-729q3 -95 -49.5 -139t-133.5 -44q-54 0 -88 17q-9 5 -9 20v72q0 12 11 12q4 0 12 -4q22 -11 52 -11q34 0 56 18t22 55z" />
    <glyph glyph-name="ij" unicode="&#x133;" horiz-adv-x="504" 
d="M183 474v-465q0 -3 -3 -6t-6 -3h-96q-9 0 -9 9v465q0 10 9 10h96q9 0 9 -10zM126 714q28 0 47.5 -19t19.5 -47q0 -27 -19.5 -45t-47.5 -18q-27 0 -46.5 18t-19.5 45q0 28 19.5 47t46.5 19zM221 -199q-8 4 -8 20v63q0 12 9 12q6 0 11 -4q17 -10 40 -10q24 0 40.5 15.5
t16.5 47.5v529q0 10 9 10h95q9 0 9 -10v-509q0 -96 -43.5 -138.5t-106.5 -42.5q-42 0 -72 17zM387 714q27 0 46.5 -19t19.5 -47q0 -27 -19.5 -45t-46.5 -18q-28 0 -47.5 18t-19.5 45q0 28 19.5 47t47.5 19z" />
    <glyph glyph-name="Jcircumflex" unicode="&#x134;" horiz-adv-x="328" 
d="M109 -37v733q0 10 9 10h109q9 0 9 -10v-729q3 -95 -49.5 -139t-133.5 -44q-54 0 -88 17q-9 5 -9 20v72q0 12 11 12q4 0 12 -4q22 -11 52 -11q34 0 56 18t22 55zM164 845l-89 -83q-11 -9 -16 -9h-50q-3 0 -4.5 1.5t-1.5 3.5t2 4l123 141q9 9 16 9h47q9 0 17 -9l121 -141
q2 -3 0.5 -6t-4.5 -3h-55q-7 0 -16 9z" />
    <glyph glyph-name="jcircumflex" unicode="&#x135;" horiz-adv-x="254" 
d="M-35 -199q-8 4 -8 20v63q0 12 9 12q6 0 11 -4q17 -10 40 -10q24 0 40.5 15.5t16.5 47.5v529q0 10 9 10h95q9 0 9 -10v-509q0 -96 -43.5 -138.5t-106.5 -42.5q-42 0 -72 17zM124 638l-82 -87q-10 -9 -18 -9h-51q-3 0 -4 3t1 6l114 145q10 10 16 10h54q8 0 16 -10l115 -145
q2 -2 0 -5.5t-5 -3.5h-56q-8 0 -17 9z" />
    <glyph glyph-name="Kcommaaccent" unicode="&#x136;" horiz-adv-x="710" 
d="M217 200v-191q0 -3 -3 -6t-6 -3h-110q-9 0 -9 9v687q0 10 9 10h110q9 0 9 -10v-165q0 -68 -3 -119h19q25 0 136 134q100 118 133 152q8 8 16 8h128q8 0 8 -11q0 -8 -5 -11q-35 -19 -182 -181q-97 -103 -123 -118q21 -8 145 -145q163 -183 209 -209q8 -4 8 -15
q0 -16 -9 -16h-137q-8 0 -18 8q-74 75 -162 183q-114 142 -147 142h-20q4 -48 4 -133zM437 -73l-76 -128q-5 -11 -15 -11h-50q-10 0 -8 11l33 132q4 10 11 10h97q6 0 8.5 -4t-0.5 -10z" />
    <glyph glyph-name="kcommaaccent" unicode="&#x137;" horiz-adv-x="513" 
d="M177 224q5 -43 5 -128v-87q0 -3 -3 -6t-6 -3h-95q-9 0 -9 9v687q0 10 9 10h95q9 0 9 -10v-296q0 -72 -5 -106h17q10 0 67.5 63.5t100.5 118.5q5 8 14 8h107q7 0 7 -8q0 -5 -4 -10q-24 -22 -70 -73l-81 -87.5t-48 -41.5q15 -7 106.5 -115.5t109.5 -120.5q7 -5 7 -14
q0 -14 -11 -14h-116q-7 0 -14 6q-17 21 -60.5 81t-74.5 98.5t-41 38.5h-16zM347 -73l-76 -128q-5 -11 -15 -11h-50q-10 0 -8 11l33 132q4 10 11 10h97q6 0 8.5 -4t-0.5 -10z" />
    <glyph glyph-name="Lacute" unicode="&#x139;" 
d="M213 95q98 5 179 5q31 0 87 0.5t86 0.5q8 0 8 -8l-10 -84q-2 -9 -9 -9h-456q-9 0 -9 9v687q0 10 9 10h110q9 0 9 -10v-442q0 -80 -4 -159zM330 900l-160 -139q-8 -8 -15 -8h-51q-4 0 -5.5 3t1.5 6l125 140q7 10 16 10h86q5 0 6 -4.5t-3 -7.5z" />
    <glyph glyph-name="lacute" unicode="&#x13a;" horiz-adv-x="251" 
d="M182 696v-687q0 -3 -3 -6t-6 -3h-95q-9 0 -9 9v687q0 10 9 10h95q9 0 9 -10zM290 900l-160 -139q-8 -8 -15 -8h-51q-4 0 -5.5 3t1.5 6l125 140q8 10 16 10h86q5 0 6 -4.5t-3 -7.5z" />
    <glyph glyph-name="Lcommaaccent" unicode="&#x13b;" 
d="M213 95q98 5 179 5q31 0 87 0.5t86 0.5q8 0 8 -8l-10 -84q-2 -9 -9 -9h-456q-9 0 -9 9v687q0 10 9 10h110q9 0 9 -10v-442q0 -80 -4 -159zM393 -73l-76 -128q-5 -11 -15 -11h-50q-10 0 -8 11l33 132q4 10 11 10h97q6 0 8.5 -4t-0.5 -10z" />
    <glyph glyph-name="lcommaaccent" unicode="&#x13c;" horiz-adv-x="251" 
d="M182 696v-687q0 -3 -3 -6t-6 -3h-95q-9 0 -9 9v687q0 10 9 10h95q9 0 9 -10zM192 -73l-76 -128q-6 -11 -15 -11h-50q-10 0 -8 11l33 132q4 10 11 10h97q6 0 8.5 -4t-0.5 -10z" />
    <glyph glyph-name="Lcaron" unicode="&#x13d;" 
d="M213 95q98 5 179 5q31 0 87 0.5t86 0.5q8 0 8 -8l-10 -84q-2 -9 -9 -9h-456q-9 0 -9 9v687q0 10 9 10h110q9 0 9 -10v-442q0 -80 -4 -159zM398 692l-34 -159q-2 -9 -10 -9h-41q-8 0 -8 9v163q0 4 3.5 7t7.5 3h74q13 0 8 -14z" />
    <glyph glyph-name="lcaron" unicode="&#x13e;" horiz-adv-x="251" 
d="M182 696v-687q0 -3 -3 -6t-6 -3h-95q-9 0 -9 9v687q0 10 9 10h95q9 0 9 -10zM330 692l-34 -159q-2 -9 -10 -9h-41q-8 0 -8 9v163q0 4 3.5 7t7.5 3h74q13 0 8 -14z" />
    <glyph glyph-name="Ldot" unicode="&#x13f;" 
d="M213 95q98 5 179 5q31 0 87 0.5t86 0.5q8 0 8 -8l-10 -84q-2 -9 -9 -9h-456q-9 0 -9 9v687q0 10 9 10h110q9 0 9 -10v-442q0 -80 -4 -159zM369 483q31 0 52 -20.5t21 -51.5t-21 -52.5t-52 -21.5t-52 21.5t-21 52.5t21 51.5t52 20.5z" />
    <glyph glyph-name="ldot" unicode="&#x140;" horiz-adv-x="305" 
d="M182 696v-687q0 -3 -3 -6t-6 -3h-95q-9 0 -9 9v687q0 10 9 10h95q9 0 9 -10zM293 456q26 0 44.5 -17.5t18.5 -43.5t-18.5 -45t-44.5 -19t-44 19t-18 45t18 43.5t44 17.5z" />
    <glyph glyph-name="Lslash" unicode="&#x141;" horiz-adv-x="578" 
d="M221 211q0 -52 -4 -116q98 5 180 5q31 0 87 0.5t86 0.5q8 0 7 -9l-10 -84q-2 -8 -8 -8h-456q-9 0 -9 9v150q0 70 3 102q-40 -29 -60 -40q-3 -1 -6 0.5t-3 4.5v68q0 9 8 13q11 7 32.5 17.5t28.5 14.5q-3 35 -3 103v254q0 10 9 10h110q9 0 9 -10v-186q0 -55 -3 -106
q115 75 184 114q3 2 6 0t3 -6v-73q0 -9 -9 -13q-73 -43 -185 -102q3 -33 3 -113z" />
    <glyph glyph-name="lslash" unicode="&#x142;" horiz-adv-x="257" 
d="M74 289q-38 -47 -55 -64q-3 -3 -6 -2t-3 4v78q0 9 7 16q10 12 31 31t26 24q-3 46 -3 92v228q0 10 9 10h95q9 0 9 -10v-146q0 -54 -3 -78q27 36 58 70q2 2 5.5 1.5t3.5 -4.5v-86q0 -8 -7 -15q-11 -12 -33.5 -34.5t-26.5 -27.5q3 -62 3 -121v-246q0 -3 -3 -6t-6 -3h-95
q-9 0 -9 9v188q0 49 3 92z" />
    <glyph glyph-name="Nacute" unicode="&#x143;" horiz-adv-x="790" 
d="M541 8l-272 454q-37 62 -70 154q8 -101 8 -181v-426q0 -3 -3 -6t-6 -3h-100q-9 0 -9 9v687q0 10 9 10h153q10 0 16 -10l248 -414q49 -81 78 -177q-9 97 -9 209v382q0 10 9 10h99q9 0 9 -10v-687q0 -3 -3 -6t-6 -3h-140q-7 0 -11 8zM563 900l-160 -139q-8 -8 -15 -8h-51
q-4 0 -5.5 3t1.5 6l125 140q8 10 16 10h86q4 0 5.5 -4.5t-2.5 -7.5z" />
    <glyph glyph-name="nacute" unicode="&#x144;" horiz-adv-x="577" 
d="M168 376q20 56 72.5 90.5t118.5 34.5q68 0 111.5 -42t43.5 -120v-330q0 -3 -3 -6t-6 -3h-95q-9 0 -9 9v299q0 102 -88 102q-54 0 -91.5 -37.5t-37.5 -102.5v-261q0 -3 -3 -6t-6 -3h-95q-9 0 -9 9v370q0 26 -2.5 48.5t-4.5 34.5t-2 13q0 9 8 9h82q7 0 9 -9q7 -51 7 -99z
M443 694l-147 -141q-11 -11 -22 -11h-45q-7 0 -8.5 4t2.5 9l113 141q8 10 16 10h88q4 0 5 -4.5t-2 -7.5z" />
    <glyph glyph-name="Ncommaaccent" unicode="&#x145;" horiz-adv-x="790" 
d="M541 8l-272 454q-37 62 -70 154q8 -101 8 -181v-426q0 -3 -3 -6t-6 -3h-100q-9 0 -9 9v687q0 10 9 10h153q10 0 16 -10l248 -414q49 -81 78 -177q-9 97 -9 209v382q0 10 9 10h99q9 0 9 -10v-687q0 -3 -3 -6t-6 -3h-140q-7 0 -11 8zM457 -73l-76 -128q-5 -11 -15 -11h-50
q-10 0 -8 11l33 132q4 10 11 10h97q6 0 8.5 -4t-0.5 -10z" />
    <glyph glyph-name="ncommaaccent" unicode="&#x146;" horiz-adv-x="577" 
d="M168 376q20 56 72.5 90.5t118.5 34.5q68 0 111.5 -42t43.5 -120v-330q0 -3 -3 -6t-6 -3h-95q-9 0 -9 9v299q0 102 -88 102q-54 0 -91.5 -37.5t-37.5 -102.5v-261q0 -3 -3 -6t-6 -3h-95q-9 0 -9 9v370q0 26 -2.5 48.5t-4.5 34.5t-2 13q0 9 8 9h82q7 0 9 -9q7 -51 7 -99z
M352 -73l-76 -128q-6 -11 -15 -11h-50q-10 0 -8 11l33 132q4 10 11 10h97q6 0 8.5 -4t-0.5 -10z" />
    <glyph glyph-name="Ncaron" unicode="&#x147;" horiz-adv-x="790" 
d="M541 8l-272 454q-37 62 -70 154q8 -101 8 -181v-426q0 -3 -3 -6t-6 -3h-100q-9 0 -9 9v687q0 10 9 10h153q10 0 16 -10l248 -414q49 -81 78 -177q-9 97 -9 209v382q0 10 9 10h99q9 0 9 -10v-687q0 -3 -3 -6t-6 -3h-140q-7 0 -11 8zM402 820l89 83q9 9 16 9h50q4 0 4.5 -3
t-1.5 -6l-123 -141q-7 -9 -16 -9h-47q-10 0 -17 9l-121 141q-4 9 5 9h55q6 0 16 -9z" />
    <glyph glyph-name="ncaron" unicode="&#x148;" horiz-adv-x="577" 
d="M168 376q20 56 72.5 90.5t118.5 34.5q68 0 111.5 -42t43.5 -120v-330q0 -3 -3 -6t-6 -3h-95q-9 0 -9 9v299q0 102 -88 102q-54 0 -91.5 -37.5t-37.5 -102.5v-261q0 -3 -3 -6t-6 -3h-95q-9 0 -9 9v370q0 26 -2.5 48.5t-4.5 34.5t-2 13q0 9 8 9h82q7 0 9 -9q7 -51 7 -99z
M296 611l82 86q10 9 17 9h51q3 0 4.5 -3t-0.5 -6l-115 -145q-7 -10 -16 -10h-53q-7 0 -17 10l-114 145q-2 3 -0.5 6t4.5 3h56q7 0 18 -9z" />
    <glyph glyph-name="napostrophe" unicode="&#x149;" horiz-adv-x="577" 
d="M168 376q20 56 72.5 90.5t118.5 34.5q68 0 111.5 -42t43.5 -120v-330q0 -3 -3 -6t-6 -3h-95q-9 0 -9 9v299q0 102 -88 102q-54 0 -91.5 -37.5t-37.5 -102.5v-261q0 -3 -3 -6t-6 -3h-95q-9 0 -9 9v370q0 26 -2.5 48.5t-4.5 34.5t-2 13q0 9 8 9h82q7 0 9 -9q7 -51 7 -99z
M175 692l-34 -159q-2 -9 -10 -9h-41q-8 0 -8 9v163q0 4 3.5 7t7.5 3h74q13 0 8 -14z" />
    <glyph glyph-name="Eng" unicode="&#x14a;" horiz-adv-x="790" 
d="M541 8l-272 454q-37 62 -70 154q8 -101 8 -181v-426q0 -3 -3 -6t-6 -3h-100q-9 0 -9 9v687q0 10 9 10h153q10 0 16 -10l248 -414q49 -81 78 -177q-9 97 -9 209v382q0 10 9 10h99q9 0 9 -10v-685v-2q0 -2 -112 -241q-4 -12 -12 -12h-59q-13 0 -9 12l57 232h-14q-7 0 -11 8
z" />
    <glyph glyph-name="eng" unicode="&#x14b;" horiz-adv-x="577" 
d="M168 376q20 56 72.5 90.5t118.5 34.5q68 0 111.5 -42t43.5 -120v-330q0 -3 -2 -5l-110 -236q-4 -12 -12 -12h-59q-13 0 -9 12l79 240v1v299q0 102 -88 102q-54 0 -91.5 -37.5t-37.5 -102.5v-261q0 -3 -3 -6t-6 -3h-95q-9 0 -9 9v370q0 26 -2.5 48.5t-4.5 34.5t-2 13
q0 9 8 9h82q7 0 9 -9q7 -51 7 -99z" />
    <glyph glyph-name="Omacron" unicode="&#x14c;" horiz-adv-x="834" 
d="M417 90q108 0 163.5 73.5t55.5 200.5q0 129 -59 195.5t-159 66.5q-101 0 -160.5 -66t-59.5 -196q0 -126 57 -200t162 -74zM417 729q150 0 255 -100t105 -265q0 -168 -101.5 -272.5t-258.5 -104.5q-153 0 -256.5 104.5t-103.5 272.5q0 163 105 264t255 101zM543 848v-57
q0 -7 -6 -7h-240q-6 0 -6 7v57q0 8 6 8h240q6 0 6 -8z" />
    <glyph glyph-name="omacron" unicode="&#x14d;" 
d="M287 501q119 0 183 -74.5t64 -179.5q0 -106 -64 -183t-183 -77q-118 0 -182.5 77t-64.5 183q0 104 64 179t183 75zM287 69q65 0 96 47.5t31 128.5q0 80 -31 126t-96 46q-127 0 -127 -172q0 -81 31 -128.5t96 -47.5zM412 643v-61q0 -7 -6 -7h-237q-6 0 -6 7v61q0 8 6 8
h237q6 0 6 -8z" />
    <glyph glyph-name="Obreve" unicode="&#x14e;" horiz-adv-x="834" 
d="M417 90q108 0 163.5 73.5t55.5 200.5q0 129 -59 195.5t-159 66.5q-101 0 -160.5 -66t-59.5 -196q0 -126 57 -200t162 -74zM417 729q150 0 255 -100t105 -265q0 -168 -101.5 -272.5t-258.5 -104.5q-153 0 -256.5 104.5t-103.5 272.5q0 163 105 264t255 101zM532 899
q5 0 5 -5q-1 -66 -33 -100.5t-87 -34.5q-54 0 -86 34t-33 102q0 4 6 4h53q6 0 6 -6q1 -65 56 -65q28 0 41.5 14t14.5 51q0 6 6 6h51z" />
    <glyph glyph-name="obreve" unicode="&#x14f;" 
d="M287 501q119 0 183 -74.5t64 -179.5q0 -106 -64 -183t-183 -77q-118 0 -182.5 77t-64.5 183q0 104 64 179t183 75zM287 69q65 0 96 47.5t31 128.5q0 80 -31 126t-96 46q-127 0 -127 -172q0 -81 31 -128.5t96 -47.5zM402 687q5 0 5 -6q0 -67 -32.5 -103t-87.5 -36
q-53 0 -85.5 36t-33.5 104q0 5 6 5h53q6 0 6 -6q0 -69 56 -69q28 0 41.5 16t14.5 53q0 6 6 6h51z" />
    <glyph glyph-name="Ohungarumlaut" unicode="&#x150;" horiz-adv-x="834" 
d="M417 90q108 0 163.5 73.5t55.5 200.5q0 129 -59 195.5t-159 66.5q-101 0 -160.5 -66t-59.5 -196q0 -126 57 -200t162 -74zM417 729q150 0 255 -100t105 -265q0 -168 -101.5 -272.5t-258.5 -104.5q-153 0 -256.5 104.5t-103.5 272.5q0 163 105 264t255 101zM462 900
l-138 -138q-9 -9 -14 -9h-42q-10 0 -4 10l106 139q8 10 14 10h75q4 0 5 -4.5t-2 -7.5zM627 900l-138 -138q-9 -9 -14 -9h-43q-10 0 -4 10l107 139q7 10 14 10h76q3 0 4 -4.5t-2 -7.5z" />
    <glyph glyph-name="ohungarumlaut" unicode="&#x151;" 
d="M287 501q119 0 183 -74.5t64 -179.5q0 -106 -64 -183t-183 -77q-118 0 -182.5 77t-64.5 183q0 104 64 179t183 75zM287 69q65 0 96 47.5t31 128.5q0 80 -31 126t-96 46q-127 0 -127 -172q0 -81 31 -128.5t96 -47.5zM331 694l-122 -143q-9 -9 -13 -9h-42q-10 0 -4 10
l95 144q8 10 12 10h72q3 0 4 -4.5t-2 -7.5zM476 694l-123 -143q-9 -9 -13 -9h-41q-5 0 -6.5 3t1.5 7l95 144q7 10 13 10h71q3 0 4 -4.5t-1 -7.5z" />
    <glyph glyph-name="OE" unicode="&#x152;" horiz-adv-x="1134" 
d="M518 0q-46 -13 -101 -13q-153 0 -256.5 104.5t-103.5 272.5q0 163 105.5 264t254.5 101q68 0 131 -23h534q6 0 7 -9l10 -82q0 -8 -7 -8q-30 0 -104.5 1t-102.5 1q-146 0 -211 5q90 -78 100 -204q39 4 107 4q25 0 61 1t47 1q7 0 7 -9v-80q0 -8 -7 -8q-12 0 -45.5 0.5
t-59.5 0.5q-53 0 -111 5q-3 -75 -31.5 -135.5t-78.5 -97.5q80 5 232 5q32 0 107.5 1t104.5 1q7 0 7 -9l-11 -82q-2 -8 -7 -8h-578zM417 90q108 0 163.5 73.5t55.5 200.5q0 129 -59 195.5t-159 66.5q-101 0 -160.5 -66t-59.5 -196q0 -126 57 -200t162 -74z" />
    <glyph glyph-name="oe" unicode="&#x153;" horiz-adv-x="877" 
d="M467 76q-60 -89 -179 -89t-183.5 77t-64.5 183q0 105 64.5 179.5t183.5 74.5q126 0 185 -94q65 94 183 94q96 0 144 -52.5t48 -146.5q0 -34 -31 -34h-293q-3 -18 -3 -44q0 -63 39.5 -104.5t109.5 -41.5q72 0 123 40q6 5 12 5q8 0 8 -12v-59q0 -14 -9 -20
q-55 -45 -153 -45q-123 0 -184 89zM288 69q64 0 95 47.5t31 128.5q0 172 -126 172q-127 0 -127 -172q0 -81 31 -128.5t96 -47.5zM752 333q0 43 -25 68.5t-72 25.5q-92 0 -122 -94h219z" />
    <glyph glyph-name="Racute" unicode="&#x154;" horiz-adv-x="675" 
d="M262 278q-17 0 -49 2q4 -82 4 -138v-133q0 -3 -3 -6t-6 -3h-110q-9 0 -9 9v684q0 13 9 13h231q122 0 182 -56.5t60 -146.5q0 -78 -58 -132.5t-139 -62.5q64 -15 189 -158q97 -109 115 -117q7 -3 7 -16q0 -17 -14 -17h-120q-22 0 -56 49l-36.5 45.5l-37.5 47l-34.5 42
t-35.5 39t-31.5 28.5t-31 20.5t-26.5 6.5zM309 612q-50 0 -95 3q3 -51 3 -138q0 -57 -3 -113q48 3 68 3q157 0 157 131q0 54 -32.5 84t-97.5 30zM463 900l-160 -139q-8 -8 -15 -8h-51q-4 0 -5.5 3t1.5 6l125 140q8 10 16 10h86q4 0 5.5 -4.5t-2.5 -7.5z" />
    <glyph glyph-name="racute" unicode="&#x155;" horiz-adv-x="402" 
d="M362 363q-18 0 -36.5 17.5t-46.5 17.5q-43 0 -68 -37.5t-25 -98.5v-253q0 -3 -3 -6t-6 -3h-96q-9 0 -9 9v370q0 26 -2 48.5t-4 34.5t-2 13q0 9 8 9h81q7 0 9 -9q7 -45 7 -106q18 60 58 96t92 36q46 0 68 -21.5t22 -55.5q0 -26 -12.5 -43.5t-34.5 -17.5zM378 694
l-147 -141q-11 -11 -22 -11h-45q-7 0 -8.5 4t2.5 9l113 141q7 10 16 10h88q4 0 5 -4.5t-2 -7.5z" />
    <glyph glyph-name="Rcommaaccent" unicode="&#x156;" horiz-adv-x="675" 
d="M262 278q-17 0 -49 2q4 -82 4 -138v-133q0 -3 -3 -6t-6 -3h-110q-9 0 -9 9v684q0 13 9 13h231q122 0 182 -56.5t60 -146.5q0 -78 -58 -132.5t-139 -62.5q64 -15 189 -158q97 -109 115 -117q7 -3 7 -16q0 -17 -14 -17h-120q-22 0 -56 49l-36.5 45.5l-37.5 47l-34.5 42
t-35.5 39t-31.5 28.5t-31 20.5t-26.5 6.5zM309 612q-50 0 -95 3q3 -51 3 -138q0 -57 -3 -113q48 3 68 3q157 0 157 131q0 54 -32.5 84t-97.5 30zM418 -73l-76 -128q-6 -11 -15 -11h-50q-10 0 -8 11l33 132q4 10 11 10h97q6 0 8.5 -4t-0.5 -10z" />
    <glyph glyph-name="rcommaaccent" unicode="&#x157;" horiz-adv-x="402" 
d="M362 363q-18 0 -36.5 17.5t-46.5 17.5q-43 0 -68 -37.5t-25 -98.5v-253q0 -3 -3 -6t-6 -3h-96q-9 0 -9 9v370q0 26 -2 48.5t-4 34.5t-2 13q0 9 8 9h81q7 0 9 -9q7 -45 7 -106q18 60 58 96t92 36q46 0 68 -21.5t22 -55.5q0 -26 -12.5 -43.5t-34.5 -17.5zM213 -73l-76 -128
q-5 -11 -15 -11h-50q-10 0 -8 11l33 132q4 10 11 10h97q6 0 8.5 -4t-0.5 -10z" />
    <glyph glyph-name="Rcaron" unicode="&#x158;" horiz-adv-x="675" 
d="M262 278q-17 0 -49 2q4 -82 4 -138v-133q0 -3 -3 -6t-6 -3h-110q-9 0 -9 9v684q0 13 9 13h231q122 0 182 -56.5t60 -146.5q0 -78 -58 -132.5t-139 -62.5q64 -15 189 -158q97 -109 115 -117q7 -3 7 -16q0 -17 -14 -17h-120q-22 0 -56 49l-36.5 45.5l-37.5 47l-34.5 42
t-35.5 39t-31.5 28.5t-31 20.5t-26.5 6.5zM309 612q-50 0 -95 3q3 -51 3 -138q0 -57 -3 -113q48 3 68 3q157 0 157 131q0 54 -32.5 84t-97.5 30zM310 820l89 83q9 9 16 9h50q4 0 4.5 -3t-1.5 -6l-123 -141q-7 -9 -16 -9h-47q-10 0 -17 9l-121 141q-4 9 5 9h55q6 0 16 -9z
" />
    <glyph glyph-name="rcaron" unicode="&#x159;" horiz-adv-x="402" 
d="M362 363q-18 0 -36.5 17.5t-46.5 17.5q-43 0 -68 -37.5t-25 -98.5v-253q0 -3 -3 -6t-6 -3h-96q-9 0 -9 9v370q0 26 -2 48.5t-4 34.5t-2 13q0 9 8 9h81q7 0 9 -9q7 -45 7 -106q18 60 58 96t92 36q46 0 68 -21.5t22 -55.5q0 -26 -12.5 -43.5t-34.5 -17.5zM244 611l82 86
q11 9 17 9h51q3 0 4.5 -3t-0.5 -6l-115 -145q-7 -10 -16 -10h-53q-7 0 -17 10l-114 145q-2 3 -0.5 6t4.5 3h56q7 0 18 -9z" />
    <glyph glyph-name="Sacute" unicode="&#x15a;" horiz-adv-x="577" 
d="M273 83q62 0 97.5 27t35.5 71q0 49 -34 73t-126 59q-88 32 -136 79.5t-48 125.5q0 87 67 149t184 62q104 0 179 -47q13 -8 13 -28v-87q0 -16 -14 -16q-7 0 -13 6q-71 70 -174 70q-55 0 -85.5 -27.5t-30.5 -68.5q0 -20 9 -37t19 -27t34 -22.5t37 -17.5l45 -17
q107 -38 154 -87t47 -127q0 -98 -71.5 -154.5t-183.5 -56.5q-71 0 -117.5 14t-91.5 45q-13 10 -13 27v70q0 18 12 18q7 0 14 -7q86 -69 191 -69zM450 900l-160 -139q-8 -8 -15 -8h-51q-4 0 -5.5 3t1.5 6l125 140q7 10 16 10h86q5 0 6 -4.5t-3 -7.5z" />
    <glyph glyph-name="sacute" unicode="&#x15b;" horiz-adv-x="432" 
d="M202 -13q-92 0 -148 40q-8 7 -8 18v59q0 14 8 14q6 0 14 -6q52 -45 130 -45q41 0 64 17t23 43q0 7 -1 13.5t-5 12l-7 9.5t-10.5 8.5l-12 7t-15.5 7t-16.5 6.5l-20 7t-21.5 7q-61 22 -95 55t-34 93q0 62 51 105t135 43q85 0 130 -36q20 -16 20 -39t-12.5 -37t-27.5 -14
q-16 0 -31 12q-39 30 -82 30q-36 0 -55.5 -17t-19.5 -42q0 -16 5.5 -27t21 -20t25.5 -13t37 -13q80 -27 115 -59t35 -91q0 -66 -53 -107t-139 -41zM367 694l-147 -141q-11 -11 -22 -11h-45q-7 0 -8.5 4t2.5 9l113 141q8 10 16 10h88q4 0 5 -4.5t-2 -7.5z" />
    <glyph glyph-name="Scircumflex" unicode="&#x15c;" horiz-adv-x="577" 
d="M273 83q62 0 97.5 27t35.5 71q0 49 -34 73t-126 59q-88 32 -136 79.5t-48 125.5q0 87 67 149t184 62q104 0 179 -47q13 -8 13 -28v-87q0 -16 -14 -16q-7 0 -13 6q-71 70 -174 70q-55 0 -85.5 -27.5t-30.5 -68.5q0 -20 9 -37t19 -27t34 -22.5t37 -17.5l45 -17
q107 -38 154 -87t47 -127q0 -98 -71.5 -154.5t-183.5 -56.5q-71 0 -117.5 14t-91.5 45q-13 10 -13 27v70q0 18 12 18q7 0 14 -7q86 -69 191 -69zM307 845l-89 -83q-10 -9 -16 -9h-50q-3 0 -4.5 1.5t-1.5 3.5t2 4l123 141q9 9 16 9h47q10 0 17 -9l121 -141q2 -3 0.5 -6
t-4.5 -3h-55q-7 0 -16 9z" />
    <glyph glyph-name="scircumflex" unicode="&#x15d;" horiz-adv-x="432" 
d="M202 -13q-92 0 -148 40q-8 7 -8 18v59q0 14 8 14q6 0 14 -6q52 -45 130 -45q41 0 64 17t23 43q0 7 -1 13.5t-5 12l-7 9.5t-10.5 8.5l-12 7t-15.5 7t-16.5 6.5l-20 7t-21.5 7q-61 22 -95 55t-34 93q0 62 51 105t135 43q85 0 130 -36q20 -16 20 -39t-12.5 -37t-27.5 -14
q-16 0 -31 12q-39 30 -82 30q-36 0 -55.5 -17t-19.5 -42q0 -16 5.5 -27t21 -20t25.5 -13t37 -13q80 -27 115 -59t35 -91q0 -66 -53 -107t-139 -41zM225 638l-82 -87q-11 -9 -18 -9h-51q-3 0 -4 3t1 6l114 145q10 10 16 10h54q8 0 16 -10l115 -145q2 -2 0 -5.5t-5 -3.5h-56
q-8 0 -17 9z" />
    <glyph glyph-name="Scedilla" unicode="&#x15e;" horiz-adv-x="577" 
d="M181 -236q-6 2 -6 9v36q0 6 7 5q26 -9 53 -9q63 0 63 50t-56 50q-9 0 -19 -4t-12 -4q-4 0 -8.5 7t-4.5 13q0 3 3 6l69 62q-67 1 -112 15t-89 44q-13 10 -13 27v70q0 18 12 18q7 0 14 -7q86 -69 191 -69q62 0 97.5 27t35.5 71q0 49 -34 73t-126 59q-88 32 -136 79.5
t-48 125.5q0 87 67 149t184 62q104 0 179 -47q13 -8 13 -28v-87q0 -16 -14 -16q-7 0 -13 6q-71 70 -174 70q-55 0 -85.5 -27.5t-30.5 -68.5q0 -20 9 -37t19 -27t34 -22.5t37 -17.5l45 -17q107 -38 154 -87t47 -127q0 -88 -57.5 -142.5t-151.5 -65.5l-51 -46h10
q48 0 74.5 -25t26.5 -61q0 -41 -32.5 -72t-90.5 -31q-40 0 -80 11z" />
    <glyph glyph-name="Scedilla" unicode="&#xf6c1;" horiz-adv-x="577" 
d="M181 -236q-6 2 -6 9v36q0 6 7 5q26 -9 53 -9q63 0 63 50t-56 50q-9 0 -19 -4t-12 -4q-4 0 -8.5 7t-4.5 13q0 3 3 6l69 62q-67 1 -112 15t-89 44q-13 10 -13 27v70q0 18 12 18q7 0 14 -7q86 -69 191 -69q62 0 97.5 27t35.5 71q0 49 -34 73t-126 59q-88 32 -136 79.5
t-48 125.5q0 87 67 149t184 62q104 0 179 -47q13 -8 13 -28v-87q0 -16 -14 -16q-7 0 -13 6q-71 70 -174 70q-55 0 -85.5 -27.5t-30.5 -68.5q0 -20 9 -37t19 -27t34 -22.5t37 -17.5l45 -17q107 -38 154 -87t47 -127q0 -88 -57.5 -142.5t-151.5 -65.5l-51 -46h10
q48 0 74.5 -25t26.5 -61q0 -41 -32.5 -72t-90.5 -31q-40 0 -80 11z" />
    <glyph glyph-name="scedilla" unicode="&#x15f;" horiz-adv-x="432" 
d="M103 -236q-6 2 -6 9v36q0 6 7 5q26 -9 53 -9q63 0 63 50t-56 50q-9 0 -19 -4t-12 -4q-4 0 -8.5 7t-4.5 13q0 3 3 6l71 64q-86 1 -140 40q-8 7 -8 18v59q0 14 8 14q6 0 14 -6q52 -45 130 -45q41 0 64 17t23 43q0 7 -1 13.5t-5 12l-7 9.5t-10.5 8.5l-12 7t-15.5 7
t-16.5 6.5l-20 7t-21.5 7q-61 22 -95 55t-34 93q0 62 51 105t135 43q85 0 130 -36q20 -16 20 -39t-12.5 -37t-27.5 -14q-16 0 -31 12q-39 30 -82 30q-36 0 -55.5 -17t-19.5 -42q0 -16 5.5 -27t21 -20t25.5 -13t37 -13q80 -27 115 -59t35 -91q0 -56 -39.5 -94.5t-105.5 -49.5
l-54 -49h10q48 0 74.5 -25t26.5 -61q0 -41 -32.5 -72t-90.5 -31q-40 0 -80 11z" />
    <glyph glyph-name="scedilla" unicode="&#xf6c2;" horiz-adv-x="432" 
d="M103 -236q-6 2 -6 9v36q0 6 7 5q26 -9 53 -9q63 0 63 50t-56 50q-9 0 -19 -4t-12 -4q-4 0 -8.5 7t-4.5 13q0 3 3 6l71 64q-86 1 -140 40q-8 7 -8 18v59q0 14 8 14q6 0 14 -6q52 -45 130 -45q41 0 64 17t23 43q0 7 -1 13.5t-5 12l-7 9.5t-10.5 8.5l-12 7t-15.5 7
t-16.5 6.5l-20 7t-21.5 7q-61 22 -95 55t-34 93q0 62 51 105t135 43q85 0 130 -36q20 -16 20 -39t-12.5 -37t-27.5 -14q-16 0 -31 12q-39 30 -82 30q-36 0 -55.5 -17t-19.5 -42q0 -16 5.5 -27t21 -20t25.5 -13t37 -13q80 -27 115 -59t35 -91q0 -56 -39.5 -94.5t-105.5 -49.5
l-54 -49h10q48 0 74.5 -25t26.5 -61q0 -41 -32.5 -72t-90.5 -31q-40 0 -80 11z" />
    <glyph glyph-name="Scaron" unicode="&#x160;" horiz-adv-x="577" 
d="M273 83q62 0 97.5 27t35.5 71q0 49 -34 73t-126 59q-88 32 -136 79.5t-48 125.5q0 87 67 149t184 62q104 0 179 -47q13 -8 13 -28v-87q0 -16 -14 -16q-7 0 -13 6q-71 70 -174 70q-55 0 -85.5 -27.5t-30.5 -68.5q0 -20 9 -37t19 -27t34 -22.5t37 -17.5l45 -17
q107 -38 154 -87t47 -127q0 -98 -71.5 -154.5t-183.5 -56.5q-71 0 -117.5 14t-91.5 45q-13 10 -13 27v70q0 18 12 18q7 0 14 -7q86 -69 191 -69zM318 820l89 83q9 9 16 9h50q4 0 4.5 -3t-1.5 -6l-123 -141q-7 -9 -16 -9h-47q-10 0 -17 9l-121 141q-4 9 5 9h55q6 0 16 -9z
" />
    <glyph glyph-name="scaron" unicode="&#x161;" horiz-adv-x="432" 
d="M202 -13q-92 0 -148 40q-8 7 -8 18v59q0 14 8 14q6 0 14 -6q52 -45 130 -45q41 0 64 17t23 43q0 7 -1 13.5t-5 12l-7 9.5t-10.5 8.5l-12 7t-15.5 7t-16.5 6.5l-20 7t-21.5 7q-61 22 -95 55t-34 93q0 62 51 105t135 43q85 0 130 -36q20 -16 20 -39t-12.5 -37t-27.5 -14
q-16 0 -31 12q-39 30 -82 30q-36 0 -55.5 -17t-19.5 -42q0 -16 5.5 -27t21 -20t25.5 -13t37 -13q80 -27 115 -59t35 -91q0 -66 -53 -107t-139 -41zM232 611l82 86q10 9 17 9h51q3 0 4.5 -3t-0.5 -6l-115 -145q-7 -10 -16 -10h-53q-7 0 -17 10l-114 145q-2 3 -0.5 6t4.5 3h56
q7 0 18 -9z" />
    <glyph glyph-name="Tcommaaccent" unicode="&#x162;" horiz-adv-x="614" 
d="M611 706q7 0 7 -8v-88q0 -7 -7 -7q-17 0 -55 1t-56 1q-72 0 -131 4q3 -56 3 -112v-488q0 -3 -3 -6t-6 -3h-109q-9 0 -9 9v490q0 57 3 110q-53 -4 -119 -4q-23 0 -63.5 -1t-63.5 -1q-9 0 -7 8l13 86q2 9 7 9h596zM371 -73l-76 -128q-5 -11 -15 -11h-50q-10 0 -8 11l33 132
q4 10 11 10h97q6 0 8.5 -4t-0.5 -10z" />
    <glyph glyph-name="Tcommaaccent" unicode="&#x21a;" horiz-adv-x="614" 
d="M611 706q7 0 7 -8v-88q0 -7 -7 -7q-17 0 -55 1t-56 1q-72 0 -131 4q3 -56 3 -112v-488q0 -3 -3 -6t-6 -3h-109q-9 0 -9 9v490q0 57 3 110q-53 -4 -119 -4q-23 0 -63.5 -1t-63.5 -1q-9 0 -7 8l13 86q2 9 7 9h596zM371 -73l-76 -128q-5 -11 -15 -11h-50q-10 0 -8 11l33 132
q4 10 11 10h97q6 0 8.5 -4t-0.5 -10z" />
    <glyph glyph-name="tcommaaccent" unicode="&#x163;" horiz-adv-x="337" 
d="M25 449q82 50 148 157q4 8 13 8q14 0 14 -12v-34q0 -34 -8 -88q54 4 109 4q7 0 7 -9v-68q0 -8 -7 -8q-64 0 -109 4q4 -41 4 -113v-131q0 -43 15 -60.5t48 -17.5q19 0 37 8q12 7 12 -6v-75q0 -8 -9 -10q-31 -7 -61 -7q-71 0 -113.5 43t-42.5 125v131q0 68 6 113
q-27 -4 -61 -4q-10 0 -10 24q0 21 8 26zM241 -73l-76 -128q-5 -11 -15 -11h-50q-10 0 -8 11l33 132q4 10 11 10h97q6 0 8.5 -4t-0.5 -10z" />
    <glyph glyph-name="tcommaaccent" unicode="&#x21b;" horiz-adv-x="337" 
d="M25 449q82 50 148 157q4 8 13 8q14 0 14 -12v-34q0 -34 -8 -88q54 4 109 4q7 0 7 -9v-68q0 -8 -7 -8q-64 0 -109 4q4 -41 4 -113v-131q0 -43 15 -60.5t48 -17.5q19 0 37 8q12 7 12 -6v-75q0 -8 -9 -10q-31 -7 -61 -7q-71 0 -113.5 43t-42.5 125v131q0 68 6 113
q-27 -4 -61 -4q-10 0 -10 24q0 21 8 26zM241 -73l-76 -128q-5 -11 -15 -11h-50q-10 0 -8 11l33 132q4 10 11 10h97q6 0 8.5 -4t-0.5 -10z" />
    <glyph glyph-name="Tcaron" unicode="&#x164;" horiz-adv-x="614" 
d="M611 706q7 0 7 -8v-88q0 -7 -7 -7q-17 0 -55 1t-56 1q-72 0 -131 4q3 -56 3 -112v-488q0 -3 -3 -6t-6 -3h-109q-9 0 -9 9v490q0 57 3 110q-53 -4 -119 -4q-23 0 -63.5 -1t-63.5 -1q-9 0 -7 8l13 86q2 9 7 9h596zM310 820l89 83q9 9 16 9h50q4 0 4.5 -3t-1.5 -6l-123 -141
q-7 -9 -16 -9h-47q-10 0 -17 9l-121 141q-4 9 5 9h55q6 0 16 -9z" />
    <glyph glyph-name="tcaron" unicode="&#x165;" horiz-adv-x="337" 
d="M25 449q82 50 148 157q4 8 13 8q14 0 14 -12v-34q0 -34 -8 -88q54 4 109 4q7 0 7 -9v-68q0 -8 -7 -8q-64 0 -109 4q4 -41 4 -113v-131q0 -43 15 -60.5t48 -17.5q19 0 37 8q12 7 12 -6v-75q0 -8 -9 -10q-31 -7 -61 -7q-71 0 -113.5 43t-42.5 125v131q0 68 6 113
q-27 -4 -61 -4q-10 0 -10 24q0 21 8 26zM356 692l-34 -159q-2 -9 -10 -9h-41q-8 0 -8 9v163q0 4 3.5 7t7.5 3h74q13 0 8 -14z" />
    <glyph glyph-name="Tbar" unicode="&#x166;" horiz-adv-x="614" 
d="M515 310v-77q0 -3 -3 -6t-6 -3h-134v-215q0 -3 -3 -6t-6 -3h-109q-9 0 -9 9v215h-138q-9 0 -9 9v77q0 10 9 10h138v179q0 57 3 110q-53 -4 -119 -4q-23 0 -63.5 -1t-63.5 -1q-9 0 -7 8l13 86q2 9 7 9h596q7 0 7 -8v-88q0 -7 -7 -7q-17 0 -55 1t-56 1q-72 0 -131 4
q3 -56 3 -112v-177h134q9 0 9 -10z" />
    <glyph glyph-name="tbar" unicode="&#x167;" horiz-adv-x="337" 
d="M311 290v-56q0 -6 -7 -6h-108v-69q0 -43 15 -60.5t48 -17.5q19 0 37 8q12 7 12 -6v-75q0 -8 -9 -10q-31 -7 -61 -7q-71 0 -113.5 43t-42.5 125v69h-59q-6 0 -6 6v56q0 7 6 7h59q0 63 6 106q-27 -4 -61 -4q-10 0 -10 24q0 21 8 26q82 50 148 157q4 8 13 8q14 0 14 -12v-34
q0 -34 -8 -88q54 4 109 4q7 0 7 -9v-68q0 -8 -7 -8q-64 0 -109 4q4 -40 4 -106h108q7 0 7 -7z" />
    <glyph glyph-name="Utilde" unicode="&#x168;" horiz-adv-x="765" 
d="M80 240v456q0 10 9 10h111q9 0 9 -10v-438q0 -75 46.5 -116t127.5 -41q84 0 131 39t47 115v441q0 10 9 10h107q9 0 9 -10v-457q0 -114 -84.5 -183t-218.5 -69q-132 0 -217.5 68.5t-85.5 184.5zM450 754q-29 0 -74.5 34t-67.5 34q-20 0 -32.5 -15t-12.5 -35q0 -11 -12 -11
q-29 0 -29 11q0 55 28.5 86t73.5 31q32 0 56.5 -15.5t44 -30.5t37.5 -15q17 0 30 13t13 36q0 10 9 10q30 0 30 -12q0 -56 -26 -88.5t-68 -32.5z" />
    <glyph glyph-name="utilde" unicode="&#x169;" horiz-adv-x="578" 
d="M410 109q-21 -57 -72.5 -89.5t-118.5 -32.5q-68 0 -112 42t-44 120v326q0 3 3 6t6 3h96q9 0 9 -9v-295q0 -102 88 -102q54 0 91.5 36.5t37.5 100.5v260q0 3 3 6t6 3h95q9 0 9 -9v-370q0 -26 2 -48.5t4 -34.5t2 -13q0 -9 -8 -9h-81q-7 0 -9 9q-7 51 -7 100zM356 550
q-29 0 -74.5 36.5t-67.5 36.5q-20 0 -32.5 -16t-12.5 -37q0 -13 -12 -13q-29 0 -29 13q0 59 28.5 92t74.5 33q31 0 56 -16.5t44 -32.5t37 -16q17 0 30 14t13 39q0 11 9 11q30 0 30 -13q0 -61 -26 -96t-68 -35z" />
    <glyph glyph-name="Umacron" unicode="&#x16a;" horiz-adv-x="765" 
d="M80 240v456q0 10 9 10h111q9 0 9 -10v-438q0 -75 46.5 -116t127.5 -41q84 0 131 39t47 115v441q0 10 9 10h107q9 0 9 -10v-457q0 -114 -84.5 -183t-218.5 -69q-132 0 -217.5 68.5t-85.5 184.5zM509 848v-57q0 -7 -6 -7h-240q-6 0 -6 7v57q0 8 6 8h240q6 0 6 -8z" />
    <glyph glyph-name="umacron" unicode="&#x16b;" horiz-adv-x="578" 
d="M410 109q-21 -57 -72.5 -89.5t-118.5 -32.5q-68 0 -112 42t-44 120v326q0 3 3 6t6 3h96q9 0 9 -9v-295q0 -102 88 -102q54 0 91.5 36.5t37.5 100.5v260q0 3 3 6t6 3h95q9 0 9 -9v-370q0 -26 2 -48.5t4 -34.5t2 -13q0 -9 -8 -9h-81q-7 0 -9 9q-7 51 -7 100zM414 643v-61
q0 -7 -6 -7h-237q-6 0 -6 7v61q0 8 6 8h237q6 0 6 -8z" />
    <glyph glyph-name="Ubreve" unicode="&#x16c;" horiz-adv-x="765" 
d="M80 240v456q0 10 9 10h111q9 0 9 -10v-438q0 -75 46.5 -116t127.5 -41q84 0 131 39t47 115v441q0 10 9 10h107q9 0 9 -10v-457q0 -114 -84.5 -183t-218.5 -69q-132 0 -217.5 68.5t-85.5 184.5zM498 899q5 0 5 -5q-1 -66 -33 -100.5t-87 -34.5q-54 0 -86 34t-33 102
q0 4 6 4h53q6 0 6 -6q1 -65 56 -65q28 0 41.5 14t14.5 51q0 6 6 6h51z" />
    <glyph glyph-name="ubreve" unicode="&#x16d;" horiz-adv-x="578" 
d="M410 109q-21 -57 -72.5 -89.5t-118.5 -32.5q-68 0 -112 42t-44 120v326q0 3 3 6t6 3h96q9 0 9 -9v-295q0 -102 88 -102q54 0 91.5 36.5t37.5 100.5v260q0 3 3 6t6 3h95q9 0 9 -9v-370q0 -26 2 -48.5t4 -34.5t2 -13q0 -9 -8 -9h-81q-7 0 -9 9q-7 51 -7 100zM404 687
q5 0 5 -6q0 -67 -32.5 -103t-87.5 -36q-53 0 -85.5 36t-33.5 104q0 5 6 5h53q6 0 6 -6q0 -69 56 -69q28 0 41.5 16t14.5 53q0 6 6 6h51z" />
    <glyph glyph-name="Uring" unicode="&#x16e;" horiz-adv-x="765" 
d="M80 240v456q0 10 9 10h111q9 0 9 -10v-438q0 -75 46.5 -116t127.5 -41q84 0 131 39t47 115v441q0 10 9 10h107q9 0 9 -10v-457q0 -114 -84.5 -183t-218.5 -69q-132 0 -217.5 68.5t-85.5 184.5zM383 733q-50 0 -83 26.5t-33 69.5t33.5 70.5t82.5 27.5q50 0 83 -27.5
t33 -70.5t-33 -69.5t-83 -26.5zM383 878q-55 0 -55 -51q0 -25 15.5 -38.5t39.5 -13.5q55 0 55 52q0 51 -55 51z" />
    <glyph glyph-name="uring" unicode="&#x16f;" horiz-adv-x="578" 
d="M410 109q-21 -57 -72.5 -89.5t-118.5 -32.5q-68 0 -112 42t-44 120v326q0 3 3 6t6 3h96q9 0 9 -9v-295q0 -102 88 -102q54 0 91.5 36.5t37.5 100.5v260q0 3 3 6t6 3h95q9 0 9 -9v-370q0 -26 2 -48.5t4 -34.5t2 -13q0 -9 -8 -9h-81q-7 0 -9 9q-7 51 -7 100zM289 728
q47 0 80.5 -29t33.5 -73q0 -45 -33 -72.5t-81 -27.5q-47 0 -80 27.5t-33 72.5q0 44 33 73t80 29zM289 678q-22 0 -36 -15t-14 -39q0 -23 14 -38.5t36 -15.5q23 0 37.5 15.5t14.5 38.5q0 24 -14.5 39t-37.5 15z" />
    <glyph glyph-name="Uhungarumlaut" unicode="&#x170;" horiz-adv-x="765" 
d="M80 240v456q0 10 9 10h111q9 0 9 -10v-438q0 -75 46.5 -116t127.5 -41q84 0 131 39t47 115v441q0 10 9 10h107q9 0 9 -10v-457q0 -114 -84.5 -183t-218.5 -69q-132 0 -217.5 68.5t-85.5 184.5zM448 900l-138 -138q-9 -9 -14 -9h-42q-10 0 -4 10l106 139q8 10 14 10h75
q4 0 5 -4.5t-2 -7.5zM613 900l-138 -138q-9 -9 -14 -9h-43q-10 0 -4 10l107 139q7 10 14 10h76q3 0 4 -4.5t-2 -7.5z" />
    <glyph glyph-name="uhungarumlaut" unicode="&#x171;" horiz-adv-x="578" 
d="M410 109q-21 -57 -72.5 -89.5t-118.5 -32.5q-68 0 -112 42t-44 120v326q0 3 3 6t6 3h96q9 0 9 -9v-295q0 -102 88 -102q54 0 91.5 36.5t37.5 100.5v260q0 3 3 6t6 3h95q9 0 9 -9v-370q0 -26 2 -48.5t4 -34.5t2 -13q0 -9 -8 -9h-81q-7 0 -9 9q-7 51 -7 100zM342 694
l-122 -143q-9 -9 -13 -9h-42q-10 0 -4 10l95 144q8 10 12 10h72q2 0 3.5 -4.5t-1.5 -7.5zM487 694l-123 -143q-9 -9 -13 -9h-41q-5 0 -6.5 3t1.5 7l95 144q8 10 13 10h71q3 0 4 -4.5t-1 -7.5z" />
    <glyph glyph-name="Uogonek" unicode="&#x172;" horiz-adv-x="765" 
d="M80 240v456q0 10 9 10h111q9 0 9 -10v-438q0 -75 46.5 -116t127.5 -41q84 0 131 39t47 115v441q0 10 9 10h107q9 0 9 -10v-457q0 -104 -71 -171t-187 -78q-67 -35 -67 -92q0 -26 15.5 -43t46.5 -17q19 0 48 9q7 1 7 -5v-48q0 -6 -6 -7q-39 -10 -78 -10q-52 0 -81.5 28.5
t-29.5 69.5q0 71 84 112q-126 5 -206.5 72.5t-80.5 180.5z" />
    <glyph glyph-name="uogonek" unicode="&#x173;" horiz-adv-x="578" 
d="M410 109q-21 -57 -72.5 -89.5t-118.5 -32.5q-68 0 -112 42t-44 120v326q0 3 3 6t6 3h96q9 0 9 -9v-295q0 -102 88 -102q54 0 91.5 36.5t37.5 100.5v260q0 3 3 6t6 3h95q9 0 9 -9v-370q0 -26 2 -48.5t4 -34.5t2 -13q0 -9 -8 -9h-13q-45 -16 -68.5 -44t-23.5 -58
q0 -26 15.5 -43t46.5 -17q20 0 48 9q7 1 7 -5v-48q0 -6 -6 -7q-39 -10 -78 -10q-52 0 -81.5 28.5t-29.5 69.5q0 40 30.5 73.5t87.5 51.5h-16q-7 0 -9 9q-7 51 -7 100z" />
    <glyph glyph-name="Wcircumflex" unicode="&#x174;" horiz-adv-x="1028" 
d="M516 571q-14 -99 -39 -185l-110 -377q-2 -9 -9 -9h-132q-6 0 -10 9l-211 681q-6 16 8 16h117q7 0 11 -10l115 -386q28 -94 46 -210q13 99 45 209l111 388q3 9 11 9h102q11 0 12 -9l109 -379q33 -116 47 -218q13 85 54 227l108 369q4 10 11 10h104q13 0 7 -16l-211 -681
q-2 -9 -9 -9h-127q-6 0 -10 9l-110 380q-24 81 -40 182zM511 845l-89 -83q-10 -9 -16 -9h-50q-3 0 -4.5 1.5t-1.5 3.5t2 4l123 141q9 9 16 9h47q10 0 17 -9l121 -141q2 -3 0.5 -6t-4.5 -3h-55q-7 0 -16 9z" />
    <glyph glyph-name="wcircumflex" unicode="&#x175;" horiz-adv-x="774" 
d="M348 484h92q8 0 10 -9l71 -243q25 -87 34 -149q13 76 34 147l72 245q2 9 10 9h92q10 0 6 -13l-155 -467q-4 -9 -9 -9h-107q-8 0 -9 9l-72 241q-20 67 -27 132q-11 -71 -29 -133l-74 -240q-3 -9 -10 -9h-107q-7 0 -10 9l-155 467q-4 13 7 13h99q7 0 11 -9l74 -246
q22 -71 34 -146q12 73 33 144l75 248q4 9 10 9zM384 638l-82 -87q-10 -9 -18 -9h-51q-3 0 -4 3t1 6l114 145q10 10 16 10h54q8 0 16 -10l115 -145q2 -2 0 -5.5t-5 -3.5h-56q-8 0 -17 9z" />
    <glyph glyph-name="Ycircumflex" unicode="&#x176;" horiz-adv-x="695" 
d="M409 301v-292q0 -3 -3 -6t-6 -3h-110q-9 0 -9 9v292l-287 389q-5 5 -4 10.5t9 5.5h124q11 0 18 -12l134 -182q45 -61 73 -125q31 67 74 124l137 183q8 12 22 12h112q7 0 9 -5t-3 -11zM343 845l-89 -83q-10 -9 -16 -9h-50q-3 0 -4.5 1.5t-1.5 3.5t2 4l123 141q9 9 16 9h47
q10 0 17 -9l121 -141q2 -3 0.5 -6t-4.5 -3h-55q-7 0 -16 9z" />
    <glyph glyph-name="ycircumflex" unicode="&#x177;" horiz-adv-x="487" 
d="M81 -215q-41 0 -66 10q-7 3 -7 19v67q0 13 9 13q2 0 10 -4q19 -13 44 -13q78 0 118 116l-189 477q-5 14 7 14h101q8 0 12 -9l86 -256q28 -87 40 -141q15 60 42 141l87 256q3 9 12 9h94q11 0 6 -13l-187 -492q-41 -107 -93.5 -150.5t-125.5 -43.5zM246 638l-82 -87
q-10 -9 -18 -9h-51q-3 0 -4 3t1 6l114 145q10 10 16 10h54q8 0 16 -10l115 -145q2 -2 0 -5.5t-5 -3.5h-56q-8 0 -17 9z" />
    <glyph glyph-name="Ydieresis" unicode="&#x178;" horiz-adv-x="695" 
d="M409 301v-292q0 -3 -3 -6t-6 -3h-110q-9 0 -9 9v292l-287 389q-5 5 -4 10.5t9 5.5h124q11 0 18 -12l134 -182q45 -61 73 -125q31 67 74 124l137 183q8 12 22 12h112q7 0 9 -5t-3 -11zM248 865q23 0 40 -16.5t17 -39.5t-17 -39t-40 -16t-40 16t-17 39t17 39.5t40 16.5z
M444 865q23 0 40 -16.5t17 -39.5t-17 -39t-40 -16t-39.5 16t-16.5 39t17 39.5t39 16.5z" />
    <glyph glyph-name="Zacute" unicode="&#x179;" horiz-adv-x="675" 
d="M633 674l-308 -439q-64 -89 -109 -142q97 6 207 6q28 0 99 1t99 1q5 0 8 -3.5t2 -7.5l-11 -81q-2 -9 -11 -9h-560q-5 0 -9.5 7t-4.5 15q0 7 5 13l315 440q69 97 105 135q-79 -6 -194 -6q-29 0 -95.5 -1t-96.5 -1q-10 0 -8 10l11 85q1 9 9 9h536q15 0 15 -18q0 -6 -4 -14z
M501 900l-160 -139q-8 -8 -15 -8h-51q-4 0 -5.5 3t1.5 6l125 140q8 10 16 10h86q4 0 5.5 -4.5t-2.5 -7.5z" />
    <glyph glyph-name="zacute" unicode="&#x17a;" horiz-adv-x="464" 
d="M434 86q12 0 10 -10l-8 -68q-1 -8 -11 -8h-387q-18 0 -18 21q0 10 7 18l212 285q38 51 61 77q-40 -2 -126 -2q-27 0 -69 -1t-58 -1q-11 0 -9 9l8 69q2 9 9 9h382q17 0 17 -22q0 -7 -5 -14l-208 -282q-46 -62 -66 -85q44 3 136 3q23 0 65.5 1t57.5 1zM401 694l-147 -141
q-11 -11 -22 -11h-45q-7 0 -8.5 4t2.5 9l113 141q8 10 16 10h88q4 0 5 -4.5t-2 -7.5z" />
    <glyph glyph-name="Zdotaccent" unicode="&#x17b;" horiz-adv-x="675" 
d="M633 674l-308 -439q-64 -89 -109 -142q97 6 207 6q28 0 99 1t99 1q5 0 8 -3.5t2 -7.5l-11 -81q-2 -9 -11 -9h-560q-5 0 -9.5 7t-4.5 15q0 7 5 13l315 440q69 97 105 135q-79 -6 -194 -6q-29 0 -95.5 -1t-96.5 -1q-10 0 -8 10l11 85q1 9 9 9h536q15 0 15 -18q0 -6 -4 -14z
M356 865q24 0 41.5 -17t17.5 -42q0 -24 -17.5 -39.5t-41.5 -15.5t-41.5 15.5t-17.5 39.5q0 25 17.5 42t41.5 17z" />
    <glyph glyph-name="zdotaccent" unicode="&#x17c;" horiz-adv-x="464" 
d="M434 86q12 0 10 -10l-8 -68q-1 -8 -11 -8h-387q-18 0 -18 21q0 10 7 18l212 285q38 51 61 77q-40 -2 -126 -2q-27 0 -69 -1t-58 -1q-11 0 -9 9l8 69q2 9 9 9h382q17 0 17 -22q0 -7 -5 -14l-208 -282q-46 -62 -66 -85q44 3 136 3q23 0 65.5 1t57.5 1zM243 669q23 0 40 -17
t17 -40t-17 -40t-40 -17t-40 17t-17 40t17 40t40 17z" />
    <glyph glyph-name="Zcaron" unicode="&#x17d;" horiz-adv-x="675" 
d="M633 674l-308 -439q-64 -89 -109 -142q97 6 207 6q28 0 99 1t99 1q5 0 8 -3.5t2 -7.5l-11 -81q-2 -9 -11 -9h-560q-5 0 -9.5 7t-4.5 15q0 7 5 13l315 440q69 97 105 135q-79 -6 -194 -6q-29 0 -95.5 -1t-96.5 -1q-10 0 -8 10l11 85q1 9 9 9h536q15 0 15 -18q0 -6 -4 -14z
M374 820l89 83q9 9 16 9h50q4 0 4.5 -3t-1.5 -6l-123 -141q-7 -9 -16 -9h-47q-10 0 -17 9l-121 141q-4 9 5 9h55q6 0 16 -9z" />
    <glyph glyph-name="zcaron" unicode="&#x17e;" horiz-adv-x="464" 
d="M434 86q12 0 10 -10l-8 -68q-1 -8 -11 -8h-387q-18 0 -18 21q0 10 7 18l212 285q38 51 61 77q-40 -2 -126 -2q-27 0 -69 -1t-58 -1q-11 0 -9 9l8 69q2 9 9 9h382q17 0 17 -22q0 -7 -5 -14l-208 -282q-46 -62 -66 -85q44 3 136 3q23 0 65.5 1t57.5 1zM262 611l82 86
q10 9 17 9h51q3 0 4.5 -3t-0.5 -6l-115 -145q-7 -10 -16 -10h-53q-7 0 -17 10l-114 145q-2 3 -0.5 6t4.5 3h56q7 0 18 -9z" />
    <glyph glyph-name="longs" unicode="&#x17f;" horiz-adv-x="280" 
d="M203 532v-523q0 -3 -3 -6t-6 -3h-96q-9 0 -9 9v281q0 65 5 113q-40 -4 -65 -4q-6 0 -6 8v68q0 9 6 9q33 0 65 -5q-5 30 -5 73q0 74 50.5 118.5t159.5 44.5q16 0 16 -16v-67q0 -11 -12 -11q-58 0 -79 -19.5t-21 -69.5z" />
    <glyph glyph-name="florin" unicode="&#x192;" horiz-adv-x="326" 
d="M199 537q0 -86 -4 -155q51 4 113 4q7 0 7 -9v-67q0 -8 -7 -8q-63 0 -110 4q5 -77 5 -114v-183q0 -3 -3 -6t-6 -3h-96q-9 0 -9 9v183q0 64 5 114q-27 -4 -65 -4q-6 0 -6 8v67q0 9 6 9q40 0 65 -4q-5 83 -5 170q0 74 50.5 118.5t159.5 44.5q16 0 16 -16v-67q0 -11 -12 -11
q-61 0 -82.5 -18.5t-21.5 -65.5z" />
    <glyph glyph-name="Scommaaccent" unicode="&#x218;" horiz-adv-x="577" 
d="M273 83q62 0 97.5 27t35.5 71q0 49 -34 73t-126 59q-88 32 -136 79.5t-48 125.5q0 87 67 149t184 62q104 0 179 -47q13 -8 13 -28v-87q0 -16 -14 -16q-7 0 -13 6q-71 70 -174 70q-55 0 -85.5 -27.5t-30.5 -68.5q0 -20 9 -37t19 -27t34 -22.5t37 -17.5l45 -17
q107 -38 154 -87t47 -127q0 -98 -71.5 -154.5t-183.5 -56.5q-71 0 -117.5 14t-91.5 45q-13 10 -13 27v70q0 18 12 18q7 0 14 -7q86 -69 191 -69zM351 -73l-76 -128q-5 -11 -15 -11h-50q-10 0 -8 11l33 132q4 10 11 10h97q6 0 8.5 -4t-0.5 -10z" />
    <glyph glyph-name="scommaaccent" unicode="&#x219;" horiz-adv-x="432" 
d="M202 -13q-92 0 -148 40q-8 7 -8 18v59q0 14 8 14q6 0 14 -6q52 -45 130 -45q41 0 64 17t23 43q0 7 -1 13.5t-5 12l-7 9.5t-10.5 8.5l-12 7t-15.5 7t-16.5 6.5l-20 7t-21.5 7q-61 22 -95 55t-34 93q0 62 51 105t135 43q85 0 130 -36q20 -16 20 -39t-12.5 -37t-27.5 -14
q-16 0 -31 12q-39 30 -82 30q-36 0 -55.5 -17t-19.5 -42q0 -16 5.5 -27t21 -20t25.5 -13t37 -13q80 -27 115 -59t35 -91q0 -66 -53 -107t-139 -41zM286 -73l-76 -128q-6 -11 -15 -11h-50q-10 0 -8 11l33 132q4 10 11 10h97q6 0 8.5 -4t-0.5 -10z" />
    <glyph glyph-name="circumflex" unicode="&#x2c6;" horiz-adv-x="477" 
d="M236 638l-82 -87q-10 -9 -18 -9h-51q-3 0 -4 3t1 6l114 145q10 10 16 10h54q8 0 16 -10l115 -145q2 -2 0 -5.5t-5 -3.5h-56q-8 0 -17 9z" />
    <glyph glyph-name="caron" unicode="&#x2c7;" horiz-adv-x="477" 
d="M242 611l82 86q10 9 17 9h51q3 0 4.5 -3t-0.5 -6l-115 -145q-7 -10 -16 -10h-53q-7 0 -17 10l-114 145q-2 3 -0.5 6t4.5 3h56q7 0 18 -9z" />
    <glyph glyph-name="breve" unicode="&#x2d8;" horiz-adv-x="399" 
d="M314 687q5 0 5 -6q0 -67 -32.5 -103t-87.5 -36q-53 0 -85.5 36t-33.5 104q0 5 6 5h53q6 0 6 -6q0 -69 56 -69q28 0 41.5 16t14.5 53q0 6 6 6h51z" />
    <glyph glyph-name="dotaccent" unicode="&#x2d9;" horiz-adv-x="274" 
d="M137 669q23 0 40 -17t17 -40t-17 -40t-40 -17t-40 17t-17 40t17 40t40 17z" />
    <glyph glyph-name="ring" unicode="&#x2da;" horiz-adv-x="384" 
d="M192 728q47 0 80.5 -29t33.5 -73q0 -45 -33 -72.5t-81 -27.5q-47 0 -80 27.5t-33 72.5q0 44 33 73t80 29zM192 678q-22 0 -36 -15t-14 -39q0 -23 14 -38.5t36 -15.5q23 0 37.5 15.5t14.5 38.5q0 24 -14.5 39t-37.5 15z" />
    <glyph glyph-name="ogonek" unicode="&#x2db;" horiz-adv-x="355" 
d="M250 0q-45 -16 -68.5 -44t-23.5 -58q0 -26 15.5 -43t46.5 -17q20 0 48 9q7 1 7 -5v-48q0 -6 -6 -7q-39 -10 -78 -10q-52 0 -81.5 28.5t-29.5 69.5q0 40 30.5 73.5t87.5 51.5h52z" />
    <glyph glyph-name="tilde" unicode="&#x2dc;" horiz-adv-x="482" 
d="M308 550q-29 0 -74.5 36.5t-67.5 36.5q-20 0 -32.5 -16t-12.5 -37q0 -13 -12 -13q-29 0 -29 13q0 59 28.5 92t74.5 33q31 0 56 -16.5t44 -32.5t37 -16q17 0 30 14t13 39q0 11 9 11q30 0 30 -13q0 -61 -26 -96t-68 -35z" />
    <glyph glyph-name="hungarumlaut" unicode="&#x2dd;" horiz-adv-x="483" 
d="M272 694l-122 -143q-9 -9 -13 -9h-42q-10 0 -4 10l95 144q8 10 12 10h72q2 0 3.5 -4.5t-1.5 -7.5zM417 694l-123 -143q-9 -9 -13 -9h-41q-5 0 -6.5 3t1.5 7l95 144q8 10 13 10h71q3 0 4 -4.5t-1 -7.5z" />
    <glyph glyph-name="Delta" unicode="&#x394;" horiz-adv-x="678" 
d="M-6 0l345 763l346 -763h-691zM339 566l-221 -490h444z" />
    <glyph glyph-name="Delta" unicode="&#x2206;" horiz-adv-x="678" 
d="M-6 0l345 763l346 -763h-691zM339 566l-221 -490h444z" />
    <glyph glyph-name="Omega" unicode="&#x3a9;" horiz-adv-x="829" 
d="M571 172q3 -15 3 -44q0 -25 -3 -46q41 3 147 3q7 0 7 -9l-7 -68q0 -8 -7 -8h-238q-7 0 -7 9v207q82 21 119 68.5t37 145.5q0 95 -54.5 149.5t-157.5 54.5q-100 0 -153 -58.5t-53 -155.5q0 -165 148 -204v-202q0 -14 -7 -14h-238q-7 0 -7 8l-6 68q0 9 6 9q108 0 151 -3
q-3 42 -3 47q0 1 3 43q-176 67 -176 248q0 128 89.5 218.5t244.5 90.5q163 0 252.5 -86.5t89.5 -214.5q0 -188 -180 -256z" />
    <glyph glyph-name="Omega" unicode="&#x2126;" horiz-adv-x="829" 
d="M571 172q3 -15 3 -44q0 -25 -3 -46q41 3 147 3q7 0 7 -9l-7 -68q0 -8 -7 -8h-238q-7 0 -7 9v207q82 21 119 68.5t37 145.5q0 95 -54.5 149.5t-157.5 54.5q-100 0 -153 -58.5t-53 -155.5q0 -165 148 -204v-202q0 -14 -7 -14h-238q-7 0 -7 8l-6 68q0 9 6 9q108 0 151 -3
q-3 42 -3 47q0 1 3 43q-176 67 -176 248q0 128 89.5 218.5t244.5 90.5q163 0 252.5 -86.5t89.5 -214.5q0 -188 -180 -256z" />
    <glyph glyph-name="pi" unicode="&#x3c0;" horiz-adv-x="654" 
d="M114 431q-47 -10 -73 -73l-28 18q17 69 63 112t115 43q60 0 164 -42.5t149 -42.5q44 0 66.5 17.5t35.5 58.5l30 -16q-12 -106 -94 -140q3 -38 3 -113v-244q0 -3 -3 -6t-6 -3h-91q-9 0 -9 9v251q0 56 4 99q-51 -1 -126.5 32t-96.5 35q3 -34 3 -96v-321q0 -3 -3 -6t-6 -3
h-91q-9 0 -9 9v319q0 70 3 103z" />
    <glyph glyph-name="afii10023" unicode="&#x401;" horiz-adv-x="587" 
d="M368 97q32 0 97 1t94 1q9 0 7 -9l-11 -82q-2 -8 -7 -8h-450q-9 0 -9 9v687q0 10 9 10h435q8 0 8 -9l10 -82q2 -8 -7 -8q-30 0 -106 1t-104 1q-78 0 -121 4q4 -47 4 -102q0 -57 -4 -102q52 5 118 5q25 0 61.5 1t48.5 1q7 0 7 -9v-80q0 -8 -7 -8q-11 0 -48 0.5t-63 0.5
q-64 0 -117 6q4 -52 4 -112q0 -68 -4 -120q74 3 155 3zM231 865q23 0 39.5 -16.5t16.5 -39.5t-16.5 -39t-39.5 -16t-40 16t-17 39t17 39.5t40 16.5zM427 865q23 0 39.5 -16.5t16.5 -39.5t-16.5 -39t-39.5 -16t-40 16t-17 39t17 39.5t40 16.5z" />
    <glyph glyph-name="afii10051" unicode="&#x402;" horiz-adv-x="768" 
d="M15 706h596q7 0 7 -8v-88q0 -7 -7 -7q-17 0 -55 1t-56 1q-72 0 -131 4q3 -56 3 -112v-103q58 90 170 90q177 0 177 -220q0 -187 -98 -429q-5 -9 -12 -9h-107q-6 0 -6 9q94 208 94 400q0 78 -20.5 116t-71.5 38q-52 0 -89 -36t-37 -95v-249q0 -3 -3 -6t-6 -3h-109
q-9 0 -9 9v490q0 57 3 110q-53 -4 -119 -4q-23 0 -63.5 -1t-63.5 -1q-7 0 -7 8l13 86q2 9 7 9z" />
    <glyph glyph-name="afii10052" unicode="&#x403;" horiz-adv-x="565" 
d="M495 900l-160 -139q-8 -8 -15 -8h-51q-4 0 -5.5 3t1.5 6l125 140q8 10 16 10h86q4 0 5.5 -4.5t-2.5 -7.5zM98 706h443q6 0 8 -8l11 -85q2 -7 -7 -7q-22 0 -91.5 1t-105.5 1q-107 0 -143 2q4 -45 4 -113v-488q0 -3 -3 -6t-6 -3h-110q-9 0 -9 9v687q0 10 9 10z" />
    <glyph glyph-name="afii10053" unicode="&#x404;" horiz-adv-x="672" 
d="M433 729q119 0 195 -52q13 -9 13 -29v-80q0 -17 -15 -17q-7 0 -13 6q-76 66 -181 66q-104 0 -165 -57t-72 -159q82 2 143 2q36 0 105 0.5t72 0.5q7 0 7 -9v-76q0 -8 -7 -8q-4 0 -74.5 0.5t-104.5 0.5q-101 0 -143 1q10 -109 73.5 -171t161.5 -62q110 0 186 60q8 6 13 6
q14 0 14 -16v-64q0 -17 -13 -26q-81 -59 -220 -59q-158 0 -254.5 103t-96.5 260q0 162 103 270.5t273 108.5z" />
    <glyph glyph-name="afii10054" unicode="&#x405;" horiz-adv-x="577" 
d="M273 83q62 0 97.5 27t35.5 71q0 49 -34 73t-126 59q-88 32 -136 79.5t-48 125.5q0 87 67 149t184 62q104 0 179 -47q13 -8 13 -28v-87q0 -16 -14 -16q-7 0 -13 6q-71 70 -174 70q-55 0 -85.5 -27.5t-30.5 -68.5q0 -20 9 -37t18.5 -27t34.5 -23t36.5 -17.5l45.5 -17.5
q107 -37 154 -86t47 -128q0 -98 -72 -154t-183 -56q-71 0 -117.5 14t-91.5 45q-13 10 -13 27v70q0 18 12 18q7 0 14 -7q86 -69 191 -69z" />
    <glyph glyph-name="afii10055" unicode="&#x406;" horiz-adv-x="306" 
d="M217 696v-687q0 -3 -3 -6t-6 -3h-110q-9 0 -9 9v687q0 10 9 10h110q9 0 9 -10z" />
    <glyph glyph-name="afii10056" unicode="&#x407;" horiz-adv-x="306" 
d="M217 696v-687q0 -3 -3 -6t-6 -3h-110q-9 0 -9 9v687q0 10 9 10h110q9 0 9 -10zM55 865q23 0 40 -16.5t17 -39.5t-17 -39t-40 -16t-39.5 16t-16.5 39t16.5 39.5t39.5 16.5zM251 865q23 0 40 -16.5t17 -39.5t-17 -39t-40 -16t-39.5 16t-16.5 39t16.5 39.5t39.5 16.5z" />
    <glyph glyph-name="afii10057" unicode="&#x408;" horiz-adv-x="328" 
d="M109 -37v733q0 10 9 10h109q9 0 9 -10v-729q3 -95 -49.5 -139t-133.5 -44q-54 0 -88 17q-9 5 -9 20v72q0 12 11 12q4 0 12 -4q22 -11 52 -11q34 0 56 18t22 55z" />
    <glyph glyph-name="afii10058" unicode="&#x409;" horiz-adv-x="1111" 
d="M213 706h450q9 0 9 -10v-125q0 -61 -4 -129q60 4 141 4q121 0 187 -57.5t66 -162.5q0 -102 -65.5 -164t-181.5 -62h-262q-9 0 -9 11v417q0 97 4 176q-87 -3 -117 -3q-16 0 -112 3q0 -617 -262 -617q-31 0 -50 8q-7 3 -7 10v102q0 6 5 6q3 0 8 -3q17 -9 46 -9
q66 0 105.5 163.5t39.5 432.5q0 9 9 9zM668 357q4 -55 4 -129q0 -55 -4 -139q66 3 131 3q131 0 131 139q0 62 -35 92.5t-99 30.5q-77 0 -128 3z" />
    <glyph glyph-name="afii10059" unicode="&#x40a;" horiz-adv-x="1085" 
d="M98 706h110q9 0 9 -10v-144q0 -65 -3 -125q47 3 101 3h105q55 0 101 -3q-3 60 -3 125v144q0 10 9 10h110q9 0 9 -10v-125q0 -61 -4 -129q60 4 141 4q121 0 187.5 -57.5t66.5 -162.5q0 -102 -66 -164t-182 -62h-262q-9 0 -9 11v176q0 73 3 140q-40 -2 -99 -2h-109
q-59 0 -99 2q3 -67 3 -140v-178q0 -3 -3 -6t-6 -3h-110q-9 0 -9 9v687q0 10 9 10zM642 357q4 -55 4 -129q0 -55 -4 -139q66 3 132 3q130 0 130 139q0 62 -35 92.5t-99 30.5q-77 0 -128 3z" />
    <glyph glyph-name="afii10060" unicode="&#x40b;" horiz-adv-x="792" 
d="M611 706q7 0 7 -8v-88q0 -7 -7 -7q-17 0 -55 1t-56 1q-72 0 -131 4q3 -56 3 -112v-105q26 42 73.5 67t104.5 25q76 0 122.5 -43.5t46.5 -122.5v-309q0 -3 -3 -6t-6 -3h-110q-9 0 -9 9v279q0 101 -90 101q-52 0 -90.5 -37t-38.5 -99v-244q0 -3 -3 -6t-6 -3h-109q-9 0 -9 9
v490q0 57 3 110q-53 -4 -119 -4q-23 0 -63.5 -1t-63.5 -1q-9 0 -7 8l13 86q2 9 7 9h596z" />
    <glyph glyph-name="afii10061" unicode="&#x40c;" horiz-adv-x="710" 
d="M532 900l-160 -139q-8 -8 -15 -8h-51q-4 0 -5.5 3t1.5 6l125 140q8 10 16 10h86q5 0 6 -4.5t-3 -7.5zM98 706h110q9 0 9 -10v-165q0 -68 -3 -119h41q36 0 125 132q68 100 122 154q8 8 16 8h128q8 0 8 -11q0 -8 -5 -11q-48 -25 -153 -167q-85 -111 -129 -132
q58 -3 101.5 -46t82.5 -124q78 -158 136 -184q8 -5 8 -15q0 -16 -9 -16h-137q-11 0 -19 8q-44 47 -98 167q-39 88 -80 123t-96 35h-43q4 -48 4 -133v-191q0 -3 -3 -6t-6 -3h-110q-9 0 -9 9v687q0 10 9 10z" />
    <glyph glyph-name="afii10062" unicode="&#x40e;" horiz-adv-x="624" 
d="M450 895q6 0 6 -5q-1 -65 -38 -96.5t-94 -31.5q-56 0 -92.5 31.5t-37.5 97.5q0 4 6 4h67q6 0 6 -6q1 -72 53 -72q27 0 39.5 17t13.5 55q0 6 6 6h65zM9 706h118q9 0 13 -9l129 -269q36 -74 58 -145q16 56 53 143l116 271q3 9 13 9h107q11 0 6 -14l-228 -504
q-51 -111 -111.5 -156t-145.5 -45q-46 0 -71 10q-7 3 -7 19v83q0 13 8 13q6 0 11 -4q21 -13 48 -13q39 0 68.5 24.5t56.5 88.5l-248 484q-8 14 6 14z" />
    <glyph glyph-name="afii10145" unicode="&#x40f;" horiz-adv-x="781" 
d="M98 706h109q3 0 6 -3t3 -6v-399q0 -120 -3 -196q49 3 178 3q117 0 173 -3q-3 51 -3 196v399q0 9 9 9h108q3 0 6 -3t3 -6v-688q0 -9 -9 -9h-234l-13 -153q0 -9 -8 -9h-67q-8 0 -8 9l-13 153h-237q-9 0 -9 9v688q0 3 3 6t6 3z" />
    <glyph glyph-name="c0c" unicode="&#x410;" horiz-adv-x="655" 
d="M378 412q-39 116 -55 201q-18 -87 -56 -197q-28 -84 -48 -133q52 3 107 3q69 0 100 -2q-22 53 -48 128zM453 203q-63 -3 -130 -3q-65 0 -131 3q-20 -76 -65 -193q-4 -10 -11 -10h-105q-15 0 -9 16l249 681q5 9 10 9h129q8 0 12 -9l252 -681q5 -16 -9 -16h-114
q-8 0 -12 10q-47 125 -66 193z" />
    <glyph glyph-name="c0d" unicode="&#x411;" horiz-adv-x="666" 
d="M358 94q128 0 128 111q0 121 -159 121q-63 0 -114 3q4 -49 4 -119q0 -66 -4 -119q67 3 145 3zM98 706h434q6 0 8 -8l11 -85q2 -7 -7 -7q-17 0 -84 1.5t-97 1.5q-80 0 -150 4q4 -45 4 -101q0 -61 -4 -105q36 4 140 4q134 0 199 -57t65 -154q0 -93 -62.5 -146.5
t-173.5 -53.5h-283q-9 0 -9 9v687q0 10 9 10z" />
    <glyph glyph-name="c0e" unicode="&#x412;" horiz-adv-x="666" 
d="M381 0h-283q-9 0 -9 9v687q0 10 9 10h242q125 0 179.5 -48.5t54.5 -118.5q0 -60 -44 -102t-109 -57q80 -6 138 -60t58 -133q0 -87 -62.5 -137t-173.5 -50zM358 94q128 0 128 111q0 121 -159 121q-63 0 -114 3q4 -49 4 -119q0 -66 -4 -119q67 3 145 3zM443 513
q0 51 -30.5 75.5t-97.5 24.5q-55 0 -102 3q4 -48 4 -104q0 -61 -4 -105q36 4 87 4q143 0 143 102z" />
    <glyph glyph-name="afii10020" unicode="&#x413;" horiz-adv-x="565" 
d="M98 706h443q6 0 8 -8l11 -85q2 -7 -7 -7q-22 0 -91.5 1t-105.5 1q-107 0 -143 2q4 -45 4 -113v-488q0 -3 -3 -6t-6 -3h-110q-9 0 -9 9v687q0 10 9 10z" />
    <glyph glyph-name="afii10021" unicode="&#x414;" horiz-adv-x="787" 
d="M314 604q0 -118 -27.5 -266.5t-64.5 -233.5h327v324q0 97 4 176q-38 -3 -116 -3q-83 0 -123 3zM207 706h461q9 0 9 -9v-593h91q8 0 8 -8l-25 -270q-1 -12 -12 -12h-80q-9 0 -9 12l7 174h-510l8 -174q0 -12 -9 -12h-82q-11 0 -12 12l-26 270q0 8 8 8h77q40 96 63.5 264.5
t23.5 328.5q0 9 9 9z" />
    <glyph glyph-name="afii10022" unicode="&#x415;" horiz-adv-x="587" 
d="M368 97q32 0 97 1t94 1q9 0 7 -9l-11 -82q-2 -8 -7 -8h-450q-9 0 -9 9v687q0 10 9 10h435q8 0 8 -9l10 -82q2 -8 -7 -8q-30 0 -106 1t-104 1q-78 0 -121 4q4 -47 4 -102q0 -57 -4 -102q52 5 118 5q25 0 61.5 1t48.5 1q7 0 7 -9v-80q0 -8 -7 -8q-11 0 -48 0.5t-63 0.5
q-64 0 -117 6q4 -52 4 -112q0 -68 -4 -120q74 3 155 3z" />
    <glyph glyph-name="afii10024" unicode="&#x416;" horiz-adv-x="1045" 
d="M468 706h109q9 0 9 -10v-165q0 -85 -3 -119h31q33 0 119 132q66 102 116 154q6 8 15 8h120q8 0 8 -11q0 -8 -5 -11q-46 -25 -144 -167q-82 -112 -123 -132q57 -3 98 -46t78 -124q74 -159 127 -184q8 -5 8 -15q0 -16 -9 -16h-129q-8 0 -18 8q-42 49 -92 167
q-37 88 -76.5 123t-92.5 35h-31q3 -54 3 -133v-191q0 -3 -3 -6t-6 -3h-109q-3 0 -6 3t-3 6v191q0 79 3 133h-31q-53 0 -92.5 -35t-76.5 -123q-50 -118 -92 -167q-10 -8 -18 -8h-129q-9 0 -9 16q0 10 9 15q52 25 126 184q37 81 78 124t98 46q-42 21 -123 132
q-98 142 -144 167q-5 3 -5 11q0 11 8 11h120q9 0 15 -8q50 -52 116 -154q86 -132 119 -132h31q-3 34 -3 119v165q0 10 9 10z" />
    <glyph glyph-name="afii10025" unicode="&#x417;" horiz-adv-x="601" 
d="M285 729q126 0 189.5 -48.5t63.5 -127.5q0 -80 -57 -129.5t-155 -57.5q109 -3 167.5 -49.5t58.5 -131.5q0 -91 -72 -144.5t-214 -53.5q-143 0 -219 54q-9 6 -9 19v71q0 12 8 12q5 0 13 -6q74 -57 194 -57q81 0 125.5 31t44.5 91q0 67 -54 91t-185 24q-10 0 -10 10v59
q0 12 10 12q124 0 176 29.5t52 100.5q0 50 -34 77t-99 27q-101 0 -134 -62q-16 -24 -49 -24q-22 0 -36 12.5t-14 38.5q0 17 12 38t37.5 43t75 36.5t114.5 14.5z" />
    <glyph glyph-name="afii10026" unicode="&#x418;" horiz-adv-x="790" 
d="M98 706h99q9 0 9 -10v-382q0 -112 -9 -209q26 85 75 177l251 414q6 10 16 10h153q9 0 9 -10v-687q0 -9 -9 -9h-100q-3 0 -6 3t-3 6v426q0 80 8 181q-25 -70 -67 -154l-274 -454q-4 -8 -12 -8h-140q-3 0 -6 3t-3 6v687q0 10 9 10z" />
    <glyph glyph-name="afii10027" unicode="&#x419;" horiz-adv-x="790" 
d="M98 706h99q9 0 9 -10v-382q0 -112 -9 -209q26 85 75 177l251 414q6 10 16 10h153q9 0 9 -10v-687q0 -9 -9 -9h-100q-3 0 -6 3t-3 6v426q0 80 8 181q-25 -70 -67 -154l-274 -454q-4 -8 -12 -8h-140q-3 0 -6 3t-3 6v687q0 10 9 10zM523 895q6 0 6 -5q-1 -65 -38 -96.5
t-94 -31.5q-56 0 -93 31.5t-38 97.5q0 4 6 4h68q5 0 5 -6q1 -72 54 -72q51 0 52 72q0 6 7 6h65z" />
    <glyph glyph-name="afii10028" unicode="&#x41a;" horiz-adv-x="710" 
d="M98 706h110q9 0 9 -10v-165q0 -68 -3 -119h41q36 0 125 132q68 100 122 154q8 8 16 8h128q8 0 8 -11q0 -8 -5 -11q-48 -25 -153 -167q-85 -111 -129 -132q58 -3 101.5 -46t82.5 -124q78 -158 136 -184q8 -5 8 -15q0 -16 -9 -16h-137q-11 0 -19 8q-44 47 -98 167
q-39 88 -80 123t-96 35h-43q4 -48 4 -133v-191q0 -3 -3 -6t-6 -3h-110q-9 0 -9 9v687q0 10 9 10z" />
    <glyph glyph-name="afii10029" unicode="&#x41b;" horiz-adv-x="761" 
d="M213 706h450q9 0 9 -9v-688q0 -3 -3 -6t-6 -3h-110q-9 0 -9 9v419q0 97 4 176q-87 -3 -117 -3q-16 0 -112 3q0 -617 -262 -617q-31 0 -50 8q-7 3 -7 10v102q0 6 5 6q3 0 8 -3q17 -9 46 -9q66 0 105.5 163.5t39.5 432.5q0 9 9 9z" />
    <glyph glyph-name="afii10030" unicode="&#x41c;" horiz-adv-x="927" 
d="M729 609l-195 -600q-4 -9 -11 -9h-113q-8 0 -12 9l-198 600q6 -108 6 -190v-410q0 -3 -3 -6t-6 -3h-100q-8 0 -8 9v687q0 10 8 10h172q8 0 11 -10l146 -415q29 -92 45 -173q16 80 45 175l143 413q5 10 11 10h159q9 0 9 -10v-687q0 -3 -3 -6t-6 -3h-98q-9 0 -9 9v385
q0 126 7 215z" />
    <glyph glyph-name="afii10031" unicode="&#x41d;" horiz-adv-x="785" 
d="M466 427q54 0 100 -3q-2 40 -2 125v147q0 10 9 10h109q9 0 9 -10v-687q0 -3 -3 -6t-6 -3h-109q-9 0 -9 9v175q0 95 2 140q-40 -2 -98 -2h-155q-59 0 -99 2q3 -68 3 -140v-175q0 -3 -3 -6t-6 -3h-110q-9 0 -9 9v687q0 10 9 10h110q9 0 9 -10v-147q0 -65 -3 -125
q47 3 101 3h151z" />
    <glyph glyph-name="afii10032" unicode="&#x41e;" horiz-adv-x="834" 
d="M417 90q108 0 163.5 73.5t55.5 200.5q0 129 -59 195.5t-159 66.5q-101 0 -160.5 -66t-59.5 -196q0 -126 57 -200t162 -74zM417 729q150 0 255 -100t105 -265q0 -168 -101.5 -272.5t-258.5 -104.5q-153 0 -256.5 104.5t-103.5 272.5q0 163 105 264t255 101z" />
    <glyph glyph-name="afii10033" unicode="&#x41f;" horiz-adv-x="781" 
d="M98 706h580q9 0 9 -9v-688q0 -3 -3 -6t-6 -3h-108q-9 0 -9 9v326q0 218 3 269q-51 -3 -180 -3q-117 0 -171 3q3 -76 3 -269v-326q0 -3 -3 -6t-6 -3h-109q-3 0 -6 3t-3 6v688q0 9 9 9z" />
    <glyph glyph-name="afii10034" unicode="&#x420;" horiz-adv-x="616" 
d="M310 258q-60 0 -97 3q4 -47 4 -131v-121q0 -3 -3 -6t-6 -3h-110q-9 0 -9 9v684q0 13 9 13h223q124 0 190 -63.5t66 -160.5q0 -104 -69.5 -164t-197.5 -60zM297 350q147 0 147 131q0 60 -32.5 95.5t-100.5 35.5q-51 0 -97 3q3 -49 3 -130q0 -85 -3 -137q26 2 83 2z" />
    <glyph glyph-name="afii10035" unicode="&#x421;" horiz-adv-x="672" 
d="M408 -13q-158 0 -254.5 103t-96.5 260q0 162 103 270.5t273 108.5q119 0 195 -52q13 -9 13 -29v-85q0 -17 -15 -17q-5 0 -13 6q-77 67 -181 67q-115 0 -177.5 -71t-62.5 -192q0 -123 65 -194t171 -71q112 0 186 60q8 5 13 5q14 0 14 -16v-68q0 -17 -13 -26
q-81 -59 -220 -59z" />
    <glyph glyph-name="afii10036" unicode="&#x422;" horiz-adv-x="614" 
d="M611 706q7 0 7 -8v-88q0 -7 -7 -7q-17 0 -55 1t-56 1q-72 0 -131 4q3 -56 3 -112v-488q0 -3 -3 -6t-6 -3h-109q-9 0 -9 9v490q0 57 3 110q-53 -4 -119 -4q-23 0 -63.5 -1t-63.5 -1q-9 0 -7 8l13 86q2 9 7 9h596z" />
    <glyph glyph-name="afii10037" unicode="&#x423;" horiz-adv-x="624" 
d="M9 706h118q9 0 13 -9l129 -269q36 -74 58 -145q16 56 53 143l116 271q3 9 13 9h107q11 0 6 -14l-228 -504q-51 -111 -111.5 -156t-145.5 -45q-46 0 -71 10q-7 3 -7 19v83q0 13 8 13q6 0 11 -4q21 -13 48 -13q39 0 68.5 24.5t56.5 88.5l-248 484q-8 14 6 14z" />
    <glyph glyph-name="afii10038" unicode="&#x424;" horiz-adv-x="926" 
d="M408 706h110q9 0 9 -10q0 -49 -3 -100h107q124 0 190 -63.5t66 -157.5q0 -107 -69.5 -167t-198.5 -60q-18 0 -96 3q4 -70 4 -142q0 -3 -3 -6t-6 -3h-110q-3 0 -6 3t-3 6q0 72 4 142q-78 -3 -96 -3q-129 0 -198.5 60t-69.5 167q0 94 66 157.5t190 63.5h106q-2 34 -2 100
q0 10 9 10zM524 507q3 -51 3 -132q0 -83 -3 -138q39 3 82 3q148 0 148 131q0 61 -32.5 97t-100.5 36q-49 0 -97 3zM402 507q-48 -3 -97 -3q-68 0 -100.5 -36t-32.5 -97q0 -131 148 -131q42 0 82 -3q-3 37 -3 138q0 98 3 132z" />
    <glyph glyph-name="afii10039" unicode="&#x425;" horiz-adv-x="730" 
d="M432 354q78 -89 275 -341q4 -4 2 -8.5t-9 -4.5h-134q-10 0 -19 12q-101 134 -185 264q-88 -129 -194 -266q-7 -10 -16 -10h-121q-7 0 -8.5 5.5t3.5 11.5q196 247 273 331l-274 342q-5 6 -3 11t10 5h132q10 0 18 -12q114 -153 188 -268q73 110 193 268q9 12 21 12h121
q14 0 4 -15q-202 -253 -277 -337z" />
    <glyph glyph-name="afii10040" unicode="&#x426;" horiz-adv-x="791" 
d="M98 706h109q3 0 6 -3t3 -6v-360q0 -159 -3 -235q54 3 170 3q124 0 175 -3q-3 76 -3 235v360q0 9 9 9h109q3 0 6 -3t3 -6v-593h90q8 0 8 -8l-25 -270q-1 -12 -12 -12h-80q-11 0 -9 12l7 174h-563q-9 0 -9 9v688q0 3 3 6t6 3z" />
    <glyph glyph-name="afii10041" unicode="&#x427;" horiz-adv-x="743" 
d="M531 10q0 173 7 301q-25 -55 -91 -89t-152 -34q-93 0 -159 49.5t-66 142.5v317q0 3 4 6t7 3h108q9 0 9 -9v-298q0 -55 38.5 -80.5t99.5 -25.5q75 0 132.5 40t57.5 104v260q0 3 3 6t6 3h109q9 0 9 -9v-687q0 -10 -9 -10h-104q-9 0 -9 10z" />
    <glyph glyph-name="afii10042" unicode="&#x428;" horiz-adv-x="1124" 
d="M98 706h109q3 0 6 -3t3 -6v-360q0 -159 -3 -235q54 3 147 3q91 0 142 -3q-3 51 -3 235v360q0 9 9 9h108q3 0 6 -3t3 -6v-360q0 -181 -3 -235q56 3 148 3q91 0 142 -3q-3 51 -3 235v360q0 9 9 9h108q3 0 6 -3t3 -6v-688q0 -9 -9 -9h-928q-9 0 -9 9v688q0 3 3 6t6 3z" />
    <glyph glyph-name="afii10043" unicode="&#x429;" horiz-adv-x="1145" 
d="M98 706h109q3 0 6 -3t3 -6v-360q0 -159 -3 -235q54 3 147 3q91 0 142 -3q-3 51 -3 235v360q0 9 9 9h108q3 0 6 -3t3 -6v-360q0 -181 -3 -235q56 3 148 3q91 0 142 -3q-3 51 -3 235v360q0 9 9 9h108q3 0 6 -3t3 -6v-593h91q8 0 8 -8l-25 -270q-1 -12 -12 -12h-81
q-9 0 -9 12l8 174h-917q-9 0 -9 9v688q0 3 3 6t6 3z" />
    <glyph glyph-name="afii10044" unicode="&#x42a;" horiz-adv-x="778" 
d="M9 706h260q9 0 9 -10v-131q0 -55 -4 -123q60 4 141 4q120 0 186.5 -57.5t66.5 -162.5q0 -102 -65.5 -164t-181.5 -62h-262q-9 0 -9 11v600q-72 -8 -154 -8q-7 0 -7 8l13 87q2 8 7 8zM274 357q4 -55 4 -129q0 -55 -4 -139q66 3 131 3q131 0 131 139q0 62 -35.5 92.5
t-98.5 30.5q-77 0 -128 3z" />
    <glyph glyph-name="afii10045" unicode="&#x42b;" horiz-adv-x="908" 
d="M98 706h110q9 0 9 -10v-125q0 -84 -4 -129q60 4 142 4q120 0 186.5 -57.5t66.5 -162.5q0 -102 -66 -164t-182 -62h-262q-9 0 -9 11v685q0 10 9 10zM214 357q3 -62 3 -129q0 -76 -3 -139q65 3 131 3q130 0 130 139q0 62 -35 92.5t-99 30.5q-77 0 -127 3zM819 696v-687
q0 -3 -3 -6t-6 -3h-110q-9 0 -9 9v687q0 10 9 10h110q9 0 9 -10z" />
    <glyph glyph-name="afii10046" unicode="&#x42c;" horiz-adv-x="656" 
d="M98 706h110q9 0 9 -10v-125q0 -84 -4 -129q60 4 142 4q120 0 186.5 -57.5t66.5 -162.5q0 -102 -66 -164t-182 -62h-262q-9 0 -9 11v685q0 10 9 10zM214 357q3 -62 3 -129q0 -76 -3 -139q65 3 131 3q130 0 130 139q0 62 -35 92.5t-99 30.5q-77 0 -127 3z" />
    <glyph glyph-name="afii10047" unicode="&#x42d;" horiz-adv-x="672" 
d="M157 410q39 0 147.5 -2t171.5 -2q-10 103 -68.5 160t-162.5 57q-51 0 -101.5 -18t-84.5 -48q-7 -6 -14 -6q-15 0 -15 17v80q0 19 14 29q76 52 204 52q174 0 270.5 -94t96.5 -259q0 -159 -100.5 -274t-256.5 -115q-133 0 -214 59q-13 9 -13 26v64q0 16 14 16q5 0 13 -6
q76 -60 179 -60q98 0 163.5 63t76.5 172q-55 0 -164 -2t-156 -2q-7 0 -7 8v76q0 9 7 9z" />
    <glyph glyph-name="afii10048" unicode="&#x42e;" horiz-adv-x="1011" 
d="M98 706h109q9 0 9 -10v-148q0 -85 -2 -124q47 3 100 3h70q16 135 93 218.5t193 83.5q134 0 208.5 -102.5t74.5 -270.5t-76 -268.5t-214 -100.5q-123 0 -196.5 89t-84.5 246h-70q-58 0 -98 2q2 -45 2 -140v-175q0 -3 -3 -6t-6 -3h-109q-9 0 -9 9v687q0 10 9 10zM668 629
q-79 0 -119.5 -71.5t-40.5 -204.5q0 -130 41.5 -200t117.5 -70q77 0 117 68.5t40 201.5q0 276 -156 276z" />
    <glyph glyph-name="afii10049" unicode="&#x42f;" horiz-adv-x="674" 
d="M345 706h231q9 0 9 -13v-684q0 -9 -9 -9h-110q-3 0 -6 3t-3 6v133q0 56 4 138q-32 -2 -51 -2q-95 0 -187 -165q-30 -53 -72 -99q-14 -14 -27 -14h-120q-14 0 -14 17q0 12 7 16q45 25 107 117q50 73 96 112.5t99 45.5q-81 8 -138.5 61t-57.5 131q0 90 60.5 148t181.5 58z
M365 612q-65 0 -98 -30.5t-33 -84.5q0 -130 158 -130q20 0 68 -3q-3 56 -3 113q0 87 3 138q-46 -3 -95 -3z" />
    <glyph glyph-name="afii10065" unicode="&#x430;" horiz-adv-x="517" 
d="M338 249q-95 -7 -140.5 -38t-45.5 -77q0 -30 20 -47t50 -17q51 0 83.5 37t32.5 89v53zM257 501q192 0 192 -154q0 -31 -2.5 -103.5t-2.5 -98.5q0 -96 27 -119q7 -7 7 -14q0 -4 -4 -8t-8 -4h-56q-20 0 -29 19q-18 35 -20 87q-41 -119 -172 -119q-66 0 -105 35t-39 92
q0 79 76 132.5t217 62.5v32q0 77 -89 77q-59 0 -85 -34l-13 -16t-13.5 -10t-21.5 -5q-21 0 -34.5 12.5t-13.5 34.5q0 35 47 68t142 33z" />
    <glyph glyph-name="afii10066" unicode="&#x431;" horiz-adv-x="581" 
d="M299 415q-60 0 -93.5 -44.5t-33.5 -115.5q0 -87 31 -137t95 -50q62 0 87.5 43t25.5 124q0 180 -112 180zM312 636q-64 0 -106.5 -64.5t-50.5 -200.5q18 55 64 89t114 34q100 0 151.5 -67t51.5 -174q0 -116 -65 -191t-180 -75q-120 0 -182 87t-62 241q0 200 72 304
t202 104q29 0 85 -6t81 -6q4 0 7 -3.5t2 -7.5l-11 -72q-2 -12 -12 -12q-18 0 -67.5 10t-93.5 10z" />
    <glyph glyph-name="afii10067" unicode="&#x432;" horiz-adv-x="538" 
d="M303 484q85 0 125 -33.5t40 -81.5q0 -41 -29.5 -70t-77.5 -37q57 -4 95 -41t38 -89q0 -61 -42.5 -96.5t-121.5 -35.5h-252q-9 0 -9 9v465q0 10 9 10h225zM286 218q-79 0 -107 1q2 -22 2 -74q0 -54 -2 -73q11 0 59 0.5t66 0.5q79 0 79 71q0 74 -97 74zM281 411
q-54 0 -102 2q2 -18 2 -62q0 -45 -2 -66q32 2 94 2q84 0 84 64q0 60 -76 60z" />
    <glyph glyph-name="afii10068" unicode="&#x433;" horiz-adv-x="441" 
d="M84 484h342q6 0 8 -9l7 -77q0 -8 -7 -8q-37 0 -249 4q3 -39 3 -108v-277q0 -9 -9 -9h-94q-3 0 -6 3t-3 6v466q0 9 8 9z" />
    <glyph glyph-name="afii10069" unicode="&#x434;" horiz-adv-x="619" 
d="M249 396q-8 -192 -71 -308h219v162q0 60 4 146q-31 -3 -71 -3q-45 0 -81 3zM155 484h346q9 0 9 -9v-387h91q8 0 8 -8l-23 -227q-1 -12 -12 -12h-67q-9 0 -9 12l7 147h-399l8 -147q0 -12 -9 -12h-68q-11 0 -12 12l-25 227q0 8 8 8h74q64 121 64 387q0 9 9 9z" />
    <glyph glyph-name="afii10070" unicode="&#x435;" horiz-adv-x="510" 
d="M283 -13q-113 0 -178 71.5t-65 180.5q0 105 67.5 183.5t181.5 78.5q95 0 143.5 -52.5t48.5 -144.5q0 -36 -30 -36h-294q-4 -24 -4 -44q0 -62 40 -104t110 -42q72 0 123 40q5 5 11 5q8 0 8 -12v-59q0 -14 -8 -20q-55 -45 -154 -45zM385 333q0 42 -25.5 68t-71.5 26
q-93 0 -122 -94h219z" />
    <glyph glyph-name="afii10072" unicode="&#x436;" horiz-adv-x="751" 
d="M81 490q37 0 66.5 -20t47.5 -49t34 -58t34 -49t39 -20h22q-5 42 -5 106v74q0 10 9 10h95q9 0 9 -10v-74q0 -49 -5 -106h21q21 0 39.5 20t34.5 49t34 58t47.5 49t66.5 20q26 0 40.5 -14t14.5 -36q0 -23 -13 -38t-41 -15q-27 0 -49 -17.5t-34.5 -39t-30.5 -41.5t-37 -24
q32 -5 66 -38.5t57.5 -72l48.5 -77.5t39 -49q8 -5 8 -14q0 -14 -11 -14h-104q-16 0 -26 17q-13 18 -31.5 57.5l-32.5 70t-38.5 55t-52.5 24.5h-16q5 -58 5 -119v-96q0 -3 -3 -6t-6 -3h-95q-3 0 -6 3t-3 6v96q0 75 5 119h-17q-36 0 -63 -36t-52 -94t-39 -77q-11 -17 -26 -17
h-104q-11 0 -11 14q0 9 8 14q14 10 39 49l48.5 77.5t57.5 72t66 38.5q-19 4 -37 24t-31 41.5t-35 39t-48 17.5q-28 0 -41.5 15t-13.5 38q0 21 14.5 35.5t41.5 14.5z" />
    <glyph glyph-name="afii10073" unicode="&#x437;" horiz-adv-x="514" 
d="M234 -13q-106 0 -173 37q-7 4 -7 12v65q0 7 7 7q5 0 11 -3q62 -38 162 -38q118 0 118 72q0 39 -37 53.5t-138 14.5q-9 0 -9 6v61q0 9 8 9q95 0 128.5 16.5t33.5 57.5q0 64 -92 64q-83 0 -103 -48q-10 -23 -43 -23q-19 0 -32 11t-13 29q0 43 52.5 77t152.5 34
q91 0 141 -33t50 -93q0 -106 -138 -122q157 -6 157 -122q0 -70 -66 -107t-170 -37z" />
    <glyph glyph-name="afii10074" unicode="&#x438;" horiz-adv-x="609" 
d="M79 484h85q10 0 10 -10q0 -256 -9 -386q78 180 209 388q3 8 12 8h144q9 0 9 -10v-465q0 -9 -9 -9h-85q-3 0 -6 3t-3 6q0 260 6 398q-132 -249 -226 -399q-3 -8 -12 -8h-125q-3 0 -6 3t-3 6v465q0 10 9 10z" />
    <glyph glyph-name="afii10075" unicode="&#x439;" horiz-adv-x="609" 
d="M437 683q6 0 6 -5q-1 -67 -37.5 -99.5t-94.5 -32.5q-56 0 -92.5 32t-37.5 101q0 4 6 4h67q6 0 6 -6q1 -76 53 -76q27 0 39.5 17.5t13.5 58.5q0 6 6 6h65zM79 484h85q10 0 10 -10q0 -256 -9 -386q78 180 209 388q3 8 12 8h144q9 0 9 -10v-465q0 -9 -9 -9h-85q-3 0 -6 3
t-3 6q0 260 6 398q-132 -249 -226 -399q-3 -8 -12 -8h-125q-3 0 -6 3t-3 6v465q0 10 9 10z" />
    <glyph glyph-name="afii10076" unicode="&#x43a;" horiz-adv-x="521" 
d="M444 490q56 0 56 -50q0 -22 -13.5 -37.5t-40.5 -15.5q-39 0 -81 -46q-6 -7 -19.5 -24t-21 -25t-19.5 -16.5t-23 -10.5q45 -7 111 -90l41 -57l43 -59.5t29 -30.5q7 -6 7 -14q0 -14 -11 -14h-104q-16 0 -25 17q-11 14 -36.5 56t-36.5 58q-61 93 -107 93h-14q3 -74 3 -215
q0 -3 -3 -6t-6 -3h-95q-9 0 -9 9v465q0 10 9 10h95q9 0 9 -10q0 -114 -3 -180h20q20 0 36 13.5t43 52.5t35 49q60 81 131 81z" />
    <glyph glyph-name="afii10077" unicode="&#x43b;" horiz-adv-x="593" 
d="M163 484h352q9 0 9 -9v-466q0 -3 -3 -6t-6 -3h-94q-9 0 -9 9v241q0 88 4 145q-44 -4 -81 -4q-27 0 -77 4q-1 -59 -4.5 -106t-11.5 -95.5t-22 -84t-34 -64.5t-50 -43.5t-68 -14.5q-42 0 -61 8q-7 3 -7 10v90q0 6 5 6q3 0 8 -3q18 -10 47 -10q55 0 74.5 99t19.5 288
q0 9 9 9z" />
    <glyph glyph-name="afii10078" unicode="&#x43c;" horiz-adv-x="730" 
d="M78 484h153q9 0 12 -11l126 -365l125 367q2 9 11 9h147q9 0 9 -10v-465q0 -3 -3 -6t-6 -3h-89q-9 0 -9 9q0 269 6 387l-138 -390q0 -6 -7 -6h-100q-4 0 -8 6l-138 390q9 -152 9 -387q0 -3 -3 -6t-6 -3h-91q-9 0 -9 9v465q0 10 9 10z" />
    <glyph glyph-name="afii10079" unicode="&#x43d;" horiz-adv-x="586" 
d="M78 484h95q9 0 9 -10q0 -133 -2 -177q21 2 112 2q101 0 115 -2q-2 43 -2 177q0 10 9 10h95q9 0 9 -10v-465q0 -3 -3 -6t-6 -3h-95q-9 0 -9 9q0 158 2 206q-20 -2 -117 -2q-82 0 -110 2q2 -48 2 -206q0 -3 -3 -6t-6 -3h-95q-9 0 -9 9v465q0 10 9 10z" />
    <glyph glyph-name="afii10080" unicode="&#x43e;" 
d="M287 501q119 0 183 -74.5t64 -179.5q0 -106 -64 -183t-183 -77q-118 0 -182.5 77t-64.5 183q0 104 64 179t183 75zM287 69q65 0 96 47.5t31 128.5q0 80 -31 126t-96 46q-127 0 -127 -172q0 -81 31 -128.5t96 -47.5z" />
    <glyph glyph-name="afii10081" unicode="&#x43f;" horiz-adv-x="581" 
d="M78 484h426q9 0 9 -10v-465q0 -3 -3 -6t-6 -3h-96q-9 0 -9 9q0 354 2 389q-17 -2 -53 -2h-108q-38 0 -60 2q2 -35 2 -389q0 -3 -3 -6t-6 -3h-95q-9 0 -9 9v465q0 10 9 10z" />
    <glyph glyph-name="afii10082" unicode="&#x440;" horiz-adv-x="590" 
d="M64 475q0 9 9 9h80q7 0 9 -9q7 -37 7 -85q42 111 163 111q96 0 157 -73t61 -182q0 -108 -60.5 -183.5t-159.5 -75.5q-112 0 -149 89q6 -114 6 -271q0 -10 -9 -10h-96q-9 0 -9 10v545q0 32 -2.5 61t-4.5 45.5t-2 18.5zM187 290v-113q0 -50 27.5 -80.5t82.5 -30.5
q63 0 98 47.5t35 130.5q0 174 -133 174q-53 0 -81.5 -35t-28.5 -93z" />
    <glyph glyph-name="afii10083" unicode="&#x441;" horiz-adv-x="469" 
d="M407 368q-16 0 -35 15q-30 25 -72 25q-67 0 -106 -49.5t-39 -117.5q0 -79 42.5 -121.5t106.5 -42.5q69 0 113 37q6 6 10 6q10 0 10 -14v-55q0 -13 -8 -21q-55 -43 -140 -43q-114 0 -181.5 70.5t-67.5 179.5q0 105 73.5 184.5t194.5 79.5q76 0 118 -34q26 -19 26 -48
q0 -22 -12.5 -36.5t-32.5 -14.5z" />
    <glyph glyph-name="afii10084" unicode="&#x442;" horiz-adv-x="453" 
d="M283 9q0 -3 -3 -6t-6 -3h-95q-9 0 -9 9v277q0 69 3 108q-21 0 -80.5 -2t-85.5 -2q-8 0 -6 8l6 77q1 9 7 9h429q7 0 7 -9v-77q0 -8 -7 -8q-61 0 -163 4q3 -41 3 -108v-277z" />
    <glyph glyph-name="afii10085" unicode="&#x443;" horiz-adv-x="487" 
d="M81 -215q-41 0 -66 10q-7 3 -7 19v67q0 13 9 13q2 0 10 -4q19 -13 44 -13q78 0 118 116l-189 477q-5 14 7 14h101q8 0 12 -9l86 -256q28 -87 40 -141q18 72 41 141l88 256q3 9 12 9h94q11 0 6 -13l-186 -492q-41 -106 -94.5 -150t-125.5 -44z" />
    <glyph glyph-name="afii10086" unicode="&#x444;" horiz-adv-x="890" 
d="M397 706h96q9 0 9 -10q0 -177 -6 -291q47 96 155 96q94 0 146 -70.5t52 -184.5t-50.5 -186.5t-149.5 -72.5q-116 0 -153 89q6 -114 6 -271q0 -10 -9 -10h-96q-9 0 -9 10q0 157 6 271q-37 -89 -153 -89q-99 0 -150 72.5t-51 186.5t52.5 184.5t146.5 70.5q108 0 155 -96
q-6 114 -6 291q0 10 9 10zM612 418q-53 0 -81.5 -34.5t-28.5 -93.5v-113q0 -50 27.5 -80.5t82.5 -30.5q117 0 117 178q0 91 -29.5 132.5t-87.5 41.5zM277 418q-58 0 -87.5 -41.5t-29.5 -132.5q0 -84 29.5 -131t88.5 -47q55 0 82.5 30.5t27.5 80.5v113q0 59 -29 93.5
t-82 34.5z" />
    <glyph glyph-name="afii10087" unicode="&#x445;" horiz-adv-x="511" 
d="M129 484q9 0 16 -10q80 -109 113 -165q29 46 120 165q7 10 18 10h101q4 0 5.5 -4t-3.5 -9q-134 -167 -189 -222q49 -48 193 -236q5 -6 3.5 -9.5t-5.5 -3.5h-119q-9 0 -17 11q-70 96 -115 166q-27 -44 -119 -167q-8 -10 -15 -10h-104q-5 0 -6.5 3.5t2.5 9.5
q109 139 192 224q-70 76 -192 234q-4 6 -2 9.5t6 3.5h117z" />
    <glyph glyph-name="afii10088" unicode="&#x446;" horiz-adv-x="622" 
d="M78 484h95q3 0 6 -3t3 -6q0 -355 -2 -389q22 2 60 2h108q36 0 53 -2q-2 34 -2 389q0 9 9 9h96q3 0 6 -3t3 -6v-387h91q8 0 8 -8l-24 -227q-1 -12 -12 -12h-66q-9 0 -9 12l7 147h-430q-9 0 -9 10v465q0 9 9 9z" />
    <glyph glyph-name="afii10089" unicode="&#x447;" horiz-adv-x="581" 
d="M72 484h95q9 0 9 -9v-175q0 -101 89 -101q54 0 94 37.5t40 102.5v136q0 3 3 6t6 3h95q9 0 9 -9v-465q0 -10 -9 -10h-88q-9 0 -9 10q0 100 8 215q-21 -55 -72.5 -86t-122.5 -31q-70 0 -113 41.5t-43 119.5v206q0 3 3 6t6 3z" />
    <glyph glyph-name="afii10090" unicode="&#x448;" horiz-adv-x="866" 
d="M78 484h95q3 0 6 -3t3 -6q0 -355 -2 -389q22 2 61 2h84q36 0 53 -2q-2 34 -2 389q0 9 9 9h96q3 0 6 -3t3 -6q0 -355 -2 -389q22 2 60 2h84q37 0 54 -2q-2 34 -2 389q0 9 9 9h96q3 0 6 -3t3 -6v-465q0 -10 -9 -10h-711q-9 0 -9 10v465q0 9 9 9z" />
    <glyph glyph-name="afii10091" unicode="&#x449;" horiz-adv-x="907" 
d="M78 484h95q3 0 6 -3t3 -6q0 -355 -2 -389q22 2 61 2h84q36 0 53 -2q-2 34 -2 389q0 9 9 9h96q3 0 6 -3t3 -6q0 -355 -2 -389q22 2 60 2h84q37 0 54 -2q-2 34 -2 389q0 9 9 9h96q3 0 6 -3t3 -6v-387h91q8 0 8 -8l-23 -227q-1 -12 -12 -12h-67q-9 0 -9 12l8 147h-716
q-9 0 -9 10v465q0 9 9 9z" />
    <glyph glyph-name="afii10092" unicode="&#x44a;" horiz-adv-x="598" 
d="M231 252q2 -34 2 -94q0 -51 -2 -87q35 3 116 3q88 0 88 88t-95 88q-83 0 -109 2zM15 484h210q9 0 9 -10q0 -100 -3 -154q42 4 140 4q87 0 133.5 -46t46.5 -116q0 -69 -42.5 -115.5t-126.5 -46.5h-252q-9 0 -9 10v392q-62 -6 -114 -6q-7 0 -7 7l7 72q1 9 8 9z" />
    <glyph glyph-name="afii10093" unicode="&#x44b;" horiz-adv-x="739" 
d="M179 252q2 -34 2 -94q0 -51 -2 -87q34 3 116 3q88 0 88 88t-95 88q-83 0 -109 2zM78 484h95q9 0 9 -10q0 -100 -3 -154q42 4 140 4q87 0 133.5 -46t46.5 -116q0 -69 -42.5 -115.5t-126.5 -46.5h-252q-9 0 -9 10v464q0 10 9 10zM566 484h95q9 0 9 -10v-465q0 -3 -3 -6
t-6 -3h-95q-9 0 -9 9v465q0 10 9 10z" />
    <glyph glyph-name="afii10094" unicode="&#x44c;" horiz-adv-x="537" 
d="M288 250q-83 0 -109 2q2 -34 2 -94q0 -51 -2 -87q34 3 116 3q88 0 88 88t-95 88zM78 484h95q9 0 9 -10q0 -100 -3 -154q42 4 140 4q87 0 133.5 -46t46.5 -116q0 -69 -42.5 -115.5t-126.5 -46.5h-252q-9 0 -9 10v464q0 10 9 10z" />
    <glyph glyph-name="afii10095" unicode="&#x44d;" horiz-adv-x="471" 
d="M92 288q11 0 60.5 -1t62.5 -1q62 0 99 -2q-9 58 -44 93t-93 35q-48 0 -78 -24q-17 -16 -35 -16q-19 0 -32 13t-13 35q0 28 27 48q41 33 137 33q120 0 184 -70.5t64 -172.5q0 -113 -66.5 -192t-180.5 -79q-88 0 -141 43q-9 8 -9 21v49q0 13 10 13q4 0 11 -5
q43 -36 114 -36q58 0 98.5 38.5t47.5 107.5q-66 -2 -103 -2q-16 0 -63.5 -0.5t-56.5 -0.5t-9 8v56q0 9 9 9z" />
    <glyph glyph-name="afii10096" unicode="&#x44e;" horiz-adv-x="809" 
d="M78 484h95q9 0 9 -10q0 -133 -2 -177q21 2 68 2h72q13 87 70 144.5t152 57.5q110 0 168.5 -75t58.5 -182t-60 -182t-170 -75q-98 0 -154.5 63.5t-65.5 162.5h-73q-38 0 -66 2q2 -48 2 -206q0 -3 -3 -6t-6 -3h-95q-9 0 -9 9v465q0 10 9 10zM539 413q-61 0 -86.5 -44.5
t-25.5 -127.5q0 -80 28 -125t85 -45q111 0 111 170q0 172 -112 172z" />
    <glyph glyph-name="afii10097" unicode="&#x44f;" horiz-adv-x="543" 
d="M245 484h219q9 0 9 -10v-465q0 -9 -9 -9h-95q-3 0 -6 3t-3 6q0 132 3 174q-11 -2 -62 -2q-39 0 -77 -37.5t-68 -103.5q-15 -40 -42 -40h-101q-10 0 -10 15q0 12 6 15q20 9 59 69q33 53 66.5 81t76.5 34q-56 6 -96.5 39t-40.5 89q0 63 44.5 102.5t126.5 39.5zM268 408
q-79 0 -79 -78q0 -40 24 -59t75 -19q61 0 75 -2q-3 21 -3 70q0 57 3 90q-24 -2 -95 -2z" />
    <glyph glyph-name="afii10071" unicode="&#x451;" horiz-adv-x="510" 
d="M283 -13q-113 0 -178 71.5t-65 180.5q0 105 67.5 183.5t181.5 78.5q95 0 143.5 -52.5t48.5 -144.5q0 -36 -30 -36h-294q-4 -24 -4 -44q0 -62 40 -104t110 -42q72 0 123 40q5 5 11 5q8 0 8 -12v-59q0 -14 -8 -20q-55 -45 -154 -45zM385 333q0 42 -25.5 68t-71.5 26
q-93 0 -122 -94h219zM195 675q24 0 40.5 -17t16.5 -40t-16.5 -39.5t-40.5 -16.5q-23 0 -39.5 17t-16.5 39q0 23 16.5 40t39.5 17zM386 675q23 0 39.5 -17t16.5 -40q0 -22 -17 -39t-39 -17q-24 0 -40.5 16.5t-16.5 39.5t16.5 40t40.5 17z" />
    <glyph glyph-name="afii10099" unicode="&#x452;" horiz-adv-x="578" 
d="M24 644h45v52q0 10 9 10h96q9 0 9 -10q0 -7 -0.5 -24.5t-0.5 -27.5h87q6 0 6 -8v-53q0 -7 -6 -7h-88q-2 -127 -4 -172q26 44 70.5 70.5t101.5 26.5q89 0 129 -57.5t40 -167.5q0 -199 -98 -441q-4 -9 -12 -9h-96q-6 0 -6 9q94 208 94 418q0 78 -20.5 115.5t-71.5 37.5
t-88.5 -36t-37.5 -94v-267q0 -3 -3 -6t-6 -3h-95q-9 0 -9 9v567h-45q-6 0 -6 7v53q0 8 6 8z" />
    <glyph glyph-name="afii10100" unicode="&#x453;" horiz-adv-x="441" 
d="M430 694l-147 -141q-11 -11 -22 -11h-45q-7 0 -8.5 4t2.5 9l113 141q7 10 16 10h88q4 0 5 -4.5t-2 -7.5zM84 484h342q6 0 8 -9l7 -77q0 -8 -7 -8q-37 0 -249 4q3 -39 3 -108v-277q0 -9 -9 -9h-94q-3 0 -6 3t-3 6v466q0 9 8 9z" />
    <glyph glyph-name="afii10101" unicode="&#x454;" horiz-adv-x="471" 
d="M308 501q74 0 118 -32q26 -16 26 -47q0 -22 -12.5 -36t-32.5 -14q-18 0 -35 16q-30 24 -72 24q-57 0 -94 -35.5t-48 -91.5q66 2 99 2q18 0 67 0.5t55 0.5q10 0 10 -8v-56q0 -9 -9 -9q-13 0 -61 1t-59 1q-67 0 -105 1q6 -70 48 -108t101 -38q68 0 113 36q5 5 10 5
q10 0 10 -13v-49q0 -13 -8 -21q-55 -43 -140 -43q-114 0 -181.5 70.5t-67.5 179.5q0 105 73.5 184.5t194.5 79.5z" />
    <glyph glyph-name="afii10102" unicode="&#x455;" horiz-adv-x="432" 
d="M202 -13q-92 0 -148 40q-8 7 -8 18v59q0 14 8 14q6 0 14 -6q52 -45 130 -45q41 0 64 17t23 43q0 7 -1 13.5t-5 12l-7 9.5t-10.5 8.5l-12 7t-15.5 7t-16.5 6.5l-20 7t-21.5 7q-61 22 -95 55t-34 93q0 62 51 105t135 43q85 0 130 -36q20 -16 20 -39t-12.5 -37t-27.5 -14
q-16 0 -31 12q-39 30 -82 30q-36 0 -55.5 -17t-19.5 -42q0 -16 5.5 -27t21 -20t25.5 -13t37 -13q80 -27 115 -59t35 -91q0 -66 -53 -107t-139 -41z" />
    <glyph glyph-name="afii10103" unicode="&#x456;" horiz-adv-x="252" 
d="M183 474v-465q0 -3 -3 -6t-6 -3h-96q-9 0 -9 9v465q0 10 9 10h96q9 0 9 -10zM126 714q28 0 47.5 -19t19.5 -47q0 -27 -19.5 -45t-47.5 -18q-27 0 -46.5 18t-19.5 45q0 28 19.5 47t46.5 19z" />
    <glyph glyph-name="afii10104" unicode="&#x457;" horiz-adv-x="251" 
d="M31 675q24 0 40.5 -17t16.5 -40t-16.5 -39.5t-40.5 -16.5q-23 0 -39.5 17t-16.5 39q0 23 16.5 40t39.5 17zM222 675q23 0 39.5 -17t16.5 -40q0 -22 -17 -39t-39 -17q-24 0 -40.5 16.5t-16.5 39.5t16.5 40t40.5 17zM78 484h96q9 0 9 -10v-465q0 -3 -3 -6t-6 -3h-96
q-9 0 -9 9v465q0 10 9 10z" />
    <glyph glyph-name="afii10105" unicode="&#x458;" horiz-adv-x="254" 
d="M-35 -199q-8 4 -8 20v63q0 12 9 12q6 0 11 -4q17 -10 40 -10q24 0 40.5 15.5t16.5 47.5v529q0 10 9 10h95q9 0 9 -10v-509q0 -96 -43.5 -138.5t-106.5 -42.5q-42 0 -72 17zM131 714q27 0 46.5 -19t19.5 -47q0 -27 -19.5 -45t-46.5 -18q-28 0 -47.5 18t-19.5 45
q0 28 19.5 47t47.5 19z" />
    <glyph glyph-name="afii10106" unicode="&#x459;" horiz-adv-x="878" 
d="M630 250q-82 0 -110 2q2 -17 2 -94q0 -69 -2 -87q36 3 116 3q88 0 88 88t-94 88zM163 484h352q9 0 9 -10q0 -106 -4 -154q44 4 140 4q88 0 134.5 -46t46.5 -116q0 -69 -43 -115.5t-127 -46.5h-250q-9 0 -9 9v241q0 88 4 145q-44 -4 -81 -4q-27 0 -77 4q-1 -59 -4.5 -106
t-11.5 -95.5t-22 -84t-34 -64.5t-50 -43.5t-68 -14.5q-42 0 -61 8q-7 3 -7 10v90q0 6 5 6q3 0 8 -3q18 -10 47 -10q55 0 74.5 99t19.5 288q0 9 9 9z" />
    <glyph glyph-name="afii10107" unicode="&#x45a;" horiz-adv-x="872" 
d="M78 484h95q9 0 9 -10q0 -133 -2 -177q21 2 116 2q97 0 111 -2q-2 43 -2 177q0 10 9 10h95q9 0 9 -10q0 -100 -3 -154q42 4 140 4q87 0 133.5 -46t46.5 -116q0 -69 -43 -115.5t-127 -46.5h-251q-9 0 -9 9q0 158 2 206q-20 -2 -113 -2q-86 0 -114 2q2 -48 2 -206
q0 -3 -3 -6t-6 -3h-95q-9 0 -9 9v465q0 10 9 10zM515 252q1 -17 1 -94q0 -69 -1 -87q35 3 116 3q88 0 88 88t-95 88q-83 0 -109 2z" />
    <glyph glyph-name="afii10108" unicode="&#x45b;" horiz-adv-x="576" 
d="M78 706h88q9 0 9 -10v-52h97q6 0 6 -8v-51q0 -7 -6 -7h-99q-3 -116 -7 -201q20 57 72 90.5t118 33.5q68 0 112.5 -41.5t44.5 -119.5v-331q0 -3 -3 -6t-6 -3h-96q-9 0 -9 9v300q0 102 -89 102q-53 0 -90.5 -38t-37.5 -103v-261q0 -3 -3 -6t-6 -3h-95q-9 0 -9 9v569h-47
q-6 0 -6 7v51q0 8 6 8h47v52q0 10 9 10z" />
    <glyph glyph-name="afii10109" unicode="&#x45c;" horiz-adv-x="521" 
d="M444 490q56 0 56 -50q0 -22 -13.5 -37.5t-40.5 -15.5q-39 0 -81 -46q-6 -7 -19.5 -24t-21 -25t-19.5 -16.5t-23 -10.5q45 -7 111 -90l41 -57l43 -59.5t29 -30.5q7 -6 7 -14q0 -14 -11 -14h-104q-16 0 -25 17q-11 14 -36.5 56t-36.5 58q-61 93 -107 93h-14q3 -74 3 -215
q0 -3 -3 -6t-6 -3h-95q-9 0 -9 9v465q0 10 9 10h95q9 0 9 -10q0 -114 -3 -180h20q20 0 36 13.5t43 52.5t35 49q60 81 131 81zM433 694l-147 -141q-11 -11 -22 -11h-45q-7 0 -8.5 4t2.5 9l113 141q8 10 16 10h88q4 0 5 -4.5t-2 -7.5z" />
    <glyph glyph-name="afii10110" unicode="&#x45e;" horiz-adv-x="487" 
d="M374 683q6 0 6 -5q-1 -67 -37.5 -99.5t-94.5 -32.5q-56 0 -92.5 32t-37.5 101q0 4 6 4h67q6 0 6 -6q1 -76 53 -76q27 0 39.5 17.5t13.5 58.5q0 6 6 6h65zM81 -215q-41 0 -66 10q-7 3 -7 19v67q0 13 9 13q2 0 10 -4q19 -13 44 -13q78 0 118 116l-189 477q-5 14 7 14h101
q8 0 12 -9l86 -256q28 -87 40 -141q18 72 41 141l88 256q3 9 12 9h94q11 0 6 -13l-186 -492q-41 -106 -94.5 -150t-125.5 -44z" />
    <glyph glyph-name="afii10193" unicode="&#x45f;" horiz-adv-x="581" 
d="M78 484h95q9 0 9 -9q0 -355 -2 -389q18 2 111 2q88 0 110 -2q-2 34 -2 389q0 3 3 6t6 3h96q3 0 6 -3t3 -6v-465q0 -10 -9 -10h-161l-13 -153q0 -9 -8 -9h-62q-8 0 -8 9l-13 153h-161q-9 0 -9 10v465q0 9 9 9z" />
    <glyph glyph-name="afii10050" unicode="&#x490;" horiz-adv-x="572" 
d="M98 706h387l10 112q1 12 12 12h56q10 0 10 -12v-204q0 -8 -7 -8q-23 0 -98.5 1t-111.5 1q-107 0 -143 2q4 -45 4 -113v-488q0 -3 -3 -6t-6 -3h-110q-9 0 -9 9v687q0 10 9 10z" />
    <glyph glyph-name="afii10098" unicode="&#x491;" horiz-adv-x="443" 
d="M84 484h278l9 90q1 12 12 12h43q10 0 10 -12v-176q0 -8 -7 -8q-32 0 -244 4q3 -39 3 -108v-277q0 -9 -9 -9h-94q-3 0 -6 3t-3 6v466q0 9 8 9z" />
    <glyph glyph-name="endash" unicode="&#x2013;" horiz-adv-x="506" 
d="M462 310v-77q0 -3 -3 -6t-6 -3h-399q-9 0 -9 9v77q0 10 9 10h399q9 0 9 -10z" />
    <glyph glyph-name="emdash" unicode="&#x2014;" horiz-adv-x="726" 
d="M682 310v-77q0 -3 -3 -6t-6 -3h-619q-9 0 -9 9v77q0 10 9 10h619q9 0 9 -10z" />
    <glyph glyph-name="quoteleft" unicode="&#x2018;" horiz-adv-x="229" 
d="M33 523l95 227q4 11 11 11h49q5 0 7 -3.5t1 -7.5l-53 -230q-4 -10 -10 -10h-93q-4 0 -6.5 3.5t-0.5 9.5z" />
    <glyph glyph-name="quoteright" unicode="&#x2019;" horiz-adv-x="228" 
d="M199 750l-95 -228q-6 -11 -12 -11h-48q-11 0 -9 11l54 230q2 10 10 10h92q5 0 7.5 -3.5t0.5 -8.5z" />
    <glyph glyph-name="quotesinglbase" unicode="&#x201a;" horiz-adv-x="228" 
d="M196 117l-95 -228q-5 -11 -12 -11h-48q-11 0 -9 11l54 230q2 10 10 10h92q5 0 7.5 -3.5t0.5 -8.5z" />
    <glyph glyph-name="quotedblleft" unicode="&#x201c;" horiz-adv-x="413" 
d="M218 523l95 227q5 11 11 11h49q5 0 7 -3.5t1 -7.5l-53 -230q-4 -10 -11 -10h-92q-4 0 -6.5 3.5t-0.5 9.5zM33 523l95 227q6 11 11 11h48q13 0 9 -11l-53 -230q-2 -10 -10 -10h-93q-5 0 -7.5 3.5t0.5 9.5z" />
    <glyph glyph-name="quotedblright" unicode="&#x201d;" horiz-adv-x="411" 
d="M195 750l-95 -228q-6 -11 -12 -11h-48q-12 0 -8 11l53 230q2 10 10 10h93q4 0 6.5 -3.5t0.5 -8.5zM380 750l-95 -228q-5 -11 -12 -11h-48q-12 0 -8 11l52 230q4 10 11 10h92q5 0 7.5 -3.5t0.5 -8.5z" />
    <glyph glyph-name="quotedblbase" unicode="&#x201e;" horiz-adv-x="411" 
d="M195 117l-95 -228q-6 -11 -12 -11h-48q-12 0 -8 11l53 230q2 10 10 10h93q4 0 6.5 -3.5t0.5 -8.5zM380 117l-95 -228q-5 -11 -12 -11h-48q-12 0 -8 11l52 230q4 10 11 10h92q5 0 7.5 -3.5t0.5 -8.5z" />
    <glyph glyph-name="dagger" unicode="&#x2020;" horiz-adv-x="567" 
d="M234 482q-1 14 -4 90l-4 124q0 10 9 10h104q9 0 9 -10l-4 -124q-3 -77 -4 -90q24 2 71 2h125q9 0 9 -10v-64q0 -3 -3 -6t-6 -3h-127q-47 0 -69 2q2 -57 0 -114l-8 -485q0 -3 -3 -6t-6 -3h-71q-9 0 -9 9l-9 487q-2 57 0 112q-24 -2 -74 -2h-122q-9 0 -9 9v64q0 10 9 10
h125q49 0 71 -2z" />
    <glyph glyph-name="daggerdbl" unicode="&#x2021;" horiz-adv-x="572" 
d="M332 -196q0 -3 -3 -6t-6 -3h-71q-9 0 -9 9q0 15 -3.5 160t-2.5 158q-22 -2 -68 -2h-114q-8 0 -8 9v59q0 9 8 9h116q47 0 68 -1q-2 17 -5 108q-1 51 0 100q-24 -2 -74 -2h-122q-9 0 -9 9v63q0 10 9 10h125q49 0 71 -2q-1 14 -4 90l-4 124q0 10 9 10h104q9 0 9 -10l-4 -124
q-3 -77 -4 -90q24 2 71 2h125q9 0 9 -10v-63q0 -3 -3 -6t-6 -3h-127q-47 0 -69 2q1 -51 0 -101q-3 -91 -5 -107q23 1 68 1h115q9 0 9 -9v-59q0 -3 -3 -6t-6 -3h-117q-44 0 -64 2q1 -15 -2 -160t-3 -158z" />
    <glyph glyph-name="bullet" unicode="&#x2022;" horiz-adv-x="419" 
d="M210 97q-65 0 -111.5 46t-46.5 111q0 64 46.5 110.5t111.5 46.5q64 0 110.5 -46.5t46.5 -110.5q0 -65 -46.5 -111t-110.5 -46z" />
    <glyph glyph-name="ellipsis" unicode="&#x2026;" horiz-adv-x="806" 
d="M141 136q31 0 52 -21t21 -51q0 -31 -21 -52.5t-52 -21.5t-52 21.5t-21 52.5q0 30 21 51t52 21zM403 136q31 0 52 -21t21 -51q0 -31 -21 -52.5t-52 -21.5t-52 21.5t-21 52.5q0 30 21 51t52 21zM666 136q30 0 51 -21t21 -51q0 -31 -21 -52.5t-51 -21.5q-32 0 -53 21t-21 53
q0 30 21.5 51t52.5 21z" />
    <glyph glyph-name="perthousand" unicode="&#x2030;" horiz-adv-x="1285" 
d="M1062 -8q-81 0 -127 54t-46 127q0 84 57 138q47 44 119 44q83 0 128.5 -54t45.5 -128q0 -73 -47.5 -127t-129.5 -54zM1064 285q-41 0 -59 -26.5t-18 -88.5t19 -88.5t58 -26.5q40 0 59 25.5t19 89.5q0 62 -18.5 88.5t-59.5 26.5zM777 692l-579 -683q-6 -9 -14 -9h-87
q-7 0 -8.5 5t2.5 10l582 681q7 10 16 10h83q5 0 6.5 -5t-1.5 -9zM651 -8q-81 0 -127 54t-46 127q0 74 47 128t129 54q83 0 128 -54t45 -128q0 -73 -47 -127t-129 -54zM653 285q-41 0 -59 -26.5t-18 -88.5q0 -63 18.5 -89t58.5 -26t59 25.5t19 89.5q0 62 -18.5 88.5
t-59.5 26.5zM223 357q-82 0 -127.5 54t-45.5 128q0 73 46.5 127.5t128.5 54.5q83 0 128.5 -54t45.5 -128q0 -73 -47.5 -127.5t-128.5 -54.5zM224 650q-41 0 -58.5 -26t-17.5 -89q0 -62 18.5 -88.5t57.5 -26.5q40 0 59 25.5t19 89.5q0 62 -18.5 88.5t-59.5 26.5z" />
    <glyph glyph-name="guilsinglleft" unicode="&#x2039;" horiz-adv-x="392" 
d="M339 25l-289 194q-8 8 -8 29q0 23 8 29l288 192q5 4 9 2t4 -8v-39q0 -12 -9 -21l-177 -147l178 -164q8 -6 8 -17v-44q0 -5 -4 -6.5t-8 0.5z" />
    <glyph glyph-name="guilsinglright" unicode="&#x203a;" horiz-adv-x="392" 
d="M53 471l289 -194q9 -9 9 -29q0 -23 -9 -29l-287 -192q-13 -8 -13 6v39q0 12 9 21l176 147l-178 164q-7 6 -7 17v44q0 5 3.5 6.5t7.5 -0.5z" />
    <glyph glyph-name="fraction" unicode="&#x2044;" horiz-adv-x="568" 
d="M624 692l-571 -683q-6 -9 -14 -9h-86q-7 0 -8.5 5t2.5 10l574 681q7 10 16 10h82q5 0 7 -5t-2 -9z" />
    <glyph glyph-name="fraction" unicode="&#x2215;" horiz-adv-x="568" 
d="M624 692l-571 -683q-6 -9 -14 -9h-86q-7 0 -8.5 5t2.5 10l574 681q7 10 16 10h82q5 0 7 -5t-2 -9z" />
    <glyph glyph-name="Euro" unicode="&#x20ac;" horiz-adv-x="669" 
d="M407 -13q-115 0 -196.5 75t-104.5 188q-39 -3 -75 -3q-8 0 -8 12v50q0 9 11 9q13 0 64 -3q-1 11 -1 33q0 32 4 59q-50 -2 -70 -2q-8 0 -8 10v52q0 9 12 9q43 0 79 -2q34 112 114 183.5t205 71.5q104 0 167 -47q9 -6 9 -21v-84q0 -17 -13 -17q-6 0 -12 6q-57 62 -151 62
q-77 0 -128 -43t-73 -112q52 3 97 3h87q8 0 8 -11v-51q0 -9 -9 -9h-89q-54 0 -106 3q-4 -36 -4 -52t2 -42q48 4 102 4h96q8 0 8 -10v-51q0 -10 -9 -10h-91q-52 0 -95 4q20 -78 72 -123.5t126 -45.5q101 0 160 56q4 5 12 5q10 0 10 -17v-65q0 -15 -10 -22q-67 -52 -192 -52z
" />
    <glyph glyph-name="afii61352" unicode="&#x2116;" horiz-adv-x="1227" 
d="M541 8l-275 454q-42 84 -67 154q8 -101 8 -181v-426q0 -3 -3 -6t-6 -3h-100q-9 0 -9 9v687q0 10 9 10h153q10 0 16 -10l251 -414q49 -92 75 -177q-9 97 -9 209v382q0 10 9 10h99q9 0 9 -10v-687q0 -3 -3 -6t-6 -3h-140q-7 0 -11 8zM983 334q-84 0 -136.5 54.5
t-52.5 138.5q0 81 52.5 137.5t139.5 56.5q85 0 134.5 -55.5t49.5 -138.5t-52 -138t-135 -55zM985 646q-47 0 -68 -29.5t-21 -91.5q0 -125 89 -125q45 0 64.5 29t19.5 96q0 63 -20 92t-64 29zM1168 196v-69q0 -3 -3 -6t-6 -3h-345q-9 0 -9 9v69q0 10 9 10h345q9 0 9 -10z" />
    <glyph glyph-name="trademark" unicode="&#x2122;" horiz-adv-x="758" 
d="M288 706q3 0 3 -4l3 -46q0 -4 -3 -4l-88 2v-202q0 -4 -4 -4h-59q-5 0 -5 4v202l-88 -2q-3 0 -3 4l3 46q0 4 3 4h238zM405 658l6 -206q0 -4 -5 -4h-55q-4 0 -4 4v250q0 4 4 4h91q6 0 7 -4l60 -184l59 184q1 4 6 4h88q4 0 4 -4v-250q0 -4 -4 -4h-54q-5 0 -5 4l4 206
l-71 -206q0 -4 -4 -4h-50q-3 0 -5 4z" />
    <glyph glyph-name="estimated" unicode="&#x212e;" horiz-adv-x="727" 
d="M418 -12q-162 0 -261.5 98t-99.5 260t100 271.5t252 109.5q139 0 208.5 -79.5t69.5 -203.5q0 -51 -46 -51h-443q-5 -21 -5 -65q0 -96 67.5 -166t175.5 -70q106 0 174 54q8 7 17 7q11 0 11 -16v-65q0 -20 -12 -29q-31 -22 -88 -38.5t-120 -16.5zM562 478q0 70 -41 109
t-113 39t-126 -40.5t-72 -107.5h352z" />
    <glyph glyph-name="arrowleft" unicode="&#x2190;" horiz-adv-x="732" 
d="M174 198l186 -185q5 -5 2.5 -9t-9.5 -4h-91q-13 0 -20 7l-220 218q-9 9 -9 17q0 9 9 18l220 217q7 7 20 7h91q7 0 9.5 -4t-2.5 -9l-186 -183h515q9 0 9 -10v-71q0 -3 -3 -6t-6 -3h-515z" />
    <glyph glyph-name="arrowup" unicode="&#x2191;" horiz-adv-x="732" 
d="M312 524l-185 -186q-5 -5 -9 -2.5t-4 9.5v91q0 13 7 20l218 220q9 9 17 9q9 0 18 -9l217 -220q7 -7 7 -20v-91q0 -7 -4 -9.5t-9 2.5l-183 186v-515q0 -9 -10 -9h-71q-3 0 -6 3t-3 6v515z" />
    <glyph glyph-name="arrowright" unicode="&#x2192;" horiz-adv-x="732" 
d="M557 198h-514q-3 0 -6 3t-3 6v71q0 10 9 10h514l-185 183q-5 5 -2.5 9t9.5 4h91q13 0 20 -7l220 -217q9 -9 9 -18q0 -8 -9 -17l-220 -218q-7 -7 -20 -7h-91q-7 0 -9.5 4t2.5 9z" />
    <glyph glyph-name="arrowdown" unicode="&#x2193;" horiz-adv-x="732" 
d="M333 -39v514q0 3 3 6t6 3h71q10 0 10 -9v-514l183 185q4 5 8.5 2.5t4.5 -9.5v-91q0 -13 -7 -20l-217 -220q-9 -9 -18 -9q-8 0 -17 9l-218 220q-7 7 -7 20v91q0 7 4.5 9.5t8.5 -2.5z" />
    <glyph glyph-name="partialdiff" unicode="&#x2202;" horiz-adv-x="575" 
d="M226 640q-40 0 -69 -18.5t-41 -18.5q-21 0 -35 16t-14 42q0 29 31 48.5t99 19.5q147 0 236.5 -115.5t89.5 -317.5q0 -139 -63 -224t-179 -85q-101 0 -164.5 70t-63.5 181q0 102 50 166t140 64q59 0 104 -30.5t65 -78.5q-13 136 -62 208.5t-124 72.5zM283 391
q-109 0 -109 -167q0 -156 105 -156q56 0 88 45.5t32 129.5q0 148 -116 148z" />
    <glyph glyph-name="product" unicode="&#x220f;" horiz-adv-x="654" 
d="M114 623q-47 -10 -73 -73l-28 18q18 69 63.5 112.5t114.5 43.5q60 0 164 -43t149 -43q44 0 66.5 17.5t35.5 58.5l30 -16q-12 -106 -94 -140q3 -38 3 -113v-436q0 -3 -3 -6t-6 -3h-91q-9 0 -9 9v443q0 56 4 99q-51 -1 -126.5 32t-96.5 35q3 -34 3 -96v-513q0 -3 -3 -6
t-6 -3h-91q-9 0 -9 9v511q0 70 3 103z" />
    <glyph glyph-name="summation" unicode="&#x2211;" horiz-adv-x="653" 
d="M416 354l-117 -165q-35 -50 -81 -96q95 7 224 7q28 0 85 1t86 1q12 0 10 -12l-12 -81q-1 -9 -10 -9h-546q-5 0 -10 5.5t-5 13.5q0 9 6 16l232 319l-230 314q-8 12 -8 20q0 18 16 18h527q9 0 10 -9l11 -83q0 -11 -9 -11q-27 0 -80.5 1t-81.5 1q-110 0 -207 7
q37 -38 61 -74z" />
    <glyph glyph-name="minus" unicode="&#x2212;" horiz-adv-x="501" 
d="M458 310v-77q0 -3 -3 -6t-6 -3h-399q-9 0 -9 9v77q0 10 9 10h399q9 0 9 -10z" />
    <glyph glyph-name="radical" unicode="&#x221a;" horiz-adv-x="721" 
d="M164 404q-78 -4 -144 -4q-6 0 -6 8v67q0 9 6 9h232q8 0 12 -9l89 -253q23 -63 38 -126q14 64 37 126l167 478q3 8 12 8h97q11 0 6 -13l-259 -690q-3 -8 -10 -8h-108q-7 0 -10 8z" />
    <glyph glyph-name="infinity" unicode="&#x221e;" horiz-adv-x="774" 
d="M386 216q-32 -135 -165 -135q-83 0 -134 71.5t-51 195.5q0 123 52.5 195t133.5 72q131 0 166 -142q34 142 163 142q81 0 134.5 -72t53.5 -195q0 -124 -52 -195.5t-134 -71.5q-134 0 -167 135zM234 173q90 0 111 173q-11 86 -37 128.5t-74 42.5q-47 0 -68 -42.5
t-21 -128.5q0 -173 89 -173zM541 173q89 0 89 173q0 87 -21 129t-69 42q-47 0 -72 -42t-38 -129q13 -90 38.5 -131.5t72.5 -41.5z" />
    <glyph glyph-name="approxequal" unicode="&#x2248;" horiz-adv-x="500" 
d="M339 301q-39 0 -98 38.5t-87 38.5q-26 0 -41.5 -17.5t-15.5 -39.5q0 -13 -16 -13q-38 0 -38 13q0 55 34.5 91t95.5 36q32 0 60 -11t44 -23.5t36 -23.5t39 -11q22 0 38.5 15.5t16.5 40.5q0 11 12 11q38 0 38 -13q0 -58 -32.5 -95t-85.5 -37zM339 125q-39 0 -98 38t-87 38
q-26 0 -41.5 -17t-15.5 -39q0 -13 -16 -13q-38 0 -38 13q0 55 34 90.5t96 35.5q41 0 73.5 -17t57.5 -34t48 -17q22 0 38.5 15t16.5 40q0 11 12 11q38 0 38 -13q0 -58 -32 -94.5t-86 -36.5z" />
    <glyph glyph-name="notequal" unicode="&#x2260;" horiz-adv-x="499" 
d="M338 321l-78 -117h189q9 0 9 -10v-70q0 -3 -3 -6t-6 -3h-250l-56 -83q-6 -9 -12 -9h-72q-4 0 -6 3.5t0 5.5l57 83h-60q-9 0 -9 9v70q0 10 9 10h121l78 117h-199q-9 0 -9 9v71q0 10 9 10h259l47 68q8 10 14 10h71q3 0 4.5 -3.5t-0.5 -6.5l-47 -68h51q9 0 9 -10v-71
q0 -3 -3 -6t-6 -3h-111z" />
    <glyph glyph-name="lessequal" unicode="&#x2264;" horiz-adv-x="507" 
d="M459 83v-74q0 -3 -3 -6t-6 -3h-396q-9 0 -9 9v74q0 10 9 10h396q9 0 9 -10zM431 153l-365 193q-10 6 -10 27q0 22 10 27l362 191q17 9 17 -5v-33q0 -12 -12 -19l-231 -154l234 -167q9 -8 9 -17v-38q0 -5 -4.5 -6.5t-9.5 1.5z" />
    <glyph glyph-name="greaterequal" unicode="&#x2265;" horiz-adv-x="507" 
d="M46 83q0 10 9 10h395q9 0 9 -10v-74q0 -9 -9 -9h-395q-3 0 -6 3t-3 6v74zM75 593l364 -193q10 -5 10 -27t-10 -27l-362 -191q-16 -9 -16 5v34q0 11 11 19l231 154l-233 167q-9 6 -9 17v37q0 5 4.5 6.5t9.5 -1.5z" />
    <glyph glyph-name="lozenge" unicode="&#x25ca;" horiz-adv-x="530" 
d="M268 -37l149 307l-154 311l-150 -306zM300 -159h-69l-214 429l214 433h69l214 -430z" />
    <glyph glyph-name="Acute" unicode="&#xf6c9;" horiz-adv-x="390" 
d="M321 900l-160 -139q-8 -8 -15 -8h-51q-4 0 -5.5 3t1.5 6l125 140q8 10 16 10h86q4 0 5.5 -4.5t-2.5 -7.5z" />
    <glyph glyph-name="Caron" unicode="&#xf6ca;" horiz-adv-x="490" 
d="M249 820l89 83q9 9 16 9h50q4 0 4.5 -3t-1.5 -6l-123 -141q-7 -9 -16 -9h-47q-9 0 -17 9l-121 141q-2 3 -0.5 6t5.5 3h55q5 0 16 -9z" />
    <glyph glyph-name="Dieresis" unicode="&#xf6cb;" horiz-adv-x="473" 
d="M140 865q23 0 40 -16.5t17 -39.5t-17 -39t-40 -16t-40 16t-17 39t17 39.5t40 16.5zM336 865q23 0 40 -16.5t17 -39.5t-17 -39t-40 -16t-39.5 16t-16.5 39t17 39.5t39 16.5z" />
    <glyph glyph-name="Grave" unicode="&#xf6ce;" horiz-adv-x="389" 
d="M75 900q-2 2 -2.5 5t1 5t4.5 2h87q9 0 16 -10l125 -140q1 -2 1 -4t-1.5 -3.5t-4.5 -1.5h-50q-8 0 -16 8z" />
    <glyph glyph-name="Hungarumlaut" unicode="&#xf6cf;" horiz-adv-x="674" 
d="M364 900l-138 -138q-9 -9 -14 -9h-42q-10 0 -4 10l106 139q8 10 14 10h75q4 0 5 -4.5t-2 -7.5zM529 900l-138 -138q-9 -9 -14 -9h-43q-10 0 -4 10l107 139q7 10 14 10h76q3 0 4 -4.5t-2 -7.5z" />
    <glyph glyph-name="Macron" unicode="&#xf6d0;" horiz-adv-x="411" 
d="M332 848v-57q0 -7 -6 -7h-240q-6 0 -6 7v57q0 8 6 8h240q6 0 6 -8z" />
    <glyph glyph-name="Lslashsmall" unicode="&#xf6f9;" horiz-adv-x="434" 
d="M190 81q10 1 50 1.5t57 0.5q25 0 55 1t49.5 2t21.5 1q9 0 9 -8l-6 -73q0 -6 -7 -6h-330q-9 0 -9 9q0 95 3 137q-32 -42 -52 -62q-4 -2 -5 -2q-4 0 -4 4v73q0 8 7 15l29 28l25 24q-3 45 -3 247q0 10 9 10h96q9 0 9 -10q0 -124 -3 -147q21 28 80 94q2 2 3 2q5 0 5 -5v-79
q0 -5 -6 -14l-45 -47.5l-37 -38.5q1 -18 1 -67q0 -64 -2 -90z" />
    <glyph glyph-name="OEsmall" unicode="&#xf6fa;" horiz-adv-x="794" 
d="M469 71q70 5 159 5q39 0 83.5 1.5t45.5 1.5q11 0 11 -8l-4 -64q0 -7 -7 -7h-387q-39 -13 -83 -13q-118 0 -182.5 77t-64.5 183q0 104 64 179t183 75q56 0 101 -17h351q7 0 7 -6l6 -60q2 -11 -10 -11q-9 0 -49 0.5t-68 0.5q-65 0 -151 6q45 -49 56 -127q44 2 65 2
q17 0 41 0.5t30 0.5q10 0 10 -8v-61q0 -9 -9 -9q-13 0 -36 1t-34 1q-17 0 -67 2q-5 -92 -61 -145zM287 69q65 0 96 47.5t31 128.5q0 172 -127 172t-127 -172q0 -80 31 -128t96 -48z" />
    <glyph glyph-name="Scaronsmall" unicode="&#xf6fd;" horiz-adv-x="441" 
d="M239 501q79 0 130 -30q8 -5 8 -18v-74q0 -13 -9 -13q-5 0 -11 6q-53 44 -124 44q-38 0 -57 -16t-19 -41q0 -16 5 -27t20.5 -20t26.5 -13l41 -15q79 -26 114.5 -60t35.5 -89q0 -70 -55.5 -109t-135.5 -39q-97 0 -150 39q-9 6 -9 19v59q0 14 7 14t12 -5q25 -21 63 -33.5
t73 -12.5q41 0 63.5 17t22.5 43q0 21 -14 35t-29.5 20.5t-58.5 21.5q-65 22 -101.5 55t-36.5 91q0 69 54 110t134 41zM236 611l82 86q10 9 17 9h51q3 0 4.5 -3t-0.5 -6l-115 -145q-7 -10 -16 -10h-53q-7 0 -17 10l-114 145q-2 3 -0.5 6t4.5 3h56q7 0 18 -9z" />
    <glyph glyph-name="Zcaronsmall" unicode="&#xf6ff;" horiz-adv-x="468" 
d="M434 86q12 0 10 -10l-8 -68q-1 -8 -11 -8h-387q-18 0 -18 21q0 10 7 18l212 285q38 51 61 77q-40 -2 -126 -2q-27 0 -69 -1t-58 -1q-11 0 -9 9l8 69q2 9 9 9h382q17 0 17 -22q0 -7 -5 -14l-208 -282q-46 -62 -66 -85q44 3 136 3q23 0 65.5 1t57.5 1zM257 611l82 86
q11 9 17 9h51q3 0 4.5 -3t-0.5 -6l-115 -145q-8 -10 -16 -10h-53q-7 0 -17 10l-114 145q-4 9 4 9h56q8 0 18 -9z" />
    <glyph glyph-name="exclamsmall" unicode="&#xf721;" horiz-adv-x="331" 
d="M235 696l-29 -495q0 -3 -3 -6t-6 -3h-60q-9 0 -9 9l-29 495q0 10 9 10h118q9 0 9 -10zM167 124q28 0 47 -18.5t19 -45.5t-19 -46t-47 -19q-27 0 -45.5 19t-18.5 46t18.5 45.5t45.5 18.5z" />
    <glyph glyph-name="ampersandsmall" unicode="&#xf726;" horiz-adv-x="709" 
d="M372 633q-70 0 -101.5 -30t-31.5 -78q0 -116 146 -116q71 0 135.5 3t102 6t43.5 3q7 0 7 -9v-68q0 -8 -7 -8q-61 0 -108 4q5 -38 5 -105v-226q0 -9 -10 -9h-267q-101 0 -165 50t-64 137q0 80 58.5 133.5t138.5 59.5q-72 16 -110.5 58t-38.5 106q0 74 59.5 129.5
t186.5 55.5q121 0 197 -47q13 -8 13 -28v-75q0 -16 -14 -16q-7 0 -13 6q-64 64 -162 64zM344 333q-76 0 -114 -34.5t-38 -92.5q0 -54 31.5 -83t89.5 -29q84 0 144 -3q-4 32 -4 76v87q0 54 4 83q-32 -4 -113 -4z" />
    <glyph glyph-name="zerooldstyle" unicode="&#xf730;" horiz-adv-x="542" 
d="M274 503q105 0 163 -72.5t58 -185.5q0 -115 -59.5 -186.5t-167.5 -71.5q-104 0 -162.5 71.5t-58.5 186.5q0 111 61.5 184.5t165.5 73.5zM273 65q107 0 107 177q0 179 -110 179q-107 0 -107 -179q0 -84 28 -130.5t82 -46.5z" />
    <glyph glyph-name="oneoldstyle" unicode="&#xf731;" horiz-adv-x="542" 
d="M231 380q-40 -21 -79 -37l-54 -23q-6 -2 -7 -2q-6 0 -6 7v77q0 10 10 14l229 90h3l2 1q14 0 14 -9v-353q0 -34 -3 -67q33 3 67 3h52q11 0 12 -10l6 -62v-2q0 -7 -11 -7h-363q-11 0 -11 7v2l6 62q0 10 11 10h56q36 0 66 -3q-3 33 -3 64v172q0 32 3 66z" />
    <glyph glyph-name="twooldstyle" unicode="&#xf732;" horiz-adv-x="542" 
d="M194 74q74 8 185 10q68 2 91 2q9 0 9 -7v-2l-9 -68q-2 -9 -10 -9h-389q-14 0 -14 34q0 16 6 20q154 77 223.5 142.5t69.5 128.5q0 86 -91 86q-34 0 -58 -19t-24 -48q0 -50 -54 -50q-24 0 -38 16t-14 45q0 54 49 101t147 47q96 0 145.5 -43.5t49.5 -121.5
q0 -86 -72.5 -154.5t-201.5 -109.5z" />
    <glyph glyph-name="threeoldstyle" unicode="&#xf733;" horiz-adv-x="542" 
d="M231 -216q-97 0 -165 49q-7 7 -7 17v67q0 10 7 10q3 0 11 -6q66 -52 147 -52q61 0 96 31.5t35 89.5q0 116 -112 116q-29 0 -53.5 -8.5t-25.5 -8.5q-9 0 -10 8l-7 51q-3 11 6 13q186 47 186 165q0 89 -88 89q-80 0 -91 -64q-5 -34 -49 -34q-21 0 -36 13.5t-15 38.5
q0 21 10.5 42.5t32 43t62 35t92.5 13.5q90 0 142.5 -42.5t52.5 -117.5q0 -64 -43 -111.5t-123 -73.5q87 0 136 -47t49 -128q0 -92 -68.5 -145.5t-171.5 -53.5z" />
    <glyph glyph-name="fouroldstyle" unicode="&#xf734;" horiz-adv-x="542" 
d="M38 74q115 208 256 410h96q8 0 8 -10v-314q0 -56 -2 -81q36 2 113 2q11 0 9 -11l-7 -62q-2 -8 -9 -8q-72 0 -106 2q2 -22 2 -76v-121q0 -10 -8 -10h-84q-8 0 -8 10v123q0 53 2 74q-26 -2 -78 -2h-179q-11 0 -11 11v37q0 16 6 26zM300 79q-2 25 -2 77v89q0 69 6 129
q-96 -167 -179 -296q53 3 96 3q54 0 79 -2z" />
    <glyph glyph-name="fiveoldstyle" unicode="&#xf735;" horiz-adv-x="542" 
d="M222 -132q57 0 93 38.5t36 113.5q0 135 -129 135q-45 0 -80 -9.5t-36 -9.5q-11 0 -11 8v326q0 14 13 14h305q9 0 10 -9l8 -75q1 -4 -3 -7t-9 -3q-20 0 -58 1t-59 1q-60 0 -105 3q3 -40 3 -83t-3 -87q28 7 68 7q99 0 152 -55t53 -152q0 -106 -68 -173.5t-187 -67.5
q-83 0 -124.5 30.5t-41.5 67.5q0 23 12.5 36.5t35.5 13.5q4 0 7.5 -0.5t6.5 -1.5t6 -3l4.5 -3t5 -4t4.5 -4.5t5 -6t6 -6.5q17 -20 34 -27.5t46 -7.5z" />
    <glyph glyph-name="sixoldstyle" unicode="&#xf736;" horiz-adv-x="542" 
d="M339 632q-77 0 -126.5 -74t-60.5 -215q14 51 58 83.5t104 32.5q83 0 134 -60.5t51 -162.5q0 -111 -61.5 -179.5t-162.5 -68.5q-106 0 -165.5 77t-59.5 226q0 206 86 322t221 116q70 0 101.5 -23.5t31.5 -58.5q0 -23 -13 -38t-34 -15q-16 0 -42.5 19t-61.5 19zM282 385
q-58 0 -85 -42t-27 -109q0 -84 27.5 -126.5t75.5 -42.5q109 0 109 155q0 165 -100 165z" />
    <glyph glyph-name="sevenoldstyle" unicode="&#xf737;" horiz-adv-x="542" 
d="M491 444q-96 -163 -150 -307t-54 -292q0 -28 -17.5 -42.5t-46.5 -14.5q-27 0 -45 14t-18 39q0 86 55 231.5t160 323.5q-75 -6 -148 -6q-26 0 -87.5 -1t-76.5 -1q-11 0 -9 10l11 76q2 10 9 10h414q11 0 11 -18q0 -13 -8 -22z" />
    <glyph glyph-name="eightoldstyle" unicode="&#xf738;" horiz-adv-x="542" 
d="M267 -13q-105 0 -164 47t-59 127q0 123 155 195q-62 35 -96.5 78t-34.5 107q0 79 59 133.5t153 54.5q96 0 148 -46.5t52 -118.5q0 -112 -139 -175q79 -42 120.5 -89.5t41.5 -115.5q0 -93 -64.5 -145t-171.5 -52zM276 655q-48 0 -73 -29.5t-25 -73.5q0 -40 25 -69.5
t81 -61.5q42 28 64.5 58.5t22.5 77.5q0 45 -24.5 71.5t-70.5 26.5zM253 326q-48 -32 -69.5 -66t-21.5 -86q0 -53 30.5 -81.5t80.5 -28.5q49 0 77.5 28.5t28.5 81.5q0 49 -27.5 81t-98.5 71z" />
    <glyph glyph-name="nineoldstyle" unicode="&#xf739;" horiz-adv-x="542" 
d="M196 -126q87 0 134.5 74.5t53.5 191.5q-16 -49 -57 -78.5t-99 -29.5q-83 0 -131.5 60t-48.5 161q0 114 61.5 182t161.5 68q101 0 161 -73.5t60 -226.5q0 -210 -81.5 -314t-214.5 -104q-80 0 -131 40q-10 7 -10 23v61q0 13 9 13q4 0 12 -6q49 -42 120 -42zM262 107
q50 0 79.5 36.5t29.5 108.5q0 83 -25.5 128t-73.5 45q-107 0 -107 -158q0 -160 97 -160z" />
    <glyph glyph-name="questionsmall" unicode="&#xf73f;" horiz-adv-x="491" 
d="M297 305q-44 0 -66 12q4 -84 4 -117q0 -3 -3 -6t-6 -3h-70q-9 0 -9 9v197q0 9 8 9q2 0 12 -4q34 -18 79 -18q101 0 101 111q0 56 -33.5 90t-90.5 34t-90 -41q-23 -29 -48 -29q-23 0 -36 14t-13 38q0 39 45 78t136 39q116 0 182 -62t66 -163q0 -87 -45 -137.5t-123 -50.5z
M196 124q28 0 46.5 -18.5t18.5 -45.5t-18.5 -46t-46.5 -19q-27 0 -46 19t-19 46t19 45.5t46 18.5z" />
    <glyph glyph-name="Asmall" unicode="&#xf761;" horiz-adv-x="492" 
d="M242 407q-31 -122 -68 -211q20 2 68 2q47 0 65 -1q-39 102 -65 210zM370 9q-32 86 -39 117q-20 -2 -90 -2t-89 2q-8 -31 -39 -117q-3 -9 -12 -9h-95q-11 0 -6 13l179 467q2 8 10 8h110q6 0 11 -8l182 -467q5 -13 -7 -13h-103q-8 0 -12 9z" />
    <glyph glyph-name="Bsmall" unicode="&#xf762;" horiz-adv-x="508" 
d="M270 73q80 0 80 71q0 74 -98 74q-44 0 -73 1q2 -22 2 -74q0 -54 -2 -73q11 0 42 0.5t49 0.5zM239 287q84 0 84 64q0 60 -75 60q-21 0 -69 2q2 -18 2 -62q0 -45 -2 -66q36 2 60 2zM298 0h-220q-9 0 -9 9v465q0 10 9 10h191q85 0 125 -33.5t40 -81.5q0 -39 -30 -69t-76 -38
q57 -5 95 -42t38 -88q0 -61 -42.5 -96.5t-120.5 -35.5z" />
    <glyph glyph-name="Csmall" unicode="&#xf763;" horiz-adv-x="471" 
d="M304 408q-64 0 -105.5 -43.5t-41.5 -122.5t42 -122t105 -43q67 0 113 38q5 5 10 5q10 0 10 -13v-56q0 -13 -8 -21q-55 -43 -140 -43q-112 0 -180.5 71t-68.5 183q0 109 76.5 184.5t186.5 75.5q74 0 126 -30q8 -5 8 -17v-75q0 -13 -10 -13q-4 0 -10 6q-43 36 -113 36z" />
    <glyph glyph-name="Dsmall" unicode="&#xf764;" horiz-adv-x="564" 
d="M266 0h-188q-9 0 -9 9v465q0 10 9 10h182q119 0 192 -65.5t73 -179.5q0 -115 -72 -177t-187 -62zM263 78q142 0 142 163q0 165 -151 165q-53 0 -74 2q2 -19 2 -68v-180q0 -62 -2 -84q27 2 83 2z" />
    <glyph glyph-name="Esmall" unicode="&#xf765;" horiz-adv-x="454" 
d="M288 76q39 0 83.5 1.5t45.5 1.5q11 0 11 -8l-4 -64q0 -7 -7 -7h-339q-9 0 -9 9v465q0 10 9 10h321q7 0 7 -6l5 -60q2 -11 -10 -11q-9 0 -48.5 0.5t-67.5 0.5q-18 0 -37.5 0.5t-40 2t-28.5 1.5q3 -26 3 -61t-3 -65q34 3 75 3q17 0 41.5 0.5t30.5 0.5q10 0 10 -8v-61
q0 -9 -9 -9q-13 0 -36.5 1t-34.5 1q-19 0 -77 2q3 -28 3 -71q0 -45 -3 -72q90 3 109 3z" />
    <glyph glyph-name="Fsmall" unicode="&#xf766;" horiz-adv-x="419" 
d="M182 9q0 -3 -3 -6t-6 -3h-95q-9 0 -9 9v465q0 10 9 10h321q7 0 7 -6l6 -62q2 -11 -9 -11q-15 0 -60.5 0.5t-62.5 0.5q-16 0 -34.5 0.5t-38 2t-28.5 1.5q3 -22 3 -69q0 -43 -3 -71q45 3 83 3q15 0 40 0.5t32 0.5q9 0 9 -8v-60q0 -9 -8 -9q-12 0 -36 1t-35 1q-61 0 -85 3
q3 -98 3 -193z" />
    <glyph glyph-name="Gsmall" unicode="&#xf767;" horiz-adv-x="527" 
d="M319 410q-80 0 -123.5 -45t-43.5 -123q0 -86 41.5 -127.5t102.5 -41.5q37 0 80 16v133q0 11 10 11h80q10 0 10 -11v-185q-82 -50 -184 -50q-111 0 -181.5 69.5t-70.5 178.5q0 114 76.5 190.5t203.5 76.5q83 0 145 -31q9 -5 9 -16v-79q0 -11 -9 -11q-5 0 -12 5
q-56 40 -134 40z" />
    <glyph glyph-name="Hsmall" unicode="&#xf768;" horiz-adv-x="579" 
d="M397 9q0 158 2 206q-20 -2 -63 -2h-90q-38 0 -66 2q2 -48 2 -206q0 -3 -3 -6t-6 -3h-95q-9 0 -9 9v465q0 10 9 10h95q9 0 9 -10q0 -133 -2 -177q21 2 68 2h87q50 0 64 -2q-2 43 -2 177q0 10 9 10h96q9 0 9 -10v-465q0 -3 -3 -6t-6 -3h-96q-9 0 -9 9z" />
    <glyph glyph-name="Ismall" unicode="&#xf769;" horiz-adv-x="251" 
d="M182 474v-465q0 -3 -3 -6t-6 -3h-95q-9 0 -9 9v465q0 10 9 10h95q9 0 9 -10z" />
    <glyph glyph-name="Jsmall" unicode="&#xf76a;" horiz-adv-x="325" 
d="M24 5q-7 6 -7 19v69q0 13 9 13q4 0 10 -3q20 -14 49 -14q65 0 65 57v328q0 10 9 10h95q9 0 9 -10v-306q0 -89 -46 -134.5t-118 -45.5q-43 0 -75 17z" />
    <glyph glyph-name="Ksmall" unicode="&#xf76b;" horiz-adv-x="513" 
d="M178 222q4 -41 4 -126v-87q0 -3 -3 -6t-6 -3h-95q-9 0 -9 9v465q0 10 9 10h95q9 0 9 -10v-74q0 -72 -4 -109h16q10 0 66.5 63.5t101.5 121.5q5 8 14 8h107q7 0 7 -8q0 -5 -4 -10q-24 -23 -70 -73.5l-81 -88t-48 -42.5q15 -7 106.5 -114.5t109.5 -119.5q7 -5 7 -14
q0 -14 -11 -14h-116q-7 0 -14 6q-16 20 -60.5 80.5t-75 98t-40.5 37.5h-15z" />
    <glyph glyph-name="Lsmall" unicode="&#xf76c;" horiz-adv-x="422" 
d="M182 474q0 -183 -4 -393q60 3 102 3q34 0 64.5 1t48.5 1.5t19 0.5q9 0 9 -7l-6 -74q0 -6 -7 -6h-330q-9 0 -9 10v464q0 10 9 10h95q9 0 9 -10z" />
    <glyph glyph-name="Msmall" unicode="&#xf76d;" horiz-adv-x="719" 
d="M548 9q0 298 5 395l-136 -398q0 -6 -7 -6h-101q-4 0 -8 6l-137 398q9 -152 9 -395q0 -3 -3 -6t-6 -3h-86q-9 0 -9 9v465q0 10 9 10h153q9 0 12 -11l121 -367l118 369q4 9 11 9h148q9 0 9 -10v-465q0 -3 -3 -6t-6 -3h-84q-9 0 -9 9z" />
    <glyph glyph-name="Nsmall" unicode="&#xf76e;" horiz-adv-x="607" 
d="M443 88q-8 116 -8 386q0 10 9 10h86q9 0 9 -10v-465q0 -3 -3 -6t-6 -3h-126q-9 0 -12 8q-88 140 -225 399q5 -153 5 -398q0 -3 -3 -6t-6 -3h-84q-9 0 -9 9v465q0 10 9 10h143q9 0 12 -8q134 -214 209 -388z" />
    <glyph glyph-name="Osmall" unicode="&#xf76f;" 
d="M287 501q119 0 183 -74.5t64 -179.5q0 -106 -64 -183t-183 -77q-118 0 -182.5 77t-64.5 183q0 104 64 179t183 75zM287 69q125 0 125 176q0 172 -125 172q-127 0 -127 -172q0 -81 31 -128.5t96 -47.5z" />
    <glyph glyph-name="Psmall" unicode="&#xf770;" horiz-adv-x="474" 
d="M182 9q0 -3 -3 -6t-6 -3h-95q-9 0 -9 9v465q0 10 9 10h186q91 0 138.5 -43.5t47.5 -112.5q0 -73 -52.5 -117t-139.5 -44q-46 0 -78 2q2 -28 2 -160zM239 245q49 0 72.5 19.5t23.5 62.5q0 81 -86 81q-46 0 -69 2q2 -34 2 -81q0 -50 -2 -86q30 2 59 2z" />
    <glyph glyph-name="Qsmall" unicode="&#xf771;" horiz-adv-x="570" 
d="M556 -118q-41 0 -85.5 25.5l-98 53.5t-112.5 32q-101 4 -160.5 76.5t-59.5 177.5q0 104 64 179t183 75q61 0 109.5 -21.5t78 -57t44.5 -78t15 -88.5q0 -88 -39.5 -151.5t-114.5 -86.5q31 -2 91 -24t85 -22q26 0 41 9q8 4 13 4q10 0 10 -14v-54q0 -15 -18 -25t-46 -10z
M289 69q64 0 94.5 47t30.5 127q0 174 -127 174t-127 -173q0 -80 31.5 -127.5t97.5 -47.5z" />
    <glyph glyph-name="Rsmall" unicode="&#xf772;" horiz-adv-x="523" 
d="M182 9q0 -3 -3 -6t-6 -3h-95q-9 0 -9 9v465q0 10 9 10h197q82 0 125.5 -37.5t43.5 -99.5q0 -56 -40.5 -91.5t-95.5 -41.5q28 -11 56.5 -37t77.5 -80q50 -57 72 -67q6 -3 6 -15q0 -15 -10 -15h-106q-16 0 -25 11q-16 16 -51.5 63t-63.5 77t-44 30q-30 0 -41 2
q3 -42 3 -174zM253 408q-49 0 -74 2q3 -33 3 -90q0 -49 -3 -70q28 2 55 2q99 0 99 81q0 75 -80 75z" />
    <glyph glyph-name="Ssmall" unicode="&#xf773;" horiz-adv-x="441" 
d="M239 501q79 0 130 -30q8 -5 8 -18v-74q0 -13 -9 -13q-5 0 -11 6q-53 44 -124 44q-38 0 -57 -16t-19 -41q0 -16 5 -27t20.5 -20t26.5 -13l41 -15q79 -26 114.5 -60t35.5 -89q0 -70 -55.5 -109t-135.5 -39q-97 0 -150 39q-9 6 -9 19v59q0 14 7 14t12 -5q25 -21 63 -33.5
t73 -12.5q41 0 63.5 17t22.5 43q0 21 -14 35t-29.5 20.5t-58.5 21.5q-65 22 -101.5 55t-36.5 91q0 69 54 110t134 41z" />
    <glyph glyph-name="Tsmall" unicode="&#xf774;" horiz-adv-x="439" 
d="M276 9q0 -3 -3 -6t-6 -3h-96q-9 0 -9 9v277q0 69 3 108q-21 0 -80.5 -2t-85.5 -2q-8 0 -6 8l7 77q2 9 7 9h426q5 0 7 -9l2 -77q2 -8 -7 -8q-60 0 -162 4q3 -41 3 -108v-277z" />
    <glyph glyph-name="Usmall" unicode="&#xf775;" horiz-adv-x="567" 
d="M63 174v301q0 3 3 6t6 3h95q9 0 9 -9v-303q0 -47 30.5 -70.5t77.5 -23.5t77.5 24.5t30.5 69.5v303q0 3 3 6t6 3h94q9 0 9 -9v-302q0 -88 -66 -137t-154 -49q-91 0 -156 49t-65 138z" />
    <glyph glyph-name="Vsmall" unicode="&#xf776;" horiz-adv-x="487" 
d="M309 4q-5 -9 -10 -9h-111q-7 0 -10 9l-177 465q-5 15 6 15h101q7 0 12 -9l85 -256q32 -99 41 -141q13 57 41 141l87 256q4 9 12 9h93q12 0 7 -16z" />
    <glyph glyph-name="Wsmall" unicode="&#xf777;" horiz-adv-x="774" 
d="M348 484h92q8 0 10 -9l71 -243q25 -87 34 -149q13 76 34 147l72 245q2 9 10 9h92q10 0 6 -13l-155 -467q-4 -9 -9 -9h-107q-8 0 -9 9l-72 241q-20 67 -27 132q-11 -71 -29 -133l-74 -240q-3 -9 -10 -9h-107q-7 0 -10 9l-155 467q-4 13 7 13h99q7 0 11 -9l74 -246
q22 -71 34 -146q12 73 33 144l75 248q4 9 10 9z" />
    <glyph glyph-name="Xsmall" unicode="&#xf778;" horiz-adv-x="511" 
d="M129 484q9 0 16 -10q80 -109 113 -165q29 46 120 165q7 10 18 10h101q4 0 5.5 -4t-3.5 -9q-134 -167 -189 -222q49 -48 193 -236q5 -6 3.5 -9.5t-5.5 -3.5h-119q-9 0 -17 11q-70 96 -115 166q-27 -44 -119 -167q-8 -10 -15 -10h-104q-5 0 -6.5 3.5t2.5 9.5
q109 139 192 224q-70 76 -192 234q-4 6 -2 9.5t6 3.5h117z" />
    <glyph glyph-name="Ysmall" unicode="&#xf779;" horiz-adv-x="499" 
d="M306 211v-202q0 -3 -3 -6t-6 -3h-95q-9 0 -9 9v201l-200 261q-9 13 5 13h112q9 0 17 -11q100 -134 127 -191q29 55 133 192q8 10 17 10h97q5 0 7 -3.5t-3 -9.5z" />
    <glyph glyph-name="Zsmall" unicode="&#xf77a;" horiz-adv-x="468" 
d="M434 86q12 0 10 -10l-8 -68q-1 -8 -11 -8h-387q-18 0 -18 21q0 10 7 18l212 285q38 51 61 77q-40 -2 -126 -2q-27 0 -69 -1t-58 -1q-11 0 -9 9l8 69q2 9 9 9h382q17 0 17 -22q0 -7 -5 -14l-208 -282q-46 -62 -66 -85q44 3 136 3q23 0 65.5 1t57.5 1z" />
    <glyph glyph-name="exclamdownsmall" unicode="&#xf7a1;" horiz-adv-x="331" 
d="M93 -195l29 495q0 3 3 6t6 3h59q9 0 9 -9l29 -495q0 -10 -9 -10h-117q-9 0 -9 10zM162 377q-28 0 -47 18.5t-19 45.5t19 46t47 19q26 0 45 -19t19 -46t-19 -45.5t-45 -18.5z" />
    <glyph glyph-name="questiondownsmall" unicode="&#xf7bf;" horiz-adv-x="491" 
d="M208 202q42 0 66 -12q-4 84 -4 111q0 3 3 6t6 3h70q9 0 9 -9v-193q0 -9 -8 -9q-6 0 -11 4q-37 20 -82 20q-48 0 -75 -29.5t-27 -88.5q0 -58 34.5 -92.5t94.5 -34.5q53 0 88 41q23 29 48 29q23 0 36 -14t13 -38q0 -38 -44 -75.5t-133 -37.5q-114 0 -182.5 60.5
t-68.5 164.5q0 93 46.5 143.5t120.5 50.5zM309 377q-27 0 -46 18.5t-19 46.5q0 26 19 45t46 19t46 -19t19 -45q0 -28 -19 -46.5t-46 -18.5z" />
    </font>
</defs>
</svg>
